<?xml version="1.0" encoding="UTF-8"?>
<!DOCTYPE svg PUBLIC "-//W3C//DTD SVG 1.1//EN" "http://www.w3.org/Graphics/SVG/1.1/DTD/svg11.dtd">
<svg xmlns="http://www.w3.org/2000/svg" version="1.1" width="400px" height="135px" style="shape-rendering:geometricPrecision; text-rendering:geometricPrecision; image-rendering:optimizeQuality; fill-rule:evenodd; clip-rule:evenodd" xmlns:xlink="http://www.w3.org/1999/xlink">
<g><path style="opacity:0.96" fill="#ff652e" d="M 49.5,-0.5 C 53.8333,-0.5 58.1667,-0.5 62.5,-0.5C 76.5269,6.12888 90.8603,12.2955 105.5,18C 110.26,20.3473 112.927,24.1807 113.5,29.5C 113.685,62.6125 101.352,89.7792 76.5,111C 70.3073,115.682 63.4739,118.848 56,120.5C 43.8304,117.245 33.497,110.911 25,101.5C 11.7381,86.4323 3.23811,69.099 -0.5,49.5C -0.5,40.8333 -0.5,32.1667 -0.5,23.5C 1.04602,20.8001 3.37935,18.9668 6.5,18C 20.9229,11.782 35.2562,5.61532 49.5,-0.5 Z M 54.5,23.5 C 55.8221,23.33 56.9887,23.6634 58,24.5C 57.6684,34.1755 62.1684,38.0088 71.5,36C 73.6414,34.6924 75.6414,33.1924 77.5,31.5C 79.3837,32.6927 79.8837,34.3594 79,36.5C 74.6142,41.6009 74.4475,46.7676 78.5,52C 81.1667,52.3333 83.8333,52.6667 86.5,53C 89.0026,54.7839 89.0026,56.4506 86.5,58C 77.3924,58.1098 73.8924,62.6098 76,71.5C 76.6152,73.1161 77.6152,74.4495 79,75.5C 79.49,76.7932 79.6567,78.1266 79.5,79.5C 78.1266,79.6567 76.7932,79.49 75.5,79C 70.4692,74.5585 65.3026,74.3919 60,78.5C 58.908,81.0444 58.2414,83.7111 58,86.5C 56.4506,89.0026 54.7839,89.0026 53,86.5C 53.7001,77.1998 49.5334,73.6998 40.5,76C 38.6264,77.435 36.6264,78.6016 34.5,79.5C 32.9996,79.5472 31.9996,78.8805 31.5,77.5C 36.1201,73.4912 37.6201,68.4912 36,62.5C 32.9311,59.1933 29.0977,57.6933 24.5,58C 23.1398,56.0624 23.4732,54.3957 25.5,53C 34.8002,53.7001 38.3002,49.5334 36,40.5C 34.6924,38.3586 33.1924,36.3586 31.5,34.5C 32.1667,33.1667 33.1667,32.1667 34.5,31.5C 38.5088,36.1201 43.5088,37.6201 49.5,36C 50.3333,35.1667 51.1667,34.3333 52,33.5C 52.0262,29.8609 52.8595,26.5275 54.5,23.5 Z"/></g>
<g><path style="opacity:0.751" fill="#000000" d="M 312.5,41.5 C 314.435,42.1495 316.435,42.4828 318.5,42.5C 318.663,44.8568 318.497,47.1902 318,49.5C 307.014,52.0998 307.014,54.0998 318,55.5C 318.497,58.146 318.664,60.8127 318.5,63.5C 315.5,63.5 312.5,63.5 309.5,63.5C 309.5,72.5 309.5,81.5 309.5,90.5C 306.833,90.5 304.167,90.5 301.5,90.5C 301.5,81.5 301.5,72.5 301.5,63.5C 299.5,63.5 297.5,63.5 295.5,63.5C 295.5,60.5 295.5,57.5 295.5,54.5C 297.5,54.5 299.5,54.5 301.5,54.5C 301.255,46.7516 304.922,42.4183 312.5,41.5 Z"/></g>
<g><path style="opacity:0.839" fill="#ff632e" d="M 45.5,44.5 C 52.1584,43.3445 54.1584,45.8445 51.5,52C 44.7496,53.4689 42.7496,50.9689 45.5,44.5 Z"/></g>
<g><path style="opacity:0.766" fill="#000000" d="M 137.5,44.5 C 141.846,44.3343 146.179,44.501 150.5,45C 156.919,46.4207 159.919,50.4207 159.5,57C 159.519,59.9989 158.852,62.8322 157.5,65.5C 162.799,73.0047 162.799,80.5047 157.5,88C 149.257,92.4896 140.924,92.6563 132.5,88.5C 131.167,85.5 131.167,82.5 132.5,79.5C 138.611,82.7777 144.944,83.2777 151.5,81C 155.152,77.8469 154.819,74.8469 150.5,72C 146.27,70.7101 141.936,70.2101 137.5,70.5C 137.5,67.8333 137.5,65.1667 137.5,62.5C 142.413,62.9972 146.913,61.9972 151,59.5C 151.667,57.8333 151.667,56.1667 151,54.5C 148.583,53.0015 145.917,52.3349 143,52.5C 139.335,52.4814 135.835,53.1481 132.5,54.5C 132.187,51.7531 132.52,49.0865 133.5,46.5C 135.026,46.0057 136.359,45.339 137.5,44.5 Z"/></g>
<g><path style="opacity:0.758" fill="#000000" d="M 168.5,44.5 C 174.842,44.3338 181.175,44.5005 187.5,45C 195.481,45.6613 201.315,49.4946 205,56.5C 206.95,63.8425 206.95,71.1758 205,78.5C 202.341,84.4918 197.841,88.3252 191.5,90C 183.841,90.4997 176.174,90.6664 168.5,90.5C 168.5,75.1667 168.5,59.8333 168.5,44.5 Z M 177.5,52.5 C 193.527,50.5225 200.027,57.5225 197,73.5C 196.167,78.3333 193.333,81.1667 188.5,82C 184.848,82.4986 181.182,82.6653 177.5,82.5C 177.5,72.5 177.5,62.5 177.5,52.5 Z"/></g>
<g><path style="opacity:0.76" fill="#000000" d="M 229.5,44.5 C 232.5,44.5 235.5,44.5 238.5,44.5C 238.5,53.1667 238.5,61.8333 238.5,70.5C 240.167,70.5 241.833,70.5 243.5,70.5C 243.5,73.1667 243.5,75.8333 243.5,78.5C 241.833,78.5 240.167,78.5 238.5,78.5C 238.5,82.5 238.5,86.5 238.5,90.5C 235.5,90.5 232.5,90.5 229.5,90.5C 229.5,86.5 229.5,82.5 229.5,78.5C 222.833,78.5 216.167,78.5 209.5,78.5C 209.335,75.4816 209.502,72.4816 210,69.5C 215.569,60.432 222.069,52.0986 229.5,44.5 Z M 228.5,59.5 C 229.482,62.9619 229.815,66.6286 229.5,70.5C 226.428,70.8174 223.428,70.4841 220.5,69.5C 223.57,66.4362 226.237,63.1029 228.5,59.5 Z"/></g>
<g><path style="opacity:0.742" fill="#000000" d="M 249.5,44.5 C 252.5,44.5 255.5,44.5 258.5,44.5C 258.5,57.1667 258.5,69.8333 258.5,82.5C 265.5,82.5 272.5,82.5 279.5,82.5C 279.5,85.1667 279.5,87.8333 279.5,90.5C 269.5,90.5 259.5,90.5 249.5,90.5C 249.5,75.1667 249.5,59.8333 249.5,44.5 Z"/></g>
<g><path style="opacity:0.762" fill="#000000" d="M 283.5,44.5 C 286.167,44.5 288.833,44.5 291.5,44.5C 291.5,47.1667 291.5,49.8333 291.5,52.5C 288.833,52.5 286.167,52.5 283.5,52.5C 283.5,49.8333 283.5,47.1667 283.5,44.5 Z"/></g>
<g><path style="opacity:0.769" fill="#000000" d="M 283.5,54.5 C 286.119,54.2317 288.619,54.565 291,55.5C 291.5,67.1619 291.667,78.8286 291.5,90.5C 288.833,90.5 286.167,90.5 283.5,90.5C 283.5,78.5 283.5,66.5 283.5,54.5 Z"/></g>
<g><path style="opacity:0.739" fill="#000000" d="M 328.5,54.5 C 344.274,53.2759 351.274,60.6092 349.5,76.5C 341.826,76.3336 334.159,76.5003 326.5,77C 329.477,82.8197 334.144,84.8197 340.5,83C 342.615,82.4427 344.615,81.6094 346.5,80.5C 347.833,83.5 347.833,86.5 346.5,89.5C 325.117,95.6203 315.95,87.6203 319,65.5C 320.599,60.406 323.766,56.7393 328.5,54.5 Z M 331.5,62.5 C 335.91,61.6226 339.243,63.1226 341.5,67C 336.833,67.6667 332.167,67.6667 327.5,67C 328.357,64.9812 329.691,63.4812 331.5,62.5 Z"/></g>
<g><path style="opacity:0.73" fill="#ff622f" d="M 60.5,58.5 C 67.8421,58.2066 69.8421,61.2066 66.5,67.5C 61.9292,69.3813 59.2626,67.8813 58.5,63C 58.5186,61.167 59.1852,59.667 60.5,58.5 Z"/></g>
</svg>
