<?xml version="1.0" encoding="UTF-8"?>
<!DOCTYPE svg PUBLIC "-//W3C//DTD SVG 1.1//EN" "http://www.w3.org/Graphics/SVG/1.1/DTD/svg11.dtd">
<svg xmlns="http://www.w3.org/2000/svg" version="1.1" width="400px" height="135px" style="shape-rendering:geometricPrecision; text-rendering:geometricPrecision; image-rendering:optimizeQuality; fill-rule:evenodd; clip-rule:evenodd" xmlns:xlink="http://www.w3.org/1999/xlink">
<g><path style="opacity:0.937" fill="#0f3066" d="M 102.5,94.5 C 99.1401,94.6159 95.8067,94.9492 92.5,95.5C 92.6133,90.482 92.9466,85.482 93.5,80.5C 95.1765,79.8166 95.8432,78.4832 95.5,76.5C 96.6318,67.8485 97.6318,59.1818 98.5,50.5C 99.7479,49.6661 100.415,48.3328 100.5,46.5C 100.415,44.6672 99.7479,43.3339 98.5,42.5C 98.6227,39.4121 97.6227,36.7454 95.5,34.5C 90.4297,28.9671 84.0964,26.1337 76.5,26C 65.706,24.9751 55.0394,25.6418 44.5,28C 39.1135,30.7174 34.2802,34.2174 30,38.5C 28.2932,40.9088 27.4598,43.5755 27.5,46.5C 30.8806,46.4595 34.2139,46.7929 37.5,47.5C 38.5521,49.256 40.2188,49.9227 42.5,49.5C 45.4299,50.299 48.4299,50.6323 51.5,50.5C 51.9461,47.5417 53.4461,45.2084 56,43.5C 59.7894,42.438 63.6227,42.2713 67.5,43C 69.2268,45.9036 69.8935,49.0703 69.5,52.5C 59.2084,53.8566 48.8751,55.0232 38.5,56C 34.2594,58.2882 29.9261,60.2882 25.5,62C 23.841,64.8437 21.841,67.3437 19.5,69.5C 18.3985,58.4417 16.0652,47.775 12.5,37.5C 11.277,33.7633 10.277,29.9299 9.5,26C 9.58524,24.8926 9.91858,23.8926 10.5,23C 39.1924,16.4292 67.8591,9.92924 96.5,3.5C 102.912,32.5616 109.579,61.5616 116.5,90.5C 111.733,91.6234 107.066,92.9567 102.5,94.5 Z"/></g>
<g><path style="opacity:0.907" fill="#0e3167" d="M 199.5,25.5 C 205.833,25.5 212.167,25.5 218.5,25.5C 214.858,47.5752 210.858,69.5752 206.5,91.5C 199.825,91.6663 193.158,91.4996 186.5,91C 190.911,69.1889 195.244,47.3556 199.5,25.5 Z"/></g>
<g><path style="opacity:0.999" fill="#fafbfb" d="M 98.5,42.5 C 98.5,45.1667 98.5,47.8333 98.5,50.5C 97.6318,59.1818 96.6318,67.8485 95.5,76.5C 93.8235,77.1834 93.1568,78.5168 93.5,80.5C 92.9466,85.482 92.6133,90.482 92.5,95.5C 92.5,97.1667 92.5,98.8333 92.5,100.5C 84.1667,100.5 75.8333,100.5 67.5,100.5C 66.1667,100.5 64.8333,100.5 63.5,100.5C 63.665,97.1501 63.4983,93.8168 63,90.5C 57.7583,98.9524 50.0916,102.619 40,101.5C 35.6816,101.604 31.5149,100.937 27.5,99.5C 26.1032,97.6207 24.4365,95.9541 22.5,94.5C 22.5,93.1667 21.8333,92.5 20.5,92.5C 16.9775,85.0491 16.6441,77.3825 19.5,69.5C 21.841,67.3437 23.841,64.8437 25.5,62C 29.9261,60.2882 34.2594,58.2882 38.5,56C 48.8751,55.0232 59.2084,53.8566 69.5,52.5C 69.8935,49.0703 69.2268,45.9036 67.5,43C 63.6227,42.2713 59.7894,42.438 56,43.5C 53.4461,45.2084 51.9461,47.5417 51.5,50.5C 48.4299,50.6323 45.4299,50.299 42.5,49.5C 41.4479,47.744 39.7812,47.0773 37.5,47.5C 34.2139,46.7929 30.8806,46.4595 27.5,46.5C 27.4598,43.5755 28.2932,40.9088 30,38.5C 34.2802,34.2174 39.1135,30.7174 44.5,28C 55.0394,25.6418 65.706,24.9751 76.5,26C 84.0964,26.1337 90.4297,28.9671 95.5,34.5C 97.6227,36.7454 98.6227,39.4121 98.5,42.5 Z"/></g>
<g><path style="opacity:0.923" fill="#221e1f" d="M 12.5,37.5 C 16.0652,47.775 18.3985,58.4417 19.5,69.5C 16.6441,77.3825 16.9775,85.0491 20.5,92.5C 21.8333,92.5 22.5,93.1667 22.5,94.5C 24.4365,95.9541 26.1032,97.6207 27.5,99.5C 27.8333,102.833 28.1667,106.167 28.5,109.5C 41.8572,107.631 54.8572,104.631 67.5,100.5C 75.8333,100.5 84.1667,100.5 92.5,100.5C 92.5,98.8333 92.5,97.1667 92.5,95.5C 95.8067,94.9492 99.1401,94.6159 102.5,94.5C 104.303,99.0121 105.636,103.679 106.5,108.5C 83.9775,112.605 61.6442,117.605 39.5,123.5C 32.5369,124.827 25.5369,125.827 18.5,126.5C 12.6343,102.316 7.301,77.9824 2.5,53.5C 1.56955,50.6807 0.56955,48.014 -0.5,45.5C -0.5,43.8333 -0.5,42.1667 -0.5,40.5C 3.66551,38.9053 7.99885,37.9053 12.5,37.5 Z"/></g>
<g><path style="opacity:0.909" fill="#0e3167" d="M 157.5,41.5 C 165.571,41.1367 173.571,41.6367 181.5,43C 186.475,45.9447 189.475,50.278 190.5,56C 187.294,67.6099 185.627,79.4432 185.5,91.5C 178.833,91.5 172.167,91.5 165.5,91.5C 166.17,85.3442 164.837,84.8442 161.5,90C 153.709,93.3646 146.043,93.1979 138.5,89.5C 132.937,77.4522 135.937,68.2855 147.5,62C 155.111,60.639 162.777,59.8056 170.5,59.5C 171.176,55.5095 169.51,53.8429 165.5,54.5C 161.643,54.0286 159.643,55.6953 159.5,59.5C 153.678,57.6357 147.678,56.469 141.5,56C 142.719,52.4537 144.719,49.4537 147.5,47C 150.683,44.7018 154.016,42.8684 157.5,41.5 Z M 164.5,69.5 C 165.675,69.281 166.675,69.6143 167.5,70.5C 167.106,74.811 165.106,77.9776 161.5,80C 159.888,80.7203 158.388,80.5536 157,79.5C 156.57,76.8078 156.737,74.1411 157.5,71.5C 160.067,71.2785 162.401,70.6118 164.5,69.5 Z"/></g>
<g><path style="opacity:0.912" fill="#0d3267" d="M 259.5,41.5 C 260.552,41.3505 261.552,41.5172 262.5,42C 260.845,45.6137 259.512,49.447 258.5,53.5C 251.363,61.5571 244.03,69.3905 236.5,77C 242.62,76.9024 248.454,77.7357 254,79.5C 254.876,71.6248 258.876,65.9581 266,62.5C 273.74,60.8092 281.574,59.8092 289.5,59.5C 290.176,55.5095 288.51,53.8429 284.5,54.5C 280.643,54.0286 278.643,55.6953 278.5,59.5C 272.621,57.7902 266.621,56.4568 260.5,55.5C 264.249,48.5839 269.916,44.0839 277.5,42C 285.792,40.9892 293.959,41.4892 302,43.5C 306.495,46.0014 308.995,49.8348 309.5,55C 307.608,65.8464 305.608,76.6797 303.5,87.5C 303.68,88.5539 304.013,89.5539 304.5,90.5C 297.866,91.4967 291.2,91.83 284.5,91.5C 285.093,86.281 284.093,85.6144 281.5,89.5C 273.968,93.4752 266.468,93.4752 259,89.5C 258.585,87.7091 257.585,86.3757 256,85.5C 255.667,83.8333 255.333,82.1667 255,80.5C 254.279,84.2398 253.112,87.7398 251.5,91C 237.592,91.1759 223.758,91.6759 210,92.5C 209.669,88.4726 210.002,84.4726 211,80.5C 218.125,71.7072 225.958,63.5405 234.5,56C 229.177,55.5006 223.844,55.334 218.5,55.5C 218.586,51.1434 218.92,46.81 219.5,42.5C 233.01,42.8289 246.344,42.4956 259.5,41.5 Z M 283.5,69.5 C 284.873,69.3433 286.207,69.51 287.5,70C 285.86,72.6041 284.527,75.4374 283.5,78.5C 279.984,81.5942 277.318,81.0942 275.5,77C 276.542,72.555 279.208,70.055 283.5,69.5 Z"/></g>
<g><path style="opacity:0.998" fill="#637a9d" d="M 98.5,42.5 C 99.7479,43.3339 100.415,44.6672 100.5,46.5C 100.415,48.3328 99.7479,49.6661 98.5,50.5C 98.5,47.8333 98.5,45.1667 98.5,42.5 Z"/></g>
<g><path style="opacity:0.965" fill="#a0aec3" d="M 37.5,47.5 C 39.7812,47.0773 41.4479,47.744 42.5,49.5C 40.2188,49.9227 38.5521,49.256 37.5,47.5 Z"/></g>
<g><path style="opacity:0.862" fill="#221f1f" d="M 342.5,51.5 C 353.481,51.471 359.814,56.8043 361.5,67.5C 358.945,68.4133 356.279,69.08 353.5,69.5C 349.491,70.01 347.491,68.3433 347.5,64.5C 345.712,64.2148 344.045,64.5481 342.5,65.5C 340.092,70.3161 339.426,75.3161 340.5,80.5C 342.416,81.2483 344.416,81.2483 346.5,80.5C 346.383,78.5165 347.05,76.8498 348.5,75.5C 351.708,76.802 355.041,77.4687 358.5,77.5C 358.477,79.9267 357.977,82.26 357,84.5C 354.5,85.6667 352.667,87.5 351.5,90C 336.533,96.1814 327.533,91.3481 324.5,75.5C 325.792,68.0906 328.792,61.5906 333.5,56C 336.664,54.6293 339.664,53.1293 342.5,51.5 Z"/></g>
<g><path style="opacity:0.825" fill="#221f1f" d="M 364.5,52.5 C 375.167,52.5 385.833,52.5 396.5,52.5C 396.345,55.6092 395.678,58.6092 394.5,61.5C 389.353,67.8143 384.02,73.9809 378.5,80C 382.821,80.499 387.154,80.6657 391.5,80.5C 391.058,84.1545 390.724,87.8212 390.5,91.5C 379.48,91.8321 368.48,91.4988 357.5,90.5C 358.167,87.5 358.833,84.5 359.5,81.5C 364.948,76.0962 370.282,70.5962 375.5,65C 371.514,64.5012 367.514,64.3345 363.5,64.5C 364.021,60.5191 364.354,56.5191 364.5,52.5 Z"/></g>
<g><path style="opacity:0.996" fill="#6a7b9d" d="M 64.5,66.5 C 65.209,65.596 66.209,65.2627 67.5,65.5C 67.7678,67.099 67.4345,68.4324 66.5,69.5C 66.7148,67.8212 66.0481,66.8212 64.5,66.5 Z"/></g>
<g><path style="opacity:1" fill="#133065" d="M 64.5,66.5 C 66.0481,66.8212 66.7148,67.8212 66.5,69.5C 65.5327,80.1247 59.866,84.7914 49.5,83.5C 46.872,79.701 46.872,75.8677 49.5,72C 51.7465,70.6258 53.9132,69.1258 56,67.5C 58.7695,66.6521 61.6029,66.3187 64.5,66.5 Z"/></g>
<g><path style="opacity:0.843" fill="#231e1f" d="M 309.5,76.5 C 314.167,76.5 318.833,76.5 323.5,76.5C 323.16,81.2231 322.493,85.8897 321.5,90.5C 316.88,91.4933 312.214,91.8266 307.5,91.5C 307.98,86.4704 308.647,81.4704 309.5,76.5 Z"/></g>
<g><path style="opacity:0.992" fill="#778baa" d="M 95.5,76.5 C 95.8432,78.4832 95.1765,79.8166 93.5,80.5C 93.1568,78.5168 93.8235,77.1834 95.5,76.5 Z"/></g>
<g><path style="opacity:0.973" fill="#7c7a7a" d="M 20.5,92.5 C 21.8333,92.5 22.5,93.1667 22.5,94.5C 21.1667,94.5 20.5,93.8333 20.5,92.5 Z"/></g>
<g><path style="opacity:0.998" fill="#0f2f64" d="M 67.5,100.5 C 54.8572,104.631 41.8572,107.631 28.5,109.5C 28.1667,106.167 27.8333,102.833 27.5,99.5C 31.5149,100.937 35.6816,101.604 40,101.5C 50.0916,102.619 57.7583,98.9524 63,90.5C 63.4983,93.8168 63.665,97.1501 63.5,100.5C 64.8333,100.5 66.1667,100.5 67.5,100.5 Z"/></g>
</svg>
