<svg xmlns="http://www.w3.org/2000/svg" viewBox="0 0 245.637 61.936"><defs><style>.cls-1{fill:#381457;}</style></defs><title>Asset 1</title><g id="Layer_2" data-name="Layer 2"><g id="Layer_1-2" data-name="Layer 1"><path class="cls-1" d="M219,25.94h-5.028a1.082,1.082,0,0,0-1.148.57c-.851,1.548-2.485,2.612-5.156,2.612-3.939,0-6.321-2.808-6.321-7.147s2.373-7.291,6.134-7.291a5.527,5.527,0,0,1,5.2,2.655c.255.408.485.485,1.157.485h4.986c.672,0,.85-.256.663-.851-1.259-4.6-5.777-8.159-11.766-8.159-7.6,0-12.838,5.351-12.838,13.085,0,7.2,4.432,13,12.838,13a11.828,11.828,0,0,0,11.851-8.312c.17-.477,0-.672-.57-.672"/><path class="cls-1" d="M233.511,14.446a5.719,5.719,0,0,1,4.467,1.651c.247.263.255.638-.068.791l-11.162,4.7c-.006-.114-.009-.228-.009-.341a6.838,6.838,0,0,1,6.772-6.806m11.358,11.7h-5a1.083,1.083,0,0,0-1.14.57c-.936,1.7-2.646,2.612-5.233,2.612A6.01,6.01,0,0,1,228.2,26.68l16.819-7.07c.536-.229.706-.561.57-1.344-.987-5.649-6.049-9.409-12.03-9.409-7.095,0-12.761,5.24-12.761,13.084,0,7.657,5.1,13,12.761,13,5.879,0,10.057-2.918,11.911-8.125.162-.476,0-.672-.57-.672"/><path class="cls-1" d="M103.726,14.446a5.72,5.72,0,0,1,4.467,1.651c.238.263.255.638-.068.791l-11.163,4.7a6.82,6.82,0,0,1,6.807-7.147m11.306,11.7h-4.994a1.1,1.1,0,0,0-1.148.57c-.928,1.7-2.638,2.612-5.224,2.612a6.037,6.037,0,0,1-5.317-2.663l16.845-7.07c.528-.229.706-.561.57-1.344-1-5.649-6.049-9.409-12.03-9.409-7.095,0-12.761,5.24-12.761,13.084,0,7.657,5.1,13,12.761,13,5.879,0,10.056-2.918,11.911-8.125.17-.476,0-.672-.57-.672"/><path class="cls-1" d="M54.943,14.446A5.708,5.708,0,0,1,59.409,16.1c.247.263.256.638-.068.791L48.2,21.593a6.81,6.81,0,0,1,6.755-7.147m11.35,11.7H61.307a1.084,1.084,0,0,0-1.149.57c-.936,1.7-2.637,2.612-5.232,2.612a6.012,6.012,0,0,1-5.292-2.646l16.828-7.07c.528-.229.7-.561.562-1.344C66.062,12.6,60.958,8.84,55,8.84c-7.1,0-12.761,5.24-12.761,13.084,0,7.657,5.1,13,12.761,13,5.888,0,10.065-2.918,11.911-8.125.17-.476,0-.672-.57-.672"/><path class="cls-1" d="M192.717,18.717c0-6.559-3.6-9.877-9.359-9.877a8.641,8.641,0,0,0-6.695,2.926c-.094.119-.17.094-.17-.068l-.077-1.378c0-.63-.238-.851-.851-.851h-4.126c-.655,0-.919.187-.919.851V33.359h0a.984.984,0,0,0,.979.979l.059,0h4.254c.732,0,1.123-.306,1.123-.987V20.444c0-3.828,2.229-5.547,5.1-5.547,3.105,0,4.39,1.872,4.39,4.926v13.5a1.017,1.017,0,0,0,1.012,1.012h4.305a1.016,1.016,0,0,0,1.012-1.012V33.3Z"/><path class="cls-1" d="M154.7,28.977c-3.914,0-6.381-2.807-6.381-7,0-4.449,2.552-7.146,6.381-7.146s6.372,2.7,6.372,7.146c0,4.2-2.552,7-6.372,7M166.454,9.469h-4.1c-.57,0-.97.281-.97.851l-.034,1.361c0,.136-.119.187-.238.068a10.026,10.026,0,0,0-7.419-2.807c-7.036,0-11.826,5.6-11.826,12.982s4.586,12.949,11.826,12.949a9.714,9.714,0,0,0,7.334-2.773c.153-.154.331-.128.331.093v1.2c0,.723.307.987,1.038.987h4.059c.672,0,.986-.256.986-.987V10.32c0-.6-.28-.851-.978-.851"/><path class="cls-1" d="M131.393,9.7a.684.684,0,0,0,.01-.111.667.667,0,0,0-.664-.663h-.009a12.73,12.73,0,0,0-1.421-.068c-7.53,0-11.06,4.066-11.06,11.808V33.427c0,.621.247.944.851.944h4.636c.655,0,.851-.349.851-.961V20.333c0-3.53,1.489-5.257,4.407-5.615a6.3,6.3,0,0,1,1.565,0c.528.077.792-.119.792-.689Z"/><path class="cls-1" d="M30.679,23.72H25.744a1.441,1.441,0,0,0-1.523.85,8.959,8.959,0,0,1-7.98,4.577c-6.125,0-9.852-4.2-9.852-11.681,0-7.657,4.594-11.638,9.852-11.638A8.612,8.612,0,0,1,24.17,10.3c.468.732.766.851,1.7.851h4.577c.689,0,.944-.332.74-1C29.386,4.305,23.813,0,16.233,0,6.653,0,0,7.206,0,17.483S5.955,34.967,16.233,34.967a15.474,15.474,0,0,0,14.99-10.524c.187-.443,0-.706-.544-.706"/><path class="cls-1" d="M139.79,1.472c0-.638-.246-.962-1-.962h-4.322c-.748,0-1.046.29-1.046.987V33.376c0,.646.357.97,1.029.97h4.305c.724,0,1.038-.358,1.038-.979Z"/><path class="cls-1" d="M40.1,1.472c0-.638-.366-.962-1.038-.962h-4.3c-.732,0-1.038.46-1.038,1.149V33.376c0,.646.365.97,1.038.97h4.3c.724,0,1.038-.358,1.038-.979V1.472Z"/><path class="cls-1" d="M79.045,27.471c-.178,0-.229-.119-.332-.442L73.1,10.32c-.221-.664-.5-.851-1.327-.851H67.279c-1.038,0-.672.97-.672.97l8.44,22.971c.263.748.672.961,1.531.961h4.849c.97,0,1.328-.264,1.6-.97l8.439-22.928s.366-.97-.672-.97H86.3c-.85,0-1.106.187-1.327.851L79.369,27c-.111.323-.162.442-.332.442Z"/><path class="cls-1" d="M95.117,59.981V43.651h6.371a5.7,5.7,0,0,1,3.829,1.208,4.273,4.273,0,0,1,1.415,3.439v.414a4.292,4.292,0,0,1-1.4,3.438,5.7,5.7,0,0,1-3.841,1.207H97.072v6.624Zm6.3-8.326a3.717,3.717,0,0,0,2.461-.735,2.728,2.728,0,0,0,.874-2.208V48.3a2.724,2.724,0,0,0-.874-2.208,3.706,3.706,0,0,0-2.461-.737H97.072v6.3Z"/><path class="cls-1" d="M108.491,59.326a3.066,3.066,0,0,1-1.069-2.427,3.209,3.209,0,0,1,.759-2.184,3.375,3.375,0,0,1,2.139-1.081l4.968-.737V51.862a2.239,2.239,0,0,0-.759-1.84,2.988,2.988,0,0,0-1.955-.621,3.278,3.278,0,0,0-2.024.587,2.187,2.187,0,0,0-.874,1.645h-1.794A3.761,3.761,0,0,1,109.3,48.9a5.179,5.179,0,0,1,3.3-.989,4.7,4.7,0,0,1,3.312,1.1,3.843,3.843,0,0,1,1.2,2.967v8H115.38l-.069-1.84a3.77,3.77,0,0,1-1.61,1.564,4.949,4.949,0,0,1-2.323.553A4.242,4.242,0,0,1,108.491,59.326Zm4.911-1.013A3.491,3.491,0,0,0,114.77,57.2a2.638,2.638,0,0,0,.518-1.587V54.392l-4.37.644a1.672,1.672,0,0,0-1.633,1.817,1.691,1.691,0,0,0,.586,1.368,2.555,2.555,0,0,0,1.691.5A4.24,4.24,0,0,0,113.4,58.313Z"/><path class="cls-1" d="M119.773,59.981v-11.8h1.793l.023,2.277a4.346,4.346,0,0,1,1.484-1.886,3.706,3.706,0,0,1,2.173-.667,3.363,3.363,0,0,1,.621.046v1.84c-.169-.015-.39-.023-.667-.023a3.477,3.477,0,0,0-2.622,1,4,4,0,0,0-.965,2.887v6.325Z"/><path class="cls-1" d="M130.341,59.441a3.1,3.1,0,0,1-.908-2.427v-7.36h-2.369V48.182h2.369V44.549h1.84v3.633h3.38v1.472h-3.38v7.107a2.122,2.122,0,0,0,.425,1.472,2.074,2.074,0,0,0,1.553.46,5.3,5.3,0,0,0,1.494-.229v1.563a7.555,7.555,0,0,1-1.724.231A3.891,3.891,0,0,1,130.341,59.441Z"/><path class="cls-1" d="M143.394,59.521a4.9,4.9,0,0,1-1.944-2.081,6.879,6.879,0,0,1-.678-3.139v-.438a6.883,6.883,0,0,1,.678-3.14,4.913,4.913,0,0,1,1.944-2.081,6.346,6.346,0,0,1,5.933,0,4.987,4.987,0,0,1,1.955,2.081,6.8,6.8,0,0,1,.691,3.14V54.3a6.792,6.792,0,0,1-.691,3.139,4.97,4.97,0,0,1-1.955,2.081,6.339,6.339,0,0,1-5.933,0Zm5.726-1.978a4.893,4.893,0,0,0,.967-3.242v-.438a4.9,4.9,0,0,0-.967-3.243,3.859,3.859,0,0,0-5.5,0,4.908,4.908,0,0,0-.966,3.243V54.3a4.9,4.9,0,0,0,.966,3.242,3.859,3.859,0,0,0,5.5,0Z"/><path class="cls-1" d="M155.215,59.981V49.654h-2.369V48.182h2.369V45.928a3.1,3.1,0,0,1,.908-2.426,3.893,3.893,0,0,1,2.68-.817,7.542,7.542,0,0,1,1.724.23v1.541a7.257,7.257,0,0,0-1.494-.23,2.082,2.082,0,0,0-1.541.46,2.122,2.122,0,0,0-.437,1.495v2h3.381v1.472h-3.381V59.981Z"/><path class="cls-1" d="M181.388,52.138a9.351,9.351,0,0,1-.874,4.128,6.9,6.9,0,0,1-2.461,2.841l1.84,2.829h-2.161l-1.334-2.07a8.312,8.312,0,0,1-2.554.392,7.631,7.631,0,0,1-3.99-1.024,6.875,6.875,0,0,1-2.646-2.864,9.257,9.257,0,0,1-.931-4.232v-.644a9.314,9.314,0,0,1,.931-4.255,6.8,6.8,0,0,1,2.646-2.852,8.35,8.35,0,0,1,7.969,0,6.811,6.811,0,0,1,2.633,2.852,9.3,9.3,0,0,1,.932,4.255ZM175.524,55.2l1.541,2.369a5.091,5.091,0,0,0,1.724-2.208,8.14,8.14,0,0,0,.6-3.22v-.644a7.89,7.89,0,0,0-.667-3.347,5.122,5.122,0,0,0-1.92-2.23,5.9,5.9,0,0,0-5.911,0,5.111,5.111,0,0,0-1.921,2.23,7.89,7.89,0,0,0-.667,3.347v.644a7.89,7.89,0,0,0,.667,3.347,5.12,5.12,0,0,0,1.921,2.231,5.4,5.4,0,0,0,2.955.793,6.7,6.7,0,0,0,1.541-.184L173.361,55.2Z"/><path class="cls-1" d="M185.643,46.273h-1.932V42.962h1.932Zm-.07,13.708h-1.84v-11.8h1.84Z"/><path class="cls-1" d="M188.333,59.981v-11.8h1.794l.046,1.91a4.194,4.194,0,0,1,1.507-1.6,4.32,4.32,0,0,1,2.311-.587,3.863,3.863,0,0,1,3.071,1.173,4.807,4.807,0,0,1,1.023,3.266v7.636h-1.816v-7.2q0-3.288-2.761-3.289a3.087,3.087,0,0,0-2.426,1.023,4.026,4.026,0,0,0-.909,2.772v6.693Z"/><path class="cls-1" d="M201.605,59.245a3.866,3.866,0,0,1-1.473-2.875H201.9a2.669,2.669,0,0,0,1,1.817,3.638,3.638,0,0,0,2.174.575,3.554,3.554,0,0,0,2.013-.505,1.647,1.647,0,0,0,.747-1.45,1.485,1.485,0,0,0-.689-1.311,6.824,6.824,0,0,0-2.461-.759,7.474,7.474,0,0,1-3.152-1.149,2.7,2.7,0,0,1-.989-2.278,2.987,2.987,0,0,1,1.2-2.461,4.9,4.9,0,0,1,3.128-.943,5.076,5.076,0,0,1,3.186.932,3.685,3.685,0,0,1,1.391,2.656H207.63a2.292,2.292,0,0,0-.886-1.552,3.052,3.052,0,0,0-1.874-.541,3.092,3.092,0,0,0-1.828.483,1.547,1.547,0,0,0-.679,1.334,1.427,1.427,0,0,0,.656,1.265,6.5,6.5,0,0,0,2.38.713,7.763,7.763,0,0,1,3.232,1.15,2.646,2.646,0,0,1,1.069,2.277,3.164,3.164,0,0,1-1.288,2.645,6.284,6.284,0,0,1-6.807-.023Z"/><path class="cls-1" d="M211.885,59.981V42.962h1.84v7.106a4.218,4.218,0,0,1,1.518-1.575,4.337,4.337,0,0,1,2.3-.587,3.86,3.86,0,0,1,3.07,1.173,4.8,4.8,0,0,1,1.024,3.266v7.636H219.82v-7.2q0-3.288-2.76-3.289a3.086,3.086,0,0,0-2.426,1.023,4.021,4.021,0,0,0-.909,2.772v6.693Z"/><path class="cls-1" d="M226.214,46.273h-1.932V42.962h1.932Zm-.069,13.708h-1.84v-11.8h1.84Z"/><path class="cls-1" d="M230.147,59.981V49.654h-2.37V48.182h2.37V45.928a3.1,3.1,0,0,1,.908-2.426,3.89,3.89,0,0,1,2.679-.817,7.55,7.55,0,0,1,1.725.23v1.541a7.257,7.257,0,0,0-1.494-.23,2.082,2.082,0,0,0-1.541.46,2.121,2.121,0,0,0-.438,1.495v2h3.381v1.472h-3.381V59.981Z"/><path class="cls-1" d="M239.541,59.441a3.1,3.1,0,0,1-.908-2.427v-7.36h-2.369V48.182h2.369V44.549h1.84v3.633h3.381v1.472h-3.381v7.107a2.117,2.117,0,0,0,.426,1.472,2.07,2.07,0,0,0,1.552.46,5.3,5.3,0,0,0,1.494-.229v1.563a7.548,7.548,0,0,1-1.724.231A3.893,3.893,0,0,1,239.541,59.441Z"/></g></g></svg>