<svg xmlns:xlink="http://www.w3.org/1999/xlink" xmlns="http://www.w3.org/2000/svg" viewBox="0 0 117.521 29.634" class="svg replaced-svg" width="300"  height="75.647756571166" >
  <defs>
    <style>
      .logo {
        fill: #111;
      }
    </style>
  </defs>
  <path id="Path_3" data-name="Path 3" class="logo" d="M73.634.056h3.155L67.662,29.577H63.211L54.085.056h3.155l8.225,26.7Zm33.972,12,6.592-12h3.155L109.183,14.7l8.338,14.817h-3.38l-6.7-12.056-6.592,12.113H97.521L105.8,14.817,97.859.056h3.268ZM33.972,26.817V14.873H47.493v-2.7H33.972V2.761H48.9V.056H31.042V29.577H49.07v-2.7Zm54.423.282V2.592h3.437V.056H81.747V2.535h3.662V27.042H81.859v2.479H91.944V27.042ZM5.239,24.732H8.225V2.873h5.239L13.521,0H0V2.873H5.239ZM22.93,2.873A9.542,9.542,0,0,0,16.113,0V2.873a6.938,6.938,0,0,1,6.761,7.211v9.577a6.878,6.878,0,0,1-2.085,5.183,7.049,7.049,0,0,1-5.183,2.028H.056v2.761H15.831a9.516,9.516,0,0,0,7.155-2.93,9.771,9.771,0,0,0,2.873-7.155V10.028A10.048,10.048,0,0,0,22.93,2.873Z" fill="#111"></path>
</svg>