<svg id="Vrstva_1" data-name="Vrstva 1" xmlns="http://www.w3.org/2000/svg" viewBox="0 0 400 135"><defs><style>.cls-1{fill:#323232;}.cls-1,.cls-2{fill-rule:evenodd;}.cls-2{fill:#f47d61;}</style></defs><path class="cls-1" d="M136.05,67.5c11.52,6.38,18.26,16.67,18.26,28.77A32.15,32.15,0,0,1,141,122.91c-8.57,6.43-20.9,9.83-35.64,9.83H48.86V2.25H105.4c14.74,0,27.07,3.4,35.64,9.83a32.17,32.17,0,0,1,13.27,26.64C154.31,50.82,147.57,61.11,136.05,67.5ZM66.43,117H107.1c17.76,0,29.23-8.19,29.23-20.88S124.11,75,105.19,75H66.43ZM107.1,18H66.43V60h38.76c18.92,0,31.14-8.27,31.14-21.07S124.86,18,107.1,18Z"/><path class="cls-1" d="M226.57,58.7c21.29,7.68,43.29,15.62,43.29,38.09,0,21.16-20.06,35.94-48.78,35.94-21.48,0-39.65-8-50.49-20.9a4.61,4.61,0,0,1-.85-1.53l12.54-10.44a4.82,4.82,0,0,1,1.32,1c9.11,10.14,20.89,15.72,36.63,15.72,18.58,0,31.55-8,31.55-19.45,0-11.1-12.66-16.11-33.33-23.38q-3.18-1.11-6.44-2.28c-14-5.13-37.35-13.71-37.35-35.12,0-9.79,4.76-18.62,13.39-24.85,8.41-6.08,19.76-9.29,32.82-9.29,17,0,35.94,5.94,47.28,17.17a4.62,4.62,0,0,1,1.24,2.24l-12.12,10.1a4.65,4.65,0,0,1-1.63-1c-8.43-8.19-22.74-12.35-34.77-12.35-16.3,0-28.13,7.35-28.13,17.47,0,8.79,9.4,13.91,26.73,20.28Q223,57.43,226.57,58.7Z"/><path class="cls-1" d="M388.55,32.43a52.27,52.27,0,0,0-36.37-14.52c-28.42,0-51.46,22.2-51.46,49.6s23,49.6,51.46,49.6a52.34,52.34,0,0,0,35.37-13.58l11.65,11.65a69.43,69.43,0,0,1-47,18.1c-37.69,0-68.24-29.45-68.24-65.78S314.49,1.72,352.18,1.72A69.34,69.34,0,0,1,400,20.58Z"/><path class="cls-2" d="M0,107.08H25.67v25.66H0Z"/></svg>