<?xml version="1.0" encoding="UTF-8" standalone="no"?>
<svg
   width="300"
   height="167.44186"
   fill="none"
   color="#ffffff"
   class="css-1jxndn"
   version="1.1"
   id="svg2"
   sodipodi:docname="eagLogo.svg"
   xmlns:inkscape="http://www.inkscape.org/namespaces/inkscape"
   xmlns:sodipodi="http://sodipodi.sourceforge.net/DTD/sodipodi-0.dtd"
   xmlns="http://www.w3.org/2000/svg"
   xmlns:svg="http://www.w3.org/2000/svg">
  <defs
     id="defs2" />
  <sodipodi:namedview
     id="namedview2"
     pagecolor="#ffffff"
     bordercolor="#000000"
     borderopacity="0.25"
     inkscape:showpageshadow="2"
     inkscape:pageopacity="0.0"
     inkscape:pagecheckerboard="0"
     inkscape:deskcolor="#d1d1d1" />
  <path
     d="m 113.62441,163.39033 v -22.57511 h 5.67126 c 1.3472,0 2.4568,0.2892 3.32878,0.87055 0.87199,0.57839 1.51308,1.36336 1.9233,2.35194 0.42589,0.99153 0.6411,2.10996 0.6411,3.35528 0,1.22466 -0.20624,2.33128 -0.61644,3.32282 -0.41022,0.98858 -1.05356,1.78535 -1.9233,2.38735 -0.87199,0.5784 -1.9883,0.87055 -3.35344,0.87055 h -3.60002 v 9.41367 h -2.07124 z m 2.07124,-11.7066 h 3.5507 c 1.38083,0 2.35817,-0.37772 2.93426,-1.13023 0.59178,-0.77316 0.88767,-1.82961 0.88767,-3.15756 0,-1.35746 -0.29589,-2.41096 -0.88767,-3.16347 -0.57609,-0.77316 -1.55343,-1.15974 -2.93426,-1.15974 h -3.5507 z m 16.69547,12.09318 c -1.01769,0 -1.86502,-0.22723 -2.53974,-0.67873 a 3.5103515,4.6212565 0 0 1 -1.50187,-1.80601 3.6695053,4.830777 0 0 1 -0.49316,-2.44932 c 0,-1.63486 0.47522,-2.89198 1.42791,-3.77433 0.95492,-0.87939 2.25281,-1.32204 3.8959,-1.32204 h 3.30412 v -0.19477 c 0,-1.39582 -0.27795,-2.44932 -0.83836,-3.15756 -0.56039,-0.73185 -1.30684,-1.09777 -2.24159,-1.09777 -0.80699,0 -1.50637,0.26854 -2.09815,0.80562 -0.57386,0.51643 -0.93698,1.28073 -1.08494,2.28997 h -2.12055 c 0.0829,-1.15974 0.37883,-2.13947 0.88768,-2.93624 0.52676,-0.79381 1.17683,-1.39582 1.95019,-1.80305 a 6.267524,8.250979 0 0 1 2.46577,-0.64922 c 1.70809,0 2.9903,0.60495 3.84434,1.80896 0.87199,1.18039 1.30685,2.76213 1.30685,4.73929 v 9.83862 h -1.84931 l -0.12335,-2.87132 a 4.8911793,6.4390687 0 0 1 -1.52878,2.32243 c -0.65679,0.62266 -1.54671,0.93547 -2.66302,0.93547 z m 0.32055,-2.28997 c 0.78905,0 1.46377,-0.26854 2.02192,-0.80563 a 3.8779744,5.1052195 0 0 0 1.30686,-2.0952 4.9315283,6.4921866 0 0 0 0.44383,-2.71196 v -0.0295 h -3.13152 c -1.21495,0 -2.07797,0.27739 -2.58905,0.83808 a 1.9210545,2.5290018 0 0 0 -0.73973,2.03028 1.9277792,2.5378548 0 0 0 0.69042,2.03324 c 0.47746,0.49281 1.14322,0.7407 1.99727,0.7407 z m 10.07153,1.90339 v -15.99439 h 1.87397 l 0.17261,3.06018 a 4.4159593,5.813458 0 0 1 1.72603,-2.51425 c 0.77336,-0.62266 1.72604,-0.93546 2.86029,-0.93546 v 2.83886 h -0.56713 c -0.7218,0 -1.3898,0.17115 -1.99503,0.51642 a 2.958917,3.895312 0 0 0 -1.45704,1.67616 c -0.35865,0.79677 -0.54247,1.89159 -0.54247,3.29036 v 8.06212 z m 14.91114,0 c -1.11631,0 -1.99503,-0.35412 -2.63836,-1.06236 -0.63886,-0.71119 -0.95941,-1.99192 -0.95941,-3.83924 v -8.80577 h -2.1228 v -2.28997 h 2.1228 l 0.26899,-3.83629 h 1.80001 v 3.83629 h 3.60001 v 2.28997 h -3.59777 v 8.80577 c 0,1.00924 0.15691,1.69682 0.4685,2.06569 0.31158,0.34232 0.86301,0.51347 1.64981,0.51347 h 1.28444 v 2.32244 z m 19.04467,0.38658 c -1.15219,0 -2.1878,-0.34527 -3.10687,-1.03285 a 5.7900625,7.6224173 0 0 1 -2.19677,-2.90083 c -0.52453,-1.26892 -0.78681,-2.75327 -0.78681,-4.45305 0,-1.69682 0.269,-3.16936 0.81371,-4.41764 0.54247,-1.26892 1.27323,-2.2457 2.19453,-2.93328 0.93699,-0.68758 1.97933,-1.03285 3.13152,-1.03285 1.14994,0 2.18556,0.34527 3.10686,1.03285 0.91906,0.68758 1.6431,1.66436 2.16988,2.93328 0.54247,1.24828 0.8137,2.72082 0.8137,4.41764 0,1.69978 -0.27123,3.18413 -0.8137,4.45305 a 5.7385056,7.5545444 0 0 1 -2.21919,2.90083 c -0.9213,0.68758 -1.95692,1.03285 -3.10686,1.03285 z m 0,-2.32243 a 3.8488336,5.0668566 0 0 0 3.45206,-2.70902 c 0.3766,-0.903 0.56713,-2.02143 0.56713,-3.35233 0,-1.33385 -0.19053,-2.45227 -0.56713,-3.35528 a 3.6919214,4.860287 0 0 0 -1.45703,-2.03323 3.9048737,5.1406314 0 0 0 -1.94572,-0.67873 3.846592,5.0639056 0 0 0 -3.45207,2.70901 c -0.38108,0.90596 -0.56712,2.02438 -0.56712,3.35528 0,1.33385 0.18829,2.45228 0.56712,3.35528 0.37659,0.90301 0.86302,1.58174 1.4548,2.03324 0.60524,0.4515 1.2553,0.67873 1.94796,0.67873 z m 10.80453,1.93585 v -13.70737 h -1.84932 v -2.28997 h 1.84932 v -2.77394 c 0,-1.54632 0.29589,-2.67655 0.88767,-3.38479 0.59178,-0.70823 1.45705,-1.0653 2.58905,-1.0653 h 1.23289 v 2.32243 h -0.91234 c -0.62316,0 -1.067,0.17116 -1.33151,0.51642 -0.26226,0.32166 -0.39453,0.8794 -0.39453,1.67617 v 2.70901 h 3.00824 v 2.28997 h -3.00824 v 13.70737 z m 16.28973,0 v -22.57511 h 6.38633 c 1.38083,0 2.52181,0.30101 3.42741,0.90301 0.90337,0.602 1.57809,1.42828 2.02192,2.48178 0.44384,1.05351 0.66577,2.23686 0.66577,3.5471 0,1.24827 -0.21521,2.39916 -0.6411,3.45266 -0.42815,1.03285 -1.09391,1.87093 -1.99727,2.51425 -0.90561,0.62266 -2.06228,0.93546 -3.47673,0.93546 h -3.23015 v 8.74085 z m 3.15618,-12.09613 h 3.03289 c 1.09838,0 1.88966,-0.30985 2.36713,-0.93251 0.49316,-0.64627 0.73974,-1.51681 0.73974,-2.61458 0,-1.11843 -0.24658,-1.98897 -0.73974,-2.61163 -0.47747,-0.64332 -1.2665,-0.96793 -2.36713,-0.96793 h -3.03289 v 7.1296 z m 18.10991,12.48271 c -1.18356,0 -2.25281,-0.35412 -3.20549,-1.06236 a 6.0971622,8.0267035 0 0 1 -2.24384,-2.93624 c -0.54247,-1.26893 -0.81371,-2.73262 -0.81371,-4.38813 0,-1.65255 0.28021,-3.10444 0.83837,-4.35271 0.5604,-1.26893 1.30685,-2.25751 2.24159,-2.96575 0.95493,-0.70824 2.02418,-1.06531 3.2055,-1.06531 1.17012,0 2.21919,0.35412 3.15842,1.06236 0.95268,0.71119 1.70137,1.69977 2.24161,2.9687 0.56039,1.24827 0.84059,2.69721 0.84059,4.35271 0,1.65551 -0.2802,3.1192 -0.83836,4.38813 a 5.8640354,7.7198001 0 0 1 -2.24384,2.93329 c -0.95268,0.70824 -2.01296,1.06531 -3.18307,1.06531 z m 0,-3.57956 c 0.82268,0 1.53774,-0.39838 2.14522,-1.1922 0.60747,-0.81743 0.91233,-2.02143 0.91233,-3.61497 0,-1.59058 -0.30486,-2.78278 -0.91233,-3.57955 -0.60748,-0.81448 -1.31582,-1.22467 -2.12056,-1.22467 -0.83836,0 -1.56239,0.41019 -2.16988,1.22467 -0.59178,0.79677 -0.88767,1.98897 -0.88767,3.57955 0,1.59354 0.29589,2.79754 0.88767,3.61202 0.60749,0.79677 1.32255,1.19515 2.14522,1.19515 z m 10.20603,3.19298 v -15.99439 h 2.81097 l 0.29589,2.99821 c 0.44384,-1.03285 1.04459,-1.85027 1.80001,-2.45228 0.77111,-0.62266 1.67672,-0.93546 2.71234,-0.93546 v 4.35271 h -0.88768 a 5.0436084,6.6397363 0 0 0 -1.84932,0.41905 2.5464618,3.3523291 0 0 0 -1.2822,1.45189 c -0.29589,0.68758 -0.44383,1.64665 -0.44383,2.87131 v 7.28896 z m 16.34801,0 c -1.28444,0 -2.31108,-0.41019 -3.08444,-1.22467 -0.77336,-0.81742 -1.15891,-2.27226 -1.15891,-4.35566 v -6.96435 h -2.0959 v -3.45266 h 2.0959 l 0.36986,-4.2878 h 2.78631 v 4.2878 h 3.30413 v 3.45266 h -3.30413 v 6.99681 c 0,0.77316 0.12322,1.31319 0.36987,1.61419 0.26226,0.2774 0.70834,0.41904 1.33151,0.41904 h 1.52877 v 3.51169 h -2.14521 z m 7.74923,-18.47913 a 2.0465842,2.6942574 0 0 1 -1.43015,-0.67873 1.7125853,2.2545594 0 0 1 -0.54247,-1.71157 1.6363707,2.1542256 0 0 1 0.54247,-1.67322 2.0488259,2.6972084 0 0 1 1.43015,-0.67872 c 0.57609,0 1.04459,0.22722 1.40548,0.67872 a 1.6049883,2.1129116 0 0 1 0.56713,1.67617 1.6767196,2.2073435 0 0 1 -0.56713,1.70862 1.9569201,2.5762177 0 0 1 -1.40548,0.67873 z m -1.5781,18.47913 v -15.99439 h 3.15619 v 15.99439 z m 10.87627,0 -4.48768,-15.99439 h 3.30411 l 3.10686,12.09022 3.10687,-12.09317 h 3.30413 l -4.51235,15.99439 h -3.82194 z m 14.91564,0.38658 c -1.05357,0 -1.91658,-0.21543 -2.58907,-0.64627 a 3.56415,4.6920803 0 0 1 -1.50411,-1.7706 3.5394923,4.6596194 0 0 1 -0.49315,-2.41981 c 0,-1.48435 0.44384,-2.68836 1.33151,-3.61202 0.88767,-0.92661 2.21919,-1.38697 3.99454,-1.38697 h 3.10686 v -0.38953 c 0,-1.09482 -0.23984,-1.90044 -0.71731,-2.41981 -0.47522,-0.51347 -1.067,-0.77021 -1.77311,-0.77021 -0.6411,0 -1.2015,0.20362 -1.67672,0.61085 a 1.9076048,2.5112958 0 0 0 -0.88768,1.74109 h -3.0822 c 0.0808,-1.15974 0.37659,-2.16898 0.88768,-3.03067 0.52453,-0.85874 1.19926,-1.51681 2.02193,-1.96831 0.82042,-0.47216 1.74172,-0.70824 2.76164,-0.70824 1.74174,0 3.11584,0.56954 4.11784,1.71158 1.002,1.13613 1.50187,2.75032 1.50187,4.83667 v 9.83567 h -2.68544 l -0.29589,-2.57917 a 4.5033819,5.9285468 0 0 1 -1.52878,2.12471 c -0.6411,0.56069 -1.47274,0.84104 -2.49041,0.84104 z m 0.71506,-3.22544 c 0.90336,0 1.60275,-0.38658 2.0959,-1.15974 0.50884,-0.77611 0.8294,-1.73223 0.96165,-2.87132 h -2.68992 c -0.83613,0 -1.43688,0.20657 -1.79777,0.61381 a 1.3673783,1.8001063 0 0 0 -0.54247,1.44894 c 0,0.62561 0.17933,1.10957 0.54247,1.45189 0.36089,0.34526 0.83836,0.51642 1.43014,0.51642 z m 11.77514,3.06313 a 1.9950274,2.6263846 0 0 1 -1.43014,-0.70824 1.7641421,2.3224322 0 0 1 -0.54247,-1.71157 1.793283,2.3607951 0 0 1 0.54247,-1.74109 1.9950274,2.6263846 0 0 1 1.43014,-0.70824 c 0.5761,0 1.0446,0.23608 1.40549,0.70824 0.37883,0.47216 0.56712,1.05646 0.56712,1.74109 a 1.7260348,2.2722653 0 0 1 -0.56712,1.71157 1.9076048,2.5112958 0 0 1 -1.40549,0.70824 z"
     fill="#FFFFFF"
     id="path1"
     style="fill:#000000;fill-opacity:1;stroke-width:2.57196" />
  <path
     fill-rule="evenodd"
     clip-rule="evenodd"
     d="m 291.32146,22.833374 a 2.0366018,2.3460662 0 0 1 -1.16079,0.35231 h -1.3728 v -2.530228 h 1.45621 a 2.0852579,2.4021156 0 0 1 1.11909,0.300264 c 0.27803,0.20418 0.41705,0.524462 0.41705,0.960846 0,0.376332 -0.15292,0.6806 -0.45876,0.916808 z m -1.36932,2.274003 1.45273,4.407882 h 2.49188 L 292.2772,24.82713 a 3.2008708,3.6872474 0 0 0 1.26854,-1.153016 c 0.34754,-0.512451 0.51783,-1.177036 0.51783,-1.989752 0,-1.028906 -0.29193,-1.853633 -0.87233,-2.462168 a 3.1348376,3.6111804 0 0 0 -2.19995,-0.912804 h -4.57019 v 11.209872 h 2.36677 v -4.415889 h 1.16427 z m 3.55189,5.508851 a 6.9578104,8.015059 0 0 1 -3.46848,1.008889 c -1.27548,0 -2.43975,-0.336296 -3.48933,-1.008889 a 6.9230561,7.9750237 0 0 1 -2.53706,-2.742415 6.1063301,7.0341951 0 0 1 -0.95227,-3.843385 c 0,-1.441269 0.31974,-2.730405 0.95574,-3.871409 a 7.1559099,8.2432599 0 0 1 9.48792,-2.738412 c 1.04263,0.684603 1.86979,1.60141 2.49536,2.738412 0.62211,1.141004 0.93142,2.434143 0.93142,3.871409 0,1.401234 -0.31279,2.686366 -0.93142,3.843385 -0.62557,1.157019 -1.45273,2.069823 -2.49536,2.742415 z m -8.26805,2.558253 a 9.6616947,11.129802 0 0 0 4.7961,1.401234 9.5539564,11.005693 0 0 0 8.22634,-5.20058 c 0.85843,-1.597407 1.28591,-3.374972 1.28591,-5.344707 0,-1.973738 -0.42748,-3.751304 -1.28591,-5.34871 a 9.5226775,10.969661 0 0 0 -8.21939,-5.200581 9.6616947,11.129802 0 0 0 -8.26805,5.204584 8.6538201,9.9687796 0 0 0 -1.28591,5.344707 c 0,1.969735 0.43095,3.7473 1.28591,5.344707 0.86191,1.593404 2.01575,2.858518 3.46848,3.799346 z M 68.553363,132.02154 H 0.70949942 V 14.810308 H 68.549888 v 24.065194 h -46.0981 V 59.974084 H 60.938697 V 84.043282 H 22.448312 V 107.95634 H 68.553363 Z M 134.90279,80.764394 h -19.71263 l 5.55373,-16.56659 0.0104,-0.02002 c 1.2164,-3.703261 2.46755,-7.806875 3.71871,-12.202747 l 0.53522,-1.877653 c 0.0973,0.332292 0.19114,0.660581 0.2815,0.992874 l 0.13902,0.48843 a 239.97842,276.44347 0 0 0 3.66658,12.006575 l 5.81092,17.179129 z M 115.54465,14.814311 75.344353,132.02554 h 22.545113 l 9.136904,-27.19595 h 35.91509 l 9.14038,27.19595 h 23.21587 L 135.40326,14.814311 h -19.85513 z m 154.97289,56.66991 c 0.19115,1.605414 0.35797,3.214832 0.50046,4.820245 0.14944,1.681481 0.2259,3.390987 0.2259,5.084478 0,6.105378 -0.82367,12.186733 -2.44322,18.06391 a 36.571947,42.129104 0 0 1 -7.79539,15.745866 c -3.99675,5.61295 -9.20989,10.12892 -15.49347,13.42783 -6.28358,3.2949 -13.30047,4.96037 -20.85953,4.96037 -7.42699,0 -14.47169,-1.54136 -20.94294,-4.58804 A 54.102015,62.322888 0 0 1 186.58243,116.24364 50.466715,58.1352 0 0 1 175.08571,97.066752 c -2.71083,-7.270403 -4.08363,-15.225409 -4.08363,-23.648828 0,-8.423418 1.37627,-16.334386 4.09058,-23.516711 a 50.640487,58.335377 0 0 1 11.42374,-18.91666 52.979451,61.02975 0 0 1 17.07479,-12.611107 c 6.47125,-2.98663 13.50899,-4.499963 20.92208,-4.499963 5.87348,0 11.39941,0.960846 16.42141,2.85051 4.99072,1.881658 9.46707,4.351833 13.31437,7.358481 3.90986,3.05469 7.03427,6.421656 9.28635,10.008815 l 1.67863,2.666348 -14.00598,16.48652 -2.42237,-2.598288 a 48.871493,56.297582 0 0 0 -11.38899,-9.132043 28.540229,32.876955 0 0 0 -12.87994,-3.415008 c -5.93603,0 -11.36118,1.565379 -16.12599,4.656101 a 30.100697,34.674538 0 0 0 -11.28125,12.583082 c -2.71083,5.244619 -4.09058,11.329979 -4.09058,18.079923 0,6.633843 1.45968,12.731213 4.34429,18.111952 a 32.460514,37.392932 0 0 0 11.73305,13.031474 31.841887,36.680305 0 0 0 15.97307,4.80423 29.124101,33.549547 0 0 0 11.66355,-2.72239 c 3.54493,-1.77757 6.44692,-4.22372 8.63296,-7.266403 1.77247,-2.478183 2.75602,-5.204584 2.97845,-8.295306 H 220.84322 V 68.101242 h 49.28159 l 0.3962,3.382979 z"
     fill="#FFFFFF"
     id="path2"
     style="fill:#000000;fill-opacity:1;stroke-width:3.73014" />
</svg>
