<?xml version="1.0" encoding="UTF-8"?>
<!DOCTYPE svg PUBLIC "-//W3C//DTD SVG 1.1//EN" "http://www.w3.org/Graphics/SVG/1.1/DTD/svg11.dtd">
<svg xmlns="http://www.w3.org/2000/svg" version="1.1" width="400px" height="135px" style="shape-rendering:geometricPrecision; text-rendering:geometricPrecision; image-rendering:optimizeQuality; fill-rule:evenodd; clip-rule:evenodd" xmlns:xlink="http://www.w3.org/1999/xlink">
<g><path style="opacity:0.098" fill="#fefcfc" d="M 83.5,-0.5 C 104.833,-0.5 126.167,-0.5 147.5,-0.5C 147.5,0.166667 147.5,0.833333 147.5,1.5C 145.84,13.9671 144.84,26.6337 144.5,39.5C 139.833,39.5 135.167,39.5 130.5,39.5C 128.517,39.1568 127.183,39.8235 126.5,41.5C 121.1,42.3196 116.433,44.6529 112.5,48.5C 110.8,51.3829 108.8,54.0496 106.5,56.5C 105.079,60.0275 104.412,63.6942 104.5,67.5C 103.833,67.5 103.167,67.5 102.5,67.5C 102.179,65.9519 101.179,65.2852 99.5,65.5C 99.5,66.5 99.5,67.5 99.5,68.5C 97.744,69.5521 97.0773,71.2188 97.5,73.5C 96.8969,78.6186 97.5636,83.2853 99.5,87.5C 98.9507,94.0677 100.951,99.7344 105.5,104.5C 108.894,109.651 113.561,112.984 119.5,114.5C 120.612,115.265 121.279,116.265 121.5,117.5C 120.508,117.328 119.842,117.662 119.5,118.5C 111.807,118.488 105.473,115.488 100.5,109.5C 99.0069,105.844 97.0069,102.511 94.5,99.5C 93.0958,94.5995 92.4291,89.5995 92.5,84.5C 93.1229,77.7453 92.4563,71.412 90.5,65.5C 90.5,64.1667 89.8333,63.5 88.5,63.5C 86.8235,64.1834 86.1568,65.5168 86.5,67.5C 86.5,68.5 86.5,69.5 86.5,70.5C 85.3424,79.6575 85.1757,88.9908 86,98.5C 88.3081,104.449 91.1414,110.116 94.5,115.5C 98.2874,118.436 101.621,121.77 104.5,125.5C 99.5752,129.517 94.2419,132.517 88.5,134.5C 86.8333,134.5 85.1667,134.5 83.5,134.5C 83.5,89.5 83.5,44.5 83.5,-0.5 Z"/></g>
<g><path style="opacity:0.447" fill="#979797" d="M 147.5,-0.5 C 157.167,-0.5 166.833,-0.5 176.5,-0.5C 167.225,1.47334 157.558,2.14 147.5,1.5C 147.5,0.833333 147.5,0.166667 147.5,-0.5 Z"/></g>
<g><path style="opacity:0.732" fill="#0e0e0e" d="M 176.5,-0.5 C 178.5,-0.5 180.5,-0.5 182.5,-0.5C 191.424,2.7639 197.424,9.09723 200.5,18.5C 201.833,22.5 201.833,26.5 200.5,30.5C 198.949,37.1351 195.282,42.1351 189.5,45.5C 183.769,48.0595 177.769,49.3929 171.5,49.5C 171.5,48.8333 171.5,48.1667 171.5,47.5C 171.259,45.1137 171.925,43.1137 173.5,41.5C 189.967,39.0973 195.301,30.0973 189.5,14.5C 185.775,11.1231 181.441,9.12306 176.5,8.5C 168.903,6.53316 160.903,5.8665 152.5,6.5C 160.125,4.85236 168.125,3.85236 176.5,3.5C 166.856,2.50158 157.19,2.16825 147.5,2.5C 147.5,2.16667 147.5,1.83333 147.5,1.5C 157.558,2.14 167.225,1.47334 176.5,-0.5 Z"/></g>
<g><path style="opacity:0.25" fill="#dbd9d9" d="M 147.5,1.5 C 147.5,1.83333 147.5,2.16667 147.5,2.5C 147.5,15.5 147.5,28.5 147.5,41.5C 146.5,41.5 145.5,41.5 144.5,41.5C 144.5,40.8333 144.5,40.1667 144.5,39.5C 144.84,26.6337 145.84,13.9671 147.5,1.5 Z"/></g>
<g><path style="opacity:0.515" fill="#909090" d="M 152.5,6.5 C 160.903,5.8665 168.903,6.53316 176.5,8.5C 169.833,8.5 163.167,8.5 156.5,8.5C 155.833,8.5 155.167,8.5 154.5,8.5C 153.833,8.5 153.167,8.5 152.5,8.5C 152.5,7.83333 152.5,7.16667 152.5,6.5 Z"/></g>
<g><path style="opacity:0.092" fill="#fefefe" d="M 156.5,8.5 C 163.167,8.5 169.833,8.5 176.5,8.5C 176.666,15.8409 176.5,23.1742 176,30.5C 175.821,34.3891 174.988,38.0557 173.5,41.5C 167.167,41.5 160.833,41.5 154.5,41.5C 154.5,30.8333 154.5,20.1667 154.5,9.5C 155.492,9.67158 156.158,9.33825 156.5,8.5 Z"/></g>
<g><path style="opacity:0.333" fill="#c7c7c7" d="M 152.5,8.5 C 153.167,8.5 153.833,8.5 154.5,8.5C 154.5,8.83333 154.5,9.16667 154.5,9.5C 154.5,20.1667 154.5,30.8333 154.5,41.5C 152.523,30.8842 151.856,19.8842 152.5,8.5 Z"/></g>
<g><path style="opacity:0.525" fill="#e6a1a3" d="M 130.5,39.5 C 130.5,40.1667 130.5,40.8333 130.5,41.5C 129.167,41.5 127.833,41.5 126.5,41.5C 127.183,39.8235 128.517,39.1568 130.5,39.5 Z"/></g>
<g><path style="opacity:0.831" fill="#d66265" d="M 130.5,39.5 C 135.167,39.5 139.833,39.5 144.5,39.5C 144.5,40.1667 144.5,40.8333 144.5,41.5C 139.833,41.5 135.167,41.5 130.5,41.5C 130.5,40.8333 130.5,40.1667 130.5,39.5 Z"/></g>
<g><path style="opacity:0.094" fill="#fcfafa" d="M 147.5,47.5 C 147.5,54.5 147.5,61.5 147.5,68.5C 135.5,68.5 123.5,68.5 111.5,68.5C 111.5,67.5 111.5,66.5 111.5,65.5C 111.366,63.7085 111.699,62.0418 112.5,60.5C 113.833,60.5 114.5,59.8333 114.5,58.5C 117.59,53.2568 122.09,49.5901 128,47.5C 134.51,46.1919 141.01,46.1919 147.5,47.5 Z"/></g>
<g><path style="opacity:0.987" fill="#272727" d="M 147.5,2.5 C 157.19,2.16825 166.856,2.50158 176.5,3.5C 168.125,3.85236 160.125,4.85236 152.5,6.5C 152.5,7.16667 152.5,7.83333 152.5,8.5C 151.856,19.8842 152.523,30.8842 154.5,41.5C 160.833,41.5 167.167,41.5 173.5,41.5C 171.925,43.1137 171.259,45.1137 171.5,47.5C 167.5,47.5 163.5,47.5 159.5,47.5C 157.167,47.5 154.833,47.5 152.5,47.5C 152.5,49.5 152.5,51.5 152.5,53.5C 152.5,58.5 152.5,63.5 152.5,68.5C 152.5,70.8333 152.5,73.1667 152.5,75.5C 151.945,79.0122 152.612,82.0122 154.5,84.5C 154.5,85.1667 154.5,85.8333 154.5,86.5C 153.07,86.4208 151.736,86.7542 150.5,87.5C 149.943,89.3316 148.943,90.6649 147.5,91.5C 147.5,86.1667 147.5,80.8333 147.5,75.5C 147.5,73.8333 147.5,72.1667 147.5,70.5C 147.5,69.8333 147.5,69.1667 147.5,68.5C 147.5,61.5 147.5,54.5 147.5,47.5C 147.5,45.5 147.5,43.5 147.5,41.5C 147.5,28.5 147.5,15.5 147.5,2.5 Z"/></g>
<g><path style="opacity:0.069" fill="#faf6f6" d="M 159.5,47.5 C 163.5,47.5 167.5,47.5 171.5,47.5C 171.5,48.1667 171.5,48.8333 171.5,49.5C 170.439,53.0525 169.439,56.7192 168.5,60.5C 167.833,60.5 167.167,60.5 166.5,60.5C 166.762,59.0222 166.429,57.6888 165.5,56.5C 163.778,53.2508 161.778,50.2508 159.5,47.5 Z"/></g>
<g><path style="opacity:0.333" fill="#c7c8c8" d="M 152.5,53.5 C 153.492,53.3284 154.158,53.6618 154.5,54.5C 154.5,59.1667 154.5,63.8333 154.5,68.5C 153.833,68.5 153.167,68.5 152.5,68.5C 152.5,63.5 152.5,58.5 152.5,53.5 Z"/></g>
<g><path style="opacity:0.063" fill="#fcf4f4" d="M 154.5,54.5 C 158.195,57.2114 160.528,60.878 161.5,65.5C 161.5,66.5 161.5,67.5 161.5,68.5C 159.167,68.5 156.833,68.5 154.5,68.5C 154.5,63.8333 154.5,59.1667 154.5,54.5 Z"/></g>
<g><path style="opacity:1" fill="#ca3e40" d="M 159.5,47.5 C 161.778,50.2508 163.778,53.2508 165.5,56.5C 166.429,57.6888 166.762,59.0222 166.5,60.5C 164.972,61.8021 163.972,63.4687 163.5,65.5C 162.833,65.5 162.167,65.5 161.5,65.5C 160.528,60.878 158.195,57.2114 154.5,54.5C 154.158,53.6618 153.492,53.3284 152.5,53.5C 152.5,51.5 152.5,49.5 152.5,47.5C 154.833,47.5 157.167,47.5 159.5,47.5 Z"/></g>
<g><path style="opacity:0.448" fill="#0c0d0c" d="M 306.5,56.5 C 307.833,56.5 309.167,56.5 310.5,56.5C 310.5,57.8333 310.5,59.1667 310.5,60.5C 312.167,60.5 313.833,60.5 315.5,60.5C 315.5,61.5 315.5,62.5 315.5,63.5C 313.833,63.5 312.167,63.5 310.5,63.5C 310.335,66.8499 310.502,70.1832 311,73.5C 312.314,72.6872 313.481,71.6872 314.5,70.5C 315.966,74.0776 314.799,76.4109 311,77.5C 309.635,77.1557 308.468,76.4891 307.5,75.5C 306.504,69.2015 306.17,62.8682 306.5,56.5 Z"/></g>
<g><path style="opacity:0.541" fill="#e19193" d="M 114.5,58.5 C 114.5,59.8333 113.833,60.5 112.5,60.5C 112.5,59.1667 113.167,58.5 114.5,58.5 Z"/></g>
<g><path style="opacity:0.47" fill="#0c0c0c" d="M 196.5,73.5 C 195.167,73.5 194.5,74.1667 194.5,75.5C 192.446,75.3653 190.779,76.032 189.5,77.5C 184.723,76.5567 181.723,73.7234 180.5,69C 181.336,66.5103 182.002,64.0103 182.5,61.5C 194.776,57.2603 199.442,61.2603 196.5,73.5 Z M 187.5,63.5 C 193.323,63.5822 195.656,66.5822 194.5,72.5C 189.771,74.6459 186.105,73.4792 183.5,69C 185.083,67.2654 186.416,65.4321 187.5,63.5 Z"/></g>
<g><path style="opacity:0.398" fill="#0d0d0d" d="M 208.5,77.5 C 208.5,76.1667 207.833,75.5 206.5,75.5C 203.208,70.962 200.875,65.962 199.5,60.5C 201.167,60.5 202.833,60.5 204.5,60.5C 204.693,63.3085 205.36,65.9752 206.5,68.5C 207.5,68.5 208.5,68.5 209.5,68.5C 210.201,66.0916 211.201,63.7582 212.5,61.5C 213.736,60.7542 215.07,60.4208 216.5,60.5C 216.38,62.1986 216.046,63.8653 215.5,65.5C 213.249,69.67 210.915,73.67 208.5,77.5 Z"/></g>
<g><path style="opacity:0.508" fill="#0e0d0d" d="M 232.5,75.5 C 228.833,75.5 225.167,75.5 221.5,75.5C 219.977,73.6763 218.977,71.5096 218.5,69C 219.336,66.5103 220.002,64.0103 220.5,61.5C 225.302,59.948 229.969,60.2813 234.5,62.5C 235.393,65.0841 235.726,67.7508 235.5,70.5C 230.786,70.1734 226.12,70.5067 221.5,71.5C 225.004,73.7824 228.671,74.1157 232.5,72.5C 232.5,73.5 232.5,74.5 232.5,75.5 Z M 225.5,63.5 C 227.908,64.201 230.242,65.201 232.5,66.5C 228.833,67.8333 225.167,67.8333 221.5,66.5C 223.332,65.9432 224.665,64.9432 225.5,63.5 Z"/></g>
<g><path style="opacity:0.412" fill="#0c0c0c" d="M 241.5,60.5 C 247.53,61.4494 253.53,61.7827 259.5,61.5C 260.192,62.0253 260.692,62.6919 261,63.5C 261.499,68.1548 261.666,72.8215 261.5,77.5C 260.5,77.5 259.5,77.5 258.5,77.5C 258.824,73.4454 258.491,69.4454 257.5,65.5C 256.476,64.1468 255.143,63.4802 253.5,63.5C 253.5,68.1667 253.5,72.8333 253.5,77.5C 251.5,77.5 249.5,77.5 247.5,77.5C 247.5,72.8333 247.5,68.1667 247.5,63.5C 245.833,63.5 244.167,63.5 242.5,63.5C 242.5,68.1667 242.5,72.8333 242.5,77.5C 241.5,77.5 240.5,77.5 239.5,77.5C 238.955,71.5368 239.621,65.8701 241.5,60.5 Z"/></g>
<g><path style="opacity:0.476" fill="#0c0d0c" d="M 270.5,60.5 C 273.881,60.4595 277.214,60.7929 280.5,61.5C 281.406,64.4359 282.072,67.4359 282.5,70.5C 277.786,70.1734 273.12,70.5067 268.5,71.5C 272.004,73.7824 275.671,74.1157 279.5,72.5C 279.14,75.6909 277.306,77.3576 274,77.5C 265.885,76.1849 263.218,71.5182 266,63.5C 267.31,62.1031 268.81,61.1031 270.5,60.5 Z M 270.5,63.5 C 273.748,63.6639 276.748,64.6639 279.5,66.5C 275.833,67.8333 272.167,67.8333 268.5,66.5C 269.612,65.7348 270.279,64.7348 270.5,63.5 Z"/></g>
<g><path style="opacity:0.335" fill="#0c0d0c" d="M 289.5,60.5 C 292.518,60.3354 295.518,60.502 298.5,61C 302.15,65.2707 303.483,70.104 302.5,75.5C 301.476,76.8532 300.143,77.5198 298.5,77.5C 298.824,73.4454 298.491,69.4454 297.5,65.5C 295.167,62.8333 292.833,62.8333 290.5,65.5C 289.509,69.4454 289.176,73.4454 289.5,77.5C 287.833,77.5 286.167,77.5 284.5,77.5C 283.529,70.8716 285.196,65.2049 289.5,60.5 Z"/></g>
<g><path style="opacity:0.866" fill="#c32327" d="M 166.5,60.5 C 167.167,60.5 167.833,60.5 168.5,60.5C 168.285,62.1788 168.952,63.1788 170.5,63.5C 170.5,68.1667 170.5,72.8333 170.5,77.5C 166.833,77.5 163.167,77.5 159.5,77.5C 158.448,75.744 156.781,75.0773 154.5,75.5C 154.5,73.8333 154.5,72.1667 154.5,70.5C 157.5,70.5 160.5,70.5 163.5,70.5C 163.5,68.8333 163.5,67.1667 163.5,65.5C 163.972,63.4687 164.972,61.8021 166.5,60.5 Z"/></g>
<g><path style="opacity:0.565" fill="#e39798" d="M 88.5,63.5 C 88.8432,65.4832 88.1765,66.8166 86.5,67.5C 86.1568,65.5168 86.8235,64.1834 88.5,63.5 Z"/></g>
<g><path style="opacity:1" fill="#cb3b3e" d="M 126.5,41.5 C 127.833,41.5 129.167,41.5 130.5,41.5C 135.167,41.5 139.833,41.5 144.5,41.5C 145.5,41.5 146.5,41.5 147.5,41.5C 147.5,43.5 147.5,45.5 147.5,47.5C 141.01,46.1919 134.51,46.1919 128,47.5C 122.09,49.5901 117.59,53.2568 114.5,58.5C 113.167,58.5 112.5,59.1667 112.5,60.5C 111.699,62.0418 111.366,63.7085 111.5,65.5C 109.744,66.5521 109.077,68.2188 109.5,70.5C 122.167,70.5 134.833,70.5 147.5,70.5C 147.5,72.1667 147.5,73.8333 147.5,75.5C 135.12,74.8542 123.12,75.5209 111.5,77.5C 111.844,80.5623 112.511,83.5623 113.5,86.5C 116.851,89.286 120.185,91.9526 123.5,94.5C 123.5,95.8333 124.167,96.5 125.5,96.5C 125.833,96.5 126.167,96.5 126.5,96.5C 127.183,98.1765 128.517,98.8432 130.5,98.5C 133.833,98.5 137.167,98.5 140.5,98.5C 138.591,100.649 136.924,102.982 135.5,105.5C 132.428,105.817 129.428,105.484 126.5,104.5C 122.971,102.236 119.304,100.236 115.5,98.5C 112.446,94.4523 109.113,90.7856 105.5,87.5C 105.5,87.1667 105.5,86.8333 105.5,86.5C 105.037,83.5176 104.704,80.5176 104.5,77.5C 104.5,74.1667 104.5,70.8333 104.5,67.5C 104.412,63.6942 105.079,60.0275 106.5,56.5C 108.8,54.0496 110.8,51.3829 112.5,48.5C 116.433,44.6529 121.1,42.3196 126.5,41.5 Z"/></g>
<g><path style="opacity:0.235" fill="#0d0d0d" d="M 170.5,77.5 C 170.5,72.8333 170.5,68.1667 170.5,63.5C 172.503,61.0181 175.169,60.0181 178.5,60.5C 178.5,61.5 178.5,62.5 178.5,63.5C 176.857,63.4802 175.524,64.1468 174.5,65.5C 173.509,69.4454 173.176,73.4454 173.5,77.5C 172.5,77.5 171.5,77.5 170.5,77.5 Z"/></g>
<g><path style="opacity:0.768" fill="#d6696c" d="M 111.5,65.5 C 111.5,66.5 111.5,67.5 111.5,68.5C 123.5,68.5 135.5,68.5 147.5,68.5C 147.5,69.1667 147.5,69.8333 147.5,70.5C 134.833,70.5 122.167,70.5 109.5,70.5C 109.077,68.2188 109.744,66.5521 111.5,65.5 Z"/></g>
<g><path style="opacity:0.764" fill="#c95b5e" d="M 161.5,65.5 C 162.167,65.5 162.833,65.5 163.5,65.5C 163.5,67.1667 163.5,68.8333 163.5,70.5C 160.5,70.5 157.5,70.5 154.5,70.5C 154.5,72.1667 154.5,73.8333 154.5,75.5C 153.833,75.5 153.167,75.5 152.5,75.5C 152.5,73.1667 152.5,70.8333 152.5,68.5C 153.167,68.5 153.833,68.5 154.5,68.5C 156.833,68.5 159.167,68.5 161.5,68.5C 161.5,67.5 161.5,66.5 161.5,65.5 Z"/></g>
<g><path style="opacity:0.384" fill="#edb8b9" d="M 99.5,68.5 C 99.5,70.1667 99.5,71.8333 99.5,73.5C 98.8333,73.5 98.1667,73.5 97.5,73.5C 97.0773,71.2188 97.744,69.5521 99.5,68.5 Z"/></g>
<g><path style="opacity:1" fill="#c83034" d="M 88.5,63.5 C 89.8333,63.5 90.5,64.1667 90.5,65.5C 90.5,71.8333 90.5,78.1667 90.5,84.5C 90.7852,86.288 90.4519,87.9547 89.5,89.5C 87.9785,83.2299 86.9785,76.8966 86.5,70.5C 86.5,69.5 86.5,68.5 86.5,67.5C 88.1765,66.8166 88.8432,65.4832 88.5,63.5 Z"/></g>
<g><path style="opacity:0.282" fill="#ecb4b5" d="M 90.5,65.5 C 92.4563,71.412 93.1229,77.7453 92.5,84.5C 91.8333,84.5 91.1667,84.5 90.5,84.5C 90.5,78.1667 90.5,71.8333 90.5,65.5 Z"/></g>
<g><path style="opacity:0.02" fill="#5d1618" d="M 196.5,73.5 C 196.5,74.1667 196.5,74.8333 196.5,75.5C 195.833,75.5 195.167,75.5 194.5,75.5C 194.5,74.1667 195.167,73.5 196.5,73.5 Z"/></g>
<g><path style="opacity:0.376" fill="#e4989a" d="M 102.5,67.5 C 103.167,67.5 103.833,67.5 104.5,67.5C 104.5,70.8333 104.5,74.1667 104.5,77.5C 102.952,77.8212 102.285,78.8212 102.5,80.5C 101.223,79.3064 100.556,77.6397 100.5,75.5C 100.92,72.7214 101.587,70.0547 102.5,67.5 Z"/></g>
<g><path style="opacity:0.249" fill="#eddbdb" d="M 147.5,75.5 C 147.5,80.8333 147.5,86.1667 147.5,91.5C 147.5,92.5 147.5,93.5 147.5,94.5C 146.833,94.5 146.167,94.5 145.5,94.5C 145.5,88.8333 145.5,83.1667 145.5,77.5C 134.167,77.5 122.833,77.5 111.5,77.5C 123.12,75.5209 135.12,74.8542 147.5,75.5 Z"/></g>
<g><path style="opacity:0.838" fill="#c42227" d="M 194.5,75.5 C 195.167,75.5 195.833,75.5 196.5,75.5C 199.833,75.5 203.167,75.5 206.5,75.5C 207.833,75.5 208.5,76.1667 208.5,77.5C 202.161,82.8396 196.161,88.5062 190.5,94.5C 187.931,94.7377 186.265,96.071 185.5,98.5C 182.966,98.2591 181.3,99.2591 180.5,101.5C 179.167,101.5 178.5,102.167 178.5,103.5C 176.821,103.285 175.821,103.952 175.5,105.5C 173.901,105.232 172.568,105.566 171.5,106.5C 169.821,106.285 168.821,106.952 168.5,108.5C 166.517,108.157 165.183,108.824 164.5,110.5C 162.821,110.285 161.821,110.952 161.5,112.5C 159.901,112.232 158.568,112.566 157.5,113.5C 155.219,113.077 153.552,113.744 152.5,115.5C 150.219,115.077 148.552,115.744 147.5,117.5C 139.482,118.467 131.482,118.467 123.5,117.5C 123.35,114.057 125.017,112.057 128.5,111.5C 129.612,110.735 130.279,109.735 130.5,108.5C 132.664,108.279 134.33,107.279 135.5,105.5C 136.924,102.982 138.591,100.649 140.5,98.5C 142.677,97.7206 144.344,96.3873 145.5,94.5C 146.167,94.5 146.833,94.5 147.5,94.5C 147.5,97.5 147.5,100.5 147.5,103.5C 150.076,103.532 152.409,102.865 154.5,101.5C 167.565,95.4169 179.232,87.4169 189.5,77.5C 190.779,76.032 192.446,75.3653 194.5,75.5 Z M 147.5,103.5 C 147.361,105.337 146.694,105.67 145.5,104.5C 145.957,103.702 146.624,103.369 147.5,103.5 Z"/></g>
<g><path style="opacity:0.853" fill="#c42126" d="M 221.5,75.5 C 225.167,75.5 228.833,75.5 232.5,75.5C 237.496,75.07 238.33,76.4034 235,79.5C 222.675,91.4503 209.508,102.45 195.5,112.5C 188.244,116.284 180.911,120.284 173.5,124.5C 164.361,129.095 155.028,132.429 145.5,134.5C 136.833,134.5 128.167,134.5 119.5,134.5C 114.876,132.441 110.209,130.108 105.5,127.5C 105.5,126.5 105.5,125.5 105.5,124.5C 109.815,122.082 114.482,120.749 119.5,120.5C 129.146,121.028 138.48,120.028 147.5,117.5C 149.781,117.923 151.448,117.256 152.5,115.5C 154.781,115.923 156.448,115.256 157.5,113.5C 159.099,113.768 160.432,113.434 161.5,112.5C 163.179,112.715 164.179,112.048 164.5,110.5C 166.483,110.843 167.817,110.176 168.5,108.5C 170.179,108.715 171.179,108.048 171.5,106.5C 173.099,106.768 174.432,106.434 175.5,105.5C 177.179,105.715 178.179,105.048 178.5,103.5C 179.833,103.5 180.5,102.833 180.5,101.5C 182.664,101.279 184.33,100.279 185.5,98.5C 188.546,98.8174 190.213,97.4841 190.5,94.5C 198.189,91.6325 204.523,86.7991 209.5,80C 211.955,79.6062 213.955,78.4396 215.5,76.5C 217.396,75.5344 219.396,75.2011 221.5,75.5 Z"/></g>
<g><path style="opacity:0.794" fill="#d66366" d="M 97.5,73.5 C 98.1667,73.5 98.8333,73.5 99.5,73.5C 99.5,78.1667 99.5,82.8333 99.5,87.5C 97.5636,83.2853 96.8969,78.6186 97.5,73.5 Z"/></g>
<g><path style="opacity:0.092" fill="#fefcfc" d="M 111.5,77.5 C 122.833,77.5 134.167,77.5 145.5,77.5C 145.5,83.1667 145.5,88.8333 145.5,94.5C 144.344,96.3873 142.677,97.7206 140.5,98.5C 137.167,98.5 133.833,98.5 130.5,98.5C 129.817,96.8235 128.483,96.1568 126.5,96.5C 126.167,96.5 125.833,96.5 125.5,96.5C 124.167,96.5 123.5,95.8333 123.5,94.5C 120.185,91.9526 116.851,89.286 113.5,86.5C 112.511,83.5623 111.844,80.5623 111.5,77.5 Z"/></g>
<g><path style="opacity:0.027" fill="#ebe1e1" d="M 152.5,75.5 C 153.167,75.5 153.833,75.5 154.5,75.5C 156.781,75.0773 158.448,75.744 159.5,77.5C 157.616,79.5718 155.949,81.9052 154.5,84.5C 152.612,82.0122 151.945,79.0122 152.5,75.5 Z"/></g>
<g><path style="opacity:0.122" fill="#f6d9da" d="M 104.5,77.5 C 104.704,80.5176 105.037,83.5176 105.5,86.5C 104.833,86.5 104.5,86.8333 104.5,87.5C 102.656,85.7211 101.99,83.3878 102.5,80.5C 102.285,78.8212 102.952,77.8212 104.5,77.5 Z"/></g>
<g><path style="opacity:0.649" fill="#0e0d0d" d="M 154.5,86.5 C 154.5,91.5 154.5,96.5 154.5,101.5C 152.409,102.865 150.076,103.532 147.5,103.5C 147.5,100.5 147.5,97.5 147.5,94.5C 147.5,93.5 147.5,92.5 147.5,91.5C 148.943,90.6649 149.943,89.3316 150.5,87.5C 151.736,86.7542 153.07,86.4208 154.5,86.5 Z"/></g>
<g><path style="opacity:0.055" fill="#f9e6e7" d="M 104.5,87.5 C 104.833,87.5 105.167,87.5 105.5,87.5C 109.113,90.7856 112.446,94.4523 115.5,98.5C 119.304,100.236 122.971,102.236 126.5,104.5C 129.428,105.484 132.428,105.817 135.5,105.5C 134.33,107.279 132.664,108.279 130.5,108.5C 128.833,108.5 127.167,108.5 125.5,108.5C 124.817,106.824 123.483,106.157 121.5,106.5C 118.326,105.684 115.326,104.351 112.5,102.5C 111.833,100.5 110.5,99.1667 108.5,98.5C 106.075,95.2053 104.742,91.5386 104.5,87.5 Z"/></g>
<g><path style="opacity:0.976" fill="#cc3e40" d="M 102.5,67.5 C 101.587,70.0547 100.92,72.7214 100.5,75.5C 100.556,77.6397 101.223,79.3064 102.5,80.5C 101.99,83.3878 102.656,85.7211 104.5,87.5C 104.742,91.5386 106.075,95.2053 108.5,98.5C 110.5,99.1667 111.833,100.5 112.5,102.5C 115.326,104.351 118.326,105.684 121.5,106.5C 122.183,108.176 123.517,108.843 125.5,108.5C 127.167,108.5 128.833,108.5 130.5,108.5C 130.279,109.735 129.612,110.735 128.5,111.5C 125.017,112.057 123.35,114.057 123.5,117.5C 122.833,117.5 122.167,117.5 121.5,117.5C 121.279,116.265 120.612,115.265 119.5,114.5C 113.561,112.984 108.894,109.651 105.5,104.5C 100.951,99.7344 98.9507,94.0677 99.5,87.5C 99.5,82.8333 99.5,78.1667 99.5,73.5C 99.5,71.8333 99.5,70.1667 99.5,68.5C 99.5,67.5 99.5,66.5 99.5,65.5C 101.179,65.2852 102.179,65.9519 102.5,67.5 Z"/></g>
<g><path style="opacity:0.525" fill="#e19293" d="M 123.5,94.5 C 124.833,94.5 125.5,95.1667 125.5,96.5C 125.5,95.1667 124.833,94.5 123.5,94.5 Z"/></g>
<g><path style="opacity:0.373" fill="#e7a3a4" d="M 126.5,96.5 C 128.483,96.1568 129.817,96.8235 130.5,98.5C 128.517,98.8432 127.183,98.1765 126.5,96.5 Z"/></g>
<g><path style="opacity:1" fill="#cd4042" d="M 86.5,70.5 C 86.9785,76.8966 87.9785,83.2299 89.5,89.5C 90.4519,87.9547 90.7852,86.288 90.5,84.5C 91.1667,84.5 91.8333,84.5 92.5,84.5C 92.4291,89.5995 93.0958,94.5995 94.5,99.5C 97.0069,102.511 99.0069,105.844 100.5,109.5C 105.473,115.488 111.807,118.488 119.5,118.5C 119.5,119.167 119.5,119.833 119.5,120.5C 114.482,120.749 109.815,122.082 105.5,124.5C 105.5,125.5 105.5,126.5 105.5,127.5C 104.662,127.158 104.328,126.492 104.5,125.5C 101.621,121.77 98.2874,118.436 94.5,115.5C 91.1414,110.116 88.3081,104.449 86,98.5C 85.1757,88.9908 85.3424,79.6575 86.5,70.5 Z"/></g>
<g><path style="opacity:0.506" fill="#df8285" d="M 121.5,106.5 C 123.483,106.157 124.817,106.824 125.5,108.5C 123.517,108.843 122.183,108.176 121.5,106.5 Z"/></g>
</svg>
