<svg id="Vrstva_1" data-name="Vrstva 1" xmlns="http://www.w3.org/2000/svg" viewBox="0 0 400 135"><defs><style>.cls-1{fill:#63008b;}.cls-1,.cls-2{fill-rule:evenodd;}.cls-2{fill:#6bb201;}</style></defs><g id="g4814"><path id="path4816" class="cls-1" d="M0,114V43.36H13.84V114H0m80.86,0V68.89q0-14.7-19-14.7Q51,54.19,45,59.88t-6,14.92V114H25.22V43.38H39.06v4.76c6-4.13,13.6-6.2,22.62-6.2q13.82,0,22.76,6.05Q94.66,54.92,94.67,67.6V114H80.85m63.26,0H133.6L96.11,43.66H112l26.67,51.46,24.81-51.46h15.13L144.13,114M317,114V68.89q0-14.7-19-14.7-10.8,0-16.79,5.69t-6,14.92V114H261.31V43.38h13.84v4.76q9.08-6.2,22.63-6.2,13.85,0,22.78,6.05,10.23,6.93,10.23,19.61V114H317m48.43-58V114H351.83V56H337.13V43.41h14.71V25.5h13.57V43.41H380V56H365.41M386.18,114V43.33H400V114H386.16"/><path id="path4818" class="cls-2" d="M0,34.23H13.84V20.39H0V34.23m386.13,0H400V20.39H386.13V34.23"/><path id="path4820" class="cls-1" d="M215.45,41c28.05-.08,40.14,16.49,40.14,36.83a52.17,52.17,0,0,1-.29,5.5H189.59c1.82,10.6,9.37,18.47,25.73,18.52,13.41,0,20.91-5.3,24.17-13.08H254.4c-3.53,15-15.18,26-39,25.88-29.27-.07-40.14-16.48-40.14-36.82S187.39,41,215.45,41M189.88,71.11h50.88c-2.34-10-10.35-17.39-25.45-17.34s-23.09,7.34-25.43,17.34"/></g></svg>