<?xml version="1.0" encoding="UTF-8"?>
<!DOCTYPE svg PUBLIC "-//W3C//DTD SVG 1.1//EN" "http://www.w3.org/Graphics/SVG/1.1/DTD/svg11.dtd">
<svg xmlns="http://www.w3.org/2000/svg" version="1.1" width="400px" height="135px" style="shape-rendering:geometricPrecision; text-rendering:geometricPrecision; image-rendering:optimizeQuality; fill-rule:evenodd; clip-rule:evenodd" xmlns:xlink="http://www.w3.org/1999/xlink">
<g><path style="opacity:0.916" fill="#17c871" d="M 6.5,26.5 C 11.1667,26.5 15.8333,26.5 20.5,26.5C 20.3334,43.8365 20.5001,61.1699 21,78.5C 24.1494,80.3625 27.6494,81.0291 31.5,80.5C 31.5,84.1667 31.5,87.8333 31.5,91.5C 25.4229,91.8041 19.4229,91.3041 13.5,90C 12.0692,89.5348 10.9025,88.7014 10,87.5C 9.63971,85.5789 8.80638,83.9122 7.5,82.5C 6.50042,63.8452 6.16709,45.1786 6.5,26.5 Z"/></g>
<g><path style="opacity:0.981" fill="#0fa6a5" d="M 142.5,91.5 C 145.167,87.8333 145.167,84.1667 142.5,80.5C 143.833,80.5 145.167,80.5 146.5,80.5C 146.5,72.5 146.5,64.5 146.5,56.5C 145.167,56.5 143.833,56.5 142.5,56.5C 145.167,52.8333 145.167,49.1667 142.5,45.5C 143.833,45.5 145.167,45.5 146.5,45.5C 146.5,39.1667 146.5,32.8333 146.5,26.5C 151.167,26.5 155.833,26.5 160.5,26.5C 160.5,48.1667 160.5,69.8333 160.5,91.5C 154.5,91.5 148.5,91.5 142.5,91.5 Z"/></g>
<g><path style="opacity:0.932" fill="#006dfe" d="M 357.5,89.5 C 357.868,75.0997 358.868,60.7663 360.5,46.5C 365.975,45.5111 371.642,45.1778 377.5,45.5C 377.5,39.1667 377.5,32.8333 377.5,26.5C 382.167,26.5 386.833,26.5 391.5,26.5C 391.815,45.7008 391.482,64.8674 390.5,84C 388.768,87.3989 386.101,89.7322 382.5,91C 375.5,91.6667 368.5,91.6667 361.5,91C 359.942,90.79 358.609,90.29 357.5,89.5 Z M 365.5,56.5 C 369.5,56.5 373.5,56.5 377.5,56.5C 377.666,63.8409 377.5,71.1742 377,78.5C 375.475,79.7201 373.641,80.3868 371.5,80.5C 369.285,80.3295 367.285,79.6628 365.5,78.5C 364.236,71.1405 364.236,63.8071 365.5,56.5 Z"/></g>
<g><path style="opacity:0.441" fill="#006dff" d="M 399.5,26.5 C 399.5,29.1667 399.5,31.8333 399.5,34.5C 394.593,34.4673 393.26,32.1339 395.5,27.5C 396.689,26.5713 398.022,26.238 399.5,26.5 Z"/></g>
<g><path style="opacity:0.975" fill="#16c276" d="M 54.5,80.5 C 53.1667,84.1667 51.8333,87.8333 50.5,91.5C 43.1291,92.3968 37.6291,89.7301 34,83.5C 33.5001,70.8377 33.3334,58.1711 33.5,45.5C 38.1667,45.5 42.8333,45.5 47.5,45.5C 47.3335,56.505 47.5002,67.505 48,78.5C 49.7542,80.25 51.9208,80.9167 54.5,80.5 Z"/></g>
<g><path style="opacity:0.94" fill="#15bd81" d="M 50.5,91.5 C 51.8333,87.8333 53.1667,84.1667 54.5,80.5C 56.5,79.8333 58.5,79.1667 60.5,78.5C 60.5,67.5 60.5,56.5 60.5,45.5C 65.1667,45.5 69.8333,45.5 74.5,45.5C 74.8323,57.5185 74.499,69.5185 73.5,81.5C 71.9472,84.6841 69.9472,87.5174 67.5,90C 61.9116,91.2889 56.2449,91.7889 50.5,91.5 Z"/></g>
<g><path style="opacity:0.973" fill="#12b293" d="M 91.5,45.5 C 98.2414,45.1712 104.908,45.6712 111.5,47C 112.787,48.4095 113.954,49.9095 115,51.5C 116.463,64.7345 116.963,78.0679 116.5,91.5C 112.5,91.5 108.5,91.5 104.5,91.5C 105.032,79.6896 104.366,68.0229 102.5,56.5C 100.5,56.5 98.5,56.5 96.5,56.5C 96.5,53.1667 96.5,49.8333 96.5,46.5C 94.5853,46.7845 92.9187,46.4511 91.5,45.5 Z"/></g>
<g><path style="opacity:0.928" fill="#10aa9e" d="M 129.5,46.5 C 133.634,45.5151 137.968,45.1818 142.5,45.5C 145.167,49.1667 145.167,52.8333 142.5,56.5C 140.076,56.1924 137.743,56.5258 135.5,57.5C 134.203,64.4733 134.203,71.4733 135.5,78.5C 137.523,80.1733 139.856,80.8399 142.5,80.5C 145.167,84.1667 145.167,87.8333 142.5,91.5C 138.298,91.8168 134.298,91.4834 130.5,90.5C 130.829,75.6572 130.496,60.9905 129.5,46.5 Z"/></g>
<g><path style="opacity:0.974" fill="#0a93c3" d="M 233.5,45.5 C 234.209,46.404 235.209,46.7373 236.5,46.5C 236.849,50.7416 236.183,54.7416 234.5,58.5C 231.118,56.3681 227.451,56.0348 223.5,57.5C 222.549,62.7698 222.215,68.1032 222.5,73.5C 225.85,73.665 229.183,73.4983 232.5,73C 233.756,72.5831 234.423,71.7498 234.5,70.5C 235.833,74.8333 237.167,79.1667 238.5,83.5C 233.36,84.4881 228.026,84.8214 222.5,84.5C 222.5,85.8333 222.5,87.1667 222.5,88.5C 227.363,88.1805 232.03,88.5139 236.5,89.5C 237.08,93.649 236.414,97.3157 234.5,100.5C 229.015,99.6728 223.348,99.1728 217.5,99C 216.584,98.7216 215.918,98.2216 215.5,97.5C 216.831,89.5278 217.498,81.1945 217.5,72.5C 217.486,63.7582 217.153,55.0915 216.5,46.5C 222.075,45.5476 227.741,45.2143 233.5,45.5 Z"/></g>
<g><path style="opacity:0.95" fill="#0788d4" d="M 253.5,45.5 C 261.833,45.5 270.167,45.5 278.5,45.5C 278.5,49.1667 278.5,52.8333 278.5,56.5C 270.167,56.5 261.833,56.5 253.5,56.5C 253.5,52.8333 253.5,49.1667 253.5,45.5 Z"/></g>
<g><path style="opacity:0.933" fill="#057ee3" d="M 314.5,47.5 C 313.178,62.0688 313.178,76.7354 314.5,91.5C 308.167,91.5 301.833,91.5 295.5,91.5C 297.298,88.1691 297.964,84.5025 297.5,80.5C 300.833,80.5 304.167,80.5 307.5,80.5C 307.5,78.5 307.5,76.5 307.5,74.5C 303.833,74.5 300.167,74.5 296.5,74.5C 297.423,70.9359 297.756,67.2693 297.5,63.5C 296.209,63.7373 295.209,63.404 294.5,62.5C 298.833,62.5 303.167,62.5 307.5,62.5C 307.617,60.5165 306.95,58.8498 305.5,57.5C 298.197,56.5027 290.863,56.1694 283.5,56.5C 283.5,52.8333 283.5,49.1667 283.5,45.5C 292.839,45.3335 302.173,45.5002 311.5,46C 312.737,46.2321 313.737,46.7321 314.5,47.5 Z"/></g>
<g><path style="opacity:0.974" fill="#0277ef" d="M 333.5,45.5 C 338.833,45.5 344.167,45.5 349.5,45.5C 349.5,49.1667 349.5,52.8333 349.5,56.5C 345.649,55.9709 342.149,56.6375 339,58.5C 338.5,69.495 338.333,80.495 338.5,91.5C 333.833,91.5 329.167,91.5 324.5,91.5C 324.333,79.4954 324.5,67.4954 325,55.5C 325.725,53.0506 326.725,50.7173 328,48.5C 330.058,47.7709 331.891,46.7709 333.5,45.5 Z"/></g>
<g><path style="opacity:0.984" fill="#10ad9a" d="M 129.5,46.5 C 130.496,60.9905 130.829,75.6572 130.5,90.5C 124.606,90.441 121.44,87.441 121,81.5C 120.08,71.7583 120.413,62.0916 122,52.5C 122.894,48.4817 125.394,46.4817 129.5,46.5 Z"/></g>
<g><path style="opacity:0.987" fill="#0da2ac" d="M 175.5,45.5 C 174.167,60.8333 174.167,76.1667 175.5,91.5C 171.386,90.8673 168.219,88.8673 166,85.5C 164.906,79.9131 164.406,74.2465 164.5,68.5C 164.406,62.7535 164.906,57.0869 166,51.5C 168.219,48.1327 171.386,46.1327 175.5,45.5 Z"/></g>
<g><path style="opacity:0.99" fill="#0d9eb2" d="M 175.5,45.5 C 181.167,45.5 186.833,45.5 192.5,45.5C 191.343,47.2147 190.676,49.2147 190.5,51.5C 190.92,54.2786 191.587,56.9453 192.5,59.5C 190.296,57.6385 187.629,56.6385 184.5,56.5C 179.822,55.8688 177.822,57.8688 178.5,62.5C 182.167,62.5 185.833,62.5 189.5,62.5C 190.423,66.0641 190.756,69.7307 190.5,73.5C 189.209,73.2627 188.209,73.596 187.5,74.5C 184.5,74.5 181.5,74.5 178.5,74.5C 178.357,76.2624 178.691,77.9291 179.5,79.5C 186.803,80.4973 194.137,80.8306 201.5,80.5C 201.5,84.1667 201.5,87.8333 201.5,91.5C 192.833,91.5 184.167,91.5 175.5,91.5C 174.167,76.1667 174.167,60.8333 175.5,45.5 Z"/></g>
<g><path style="opacity:0.979" fill="#0c9ab7" d="M 192.5,45.5 C 198.382,45.2141 202.215,47.8808 204,53.5C 204.5,60.4921 204.666,67.4921 204.5,74.5C 198.833,74.5 193.167,74.5 187.5,74.5C 188.209,73.596 189.209,73.2627 190.5,73.5C 190.756,69.7307 190.423,66.0641 189.5,62.5C 190.5,62.5 191.5,62.5 192.5,62.5C 192.5,61.5 192.5,60.5 192.5,59.5C 191.587,56.9453 190.92,54.2786 190.5,51.5C 190.676,49.2147 191.343,47.2147 192.5,45.5 Z"/></g>
<g><path style="opacity:0.901" fill="#14b889" d="M 91.5,45.5 C 92.9187,46.4511 94.5853,46.7845 96.5,46.5C 96.5,49.8333 96.5,53.1667 96.5,56.5C 94.2341,56.1412 92.4007,56.8078 91,58.5C 90.5002,69.495 90.3335,80.495 90.5,91.5C 85.8333,91.5 81.1667,91.5 76.5,91.5C 76.3335,79.8286 76.5001,68.1619 77,56.5C 77.6575,53.7152 78.4909,51.0486 79.5,48.5C 83.1482,46.3574 87.1482,45.3574 91.5,45.5 Z"/></g>
<g><path style="opacity:0.95" fill="#0a96be" d="M 216.5,46.5 C 217.153,55.0915 217.486,63.7582 217.5,72.5C 217.498,81.1945 216.831,89.5278 215.5,97.5C 213.61,97.7035 212.11,97.0368 211,95.5C 210.529,93.7536 209.862,92.087 209,90.5C 208.333,78.8333 208.333,67.1667 209,55.5C 209.661,50.7823 212.161,47.7823 216.5,46.5 Z"/></g>
<g><path style="opacity:0.957" fill="#098fca" d="M 233.5,45.5 C 240.176,45.0934 245.009,47.7601 248,53.5C 248.667,60.8333 248.667,68.1667 248,75.5C 247.11,80.8917 243.943,83.5584 238.5,83.5C 237.167,79.1667 235.833,74.8333 234.5,70.5C 234.5,66.5 234.5,62.5 234.5,58.5C 236.183,54.7416 236.849,50.7416 236.5,46.5C 235.209,46.7373 234.209,46.404 233.5,45.5 Z"/></g>
<g><path style="opacity:0.97" fill="#1274ea" d="M 314.5,47.5 C 316.988,48.7399 318.821,50.7399 320,53.5C 321.536,65.7905 321.87,78.1239 321,90.5C 318.959,91.4231 316.792,91.7564 314.5,91.5C 313.178,76.7354 313.178,62.0688 314.5,47.5 Z"/></g>
<g><path style="opacity:0.917" fill="#0270f8" d="M 360.5,46.5 C 358.868,60.7663 357.868,75.0997 357.5,89.5C 355.983,89.4894 354.816,88.8228 354,87.5C 353,85.5 352,83.5 351,81.5C 350.333,72.8333 350.333,64.1667 351,55.5C 352.491,53.0058 353.991,50.5058 355.5,48C 357.025,46.9914 358.692,46.4914 360.5,46.5 Z"/></g>
<g><path style="opacity:0.943" fill="#0582dd" d="M 294.5,62.5 C 295.209,63.404 296.209,63.7373 297.5,63.5C 297.756,67.2693 297.423,70.9359 296.5,74.5C 295.414,74.62 294.747,75.2867 294.5,76.5C 294.561,78.6528 295.561,79.9862 297.5,80.5C 297.964,84.5025 297.298,88.1691 295.5,91.5C 285.799,91.634 280.799,86.8006 280.5,77C 281.27,68.3967 285.937,63.5633 294.5,62.5 Z"/></g>
<g><path style="opacity:0.977" fill="#0789d3" d="M 261.5,62.5 C 267.167,62.5 272.833,62.5 278.5,62.5C 278.5,66.5 278.5,70.5 278.5,74.5C 273.5,74.5 268.5,74.5 263.5,74.5C 263.328,76.4918 263.995,78.1585 265.5,79.5C 269.783,80.4922 274.116,80.8256 278.5,80.5C 278.5,84.1667 278.5,87.8333 278.5,91.5C 271.094,91.848 263.761,91.348 256.5,90C 248.888,82.3568 248.555,74.3568 255.5,66C 257.706,65.0232 259.706,63.8565 261.5,62.5 Z"/></g>
<g><path style="opacity:0.943" fill="#0990c8" d="M 236.5,89.5 C 244.339,90.1236 248.339,94.4569 248.5,102.5C 248.903,109.542 245.903,114.375 239.5,117C 232.508,117.5 225.508,117.666 218.5,117.5C 219.209,116.596 220.209,116.263 221.5,116.5C 221.5,112.833 221.5,109.167 221.5,105.5C 225.514,105.666 229.514,105.499 233.5,105C 234.38,103.644 234.714,102.144 234.5,100.5C 236.414,97.3157 237.08,93.649 236.5,89.5 Z"/></g>
<g><path style="opacity:0.939" fill="#0a96bf" d="M 221.5,105.5 C 221.5,109.167 221.5,112.833 221.5,116.5C 220.209,116.263 219.209,116.596 218.5,117.5C 215.833,117.5 213.167,117.5 210.5,117.5C 210.5,113.5 210.5,109.5 210.5,105.5C 214.167,105.5 217.833,105.5 221.5,105.5 Z"/></g>
</svg>
