<?xml version="1.0" encoding="UTF-8"?>
<!DOCTYPE svg PUBLIC "-//W3C//DTD SVG 1.1//EN" "http://www.w3.org/Graphics/SVG/1.1/DTD/svg11.dtd">
<svg xmlns="http://www.w3.org/2000/svg" version="1.1" width="400px" height="135px" style="shape-rendering:geometricPrecision; text-rendering:geometricPrecision; image-rendering:optimizeQuality; fill-rule:evenodd; clip-rule:evenodd" xmlns:xlink="http://www.w3.org/1999/xlink">
<g><path style="opacity:1" fill="#dd103b" d="M -0.5,18.5 C 132.833,18.5 266.167,18.5 399.5,18.5C 399.5,50.8333 399.5,83.1667 399.5,115.5C 266.167,115.5 132.833,115.5 -0.5,115.5C -0.5,83.1667 -0.5,50.8333 -0.5,18.5 Z"/></g>
<g><path style="opacity:1" fill="#db062f" d="M 0.5,19.5 C 133.167,19.5 265.833,19.5 398.5,19.5C 398.5,51.1667 398.5,82.8333 398.5,114.5C 265.833,114.5 133.167,114.5 0.5,114.5C 0.5,82.8333 0.5,51.1667 0.5,19.5 Z"/></g>
<g><path style="opacity:1" fill="#ee879c" d="M 250.5,90.5 C 250.5,92.5 250.5,94.5 250.5,96.5C 249.307,96.0296 248.64,95.0296 248.5,93.5C 248.64,91.9704 249.307,90.9704 250.5,90.5 Z"/></g>
<g><path style="opacity:1" fill="#eb7a8f" d="M 321.5,89.5 C 321.5,90.8333 321.5,92.1667 321.5,93.5C 320.414,93.38 319.747,92.7133 319.5,91.5C 319.747,90.2867 320.414,89.62 321.5,89.5 Z"/></g>
<g><path style="opacity:1" fill="#fdf1f3" d="M 250.5,96.5 C 250.5,94.5 250.5,92.5 250.5,90.5C 251.378,87.2964 253.545,85.6298 257,85.5C 261.853,86.294 264.687,88.9607 265.5,93.5C 265.333,94.8333 265.167,96.1667 265,97.5C 259.562,103.118 254.728,102.785 250.5,96.5 Z"/></g>
<g><path style="opacity:1" fill="#f08c9f" d="M 148.5,55.5 C 149.833,55.5 150.5,56.1667 150.5,57.5C 150.5,56.1667 149.833,55.5 148.5,55.5 Z"/></g>
<g><path style="opacity:1" fill="#f4b4c1" d="M 219.5,40.5 C 221.484,55.4636 222.151,70.7969 221.5,86.5C 219.516,71.5364 218.849,56.2031 219.5,40.5 Z"/></g>
<g><path style="opacity:1" fill="#fadee3" d="M 207.5,39.5 C 207.5,57.8333 207.5,76.1667 207.5,94.5C 206.168,85.6919 205.502,76.5252 205.5,67C 205.502,57.4748 206.168,48.3081 207.5,39.5 Z"/></g>
<g><path style="opacity:1" fill="#e23755" d="M 180.5,41.5 C 181.496,55.9905 181.829,70.6572 181.5,85.5C 187.026,85.1786 192.36,85.5119 197.5,86.5C 191.833,86.5 186.167,86.5 180.5,86.5C 180.5,71.5 180.5,56.5 180.5,41.5 Z"/></g>
<g><path style="opacity:1" fill="#ef8397" d="M 91.5,37.5 C 92.8333,37.5 93.5,38.1667 93.5,39.5C 93.5,38.1667 92.8333,37.5 91.5,37.5 Z"/></g>
<g><path style="opacity:1" fill="#fefafa" d="M 321.5,93.5 C 321.5,92.1667 321.5,90.8333 321.5,89.5C 330.182,75.3142 339.849,61.8142 350.5,49C 342.167,48.6667 333.833,48.3333 325.5,48C 321.95,44.2685 321.617,40.2685 324.5,36C 338.167,35.3333 351.833,35.3333 365.5,36C 368.815,38.2708 369.982,41.4375 369,45.5C 359.403,58.8688 349.903,72.2021 340.5,85.5C 349.482,86.332 358.482,86.832 367.5,87C 371.5,91 371.5,95 367.5,99C 353.167,99.6667 338.833,99.6667 324.5,99C 322.393,97.7365 321.393,95.9032 321.5,93.5 Z"/></g>
<g><path style="opacity:1" fill="#fefcfd" d="M 219.5,40.5 C 218.849,56.2031 219.516,71.5364 221.5,86.5C 227.842,86.3338 234.175,86.5005 240.5,87C 244.032,90.3899 244.366,94.0566 241.5,98C 231.266,99.6172 220.933,99.9505 210.5,99C 208.137,98.4115 207.137,96.9115 207.5,94.5C 207.5,76.1667 207.5,57.8333 207.5,39.5C 209.334,34.4225 212.667,33.2558 217.5,36C 219.037,37.1096 219.703,38.6096 219.5,40.5 Z"/></g>
<g><path style="opacity:1" fill="#fefbfc" d="M 180.5,41.5 C 180.5,56.5 180.5,71.5 180.5,86.5C 186.167,86.5 191.833,86.5 197.5,86.5C 199.17,86.7512 200.67,87.4178 202,88.5C 202.667,91.5 202.667,94.5 202,97.5C 201.25,98.1258 200.416,98.6258 199.5,99C 189.5,99.6667 179.5,99.6667 169.5,99C 168.667,98.1667 167.833,97.3333 167,96.5C 166.333,76.8333 166.333,57.1667 167,37.5C 170.49,33.8423 174.323,33.5089 178.5,36.5C 179.562,38.0217 180.229,39.6883 180.5,41.5 Z"/></g>
<g><path style="opacity:1" fill="#fef9fa" d="M 91.5,37.5 C 91.5,38.8333 92.1667,39.5 93.5,39.5C 96.7433,54.3459 99.5766,69.3459 102,84.5C 102.667,88.8333 102.667,93.1667 102,97.5C 98.2992,101.105 94.2992,101.438 90,98.5C 87.0913,88.3829 85.258,78.0496 84.5,67.5C 84.7852,65.712 84.4519,64.0453 83.5,62.5C 82.8933,62.6236 82.56,62.9569 82.5,63.5C 78.3941,74.575 74.8941,85.9083 72,97.5C 67.594,101.423 63.2606,101.423 59,97.5C 56.2244,88.0975 53.3911,78.7642 50.5,69.5C 50.5,68.1667 49.8333,67.5 48.5,67.5C 48.7852,65.712 48.4519,64.0453 47.5,62.5C 45.4994,74.1783 43.4994,85.845 41.5,97.5C 37.2965,101.461 33.1299,101.461 29,97.5C 29.2317,76.9787 32.565,56.9787 39,37.5C 43.6099,33.7466 48.2765,33.7466 53,37.5C 56.7714,49.0438 61.1048,60.3771 66,71.5C 69.1515,59.5463 72.9848,47.8796 77.5,36.5C 79.8257,35.8489 82.1591,35.1822 84.5,34.5C 87.3598,34.555 89.6931,35.555 91.5,37.5 Z"/></g>
<g><path style="opacity:1" fill="#ed7991" d="M 48.5,67.5 C 49.8333,67.5 50.5,68.1667 50.5,69.5C 49.1667,69.5 48.5,68.8333 48.5,67.5 Z"/></g>
<g><path style="opacity:1" fill="#ed7f94" d="M 82.5,63.5 C 82.56,62.9569 82.8933,62.6236 83.5,62.5C 84.4519,64.0453 84.7852,65.712 84.5,67.5C 83.8333,66.1667 83.1667,64.8333 82.5,63.5 Z"/></g>
<g><path style="opacity:1" fill="#fef9f9" d="M 290.5,33.5 C 298.134,32.9124 305.467,34.0791 312.5,37C 313.304,38.7713 314.471,40.2713 316,41.5C 317.123,44.9563 316.29,47.7897 313.5,50C 306.712,49.566 300.045,48.8994 293.5,48C 287.755,50.2632 283.922,54.4298 282,60.5C 279.305,83.807 288.971,91.4737 311,83.5C 316.141,84.9114 317.808,88.2447 316,93.5C 314.332,97.1655 311.499,99.3322 307.5,100C 290.193,104.42 277.36,98.9201 269,83.5C 265.347,71.9543 265.681,60.621 270,49.5C 271.833,47 273.667,44.5 275.5,42C 279.942,38.1141 284.942,35.2807 290.5,33.5 Z"/></g>
<g><path style="opacity:1" fill="#fef9f9" d="M 148.5,55.5 C 148.5,56.8333 149.167,57.5 150.5,57.5C 153.885,67.4873 157.385,77.4873 161,87.5C 161.667,90.8333 161.667,94.1667 161,97.5C 156.256,101.818 152.09,101.318 148.5,96C 147.692,93.2391 146.692,90.5724 145.5,88C 137.833,87.3333 130.167,87.3333 122.5,88C 120.348,92.1455 118.014,96.1455 115.5,100C 106.942,100.69 103.942,96.8566 106.5,88.5C 112.449,71.2717 118.949,54.2717 126,37.5C 133.685,31.2644 139.685,32.5978 144,41.5C 145.603,46.1427 147.103,50.8093 148.5,55.5 Z"/></g>
<g><path style="opacity:1" fill="#f3a2b2" d="M 127.5,71.5 C 131.715,73.4364 136.381,74.1031 141.5,73.5C 136.695,74.4872 131.695,74.8205 126.5,74.5C 126.263,73.209 126.596,72.209 127.5,71.5 Z"/></g>
<g><path style="opacity:1" fill="#dd1a35" d="M 141.5,73.5 C 136.381,74.1031 131.715,73.4364 127.5,71.5C 128.755,64.5665 130.922,57.8998 134,51.5C 137.595,58.4501 140.095,65.7835 141.5,73.5 Z"/></g>
</svg>
