<svg id="Vrstva_1" data-name="Vrstva 1" xmlns="http://www.w3.org/2000/svg" viewBox="0 0 400 135"><defs><style>.cls-1{fill:#7ba6ad;}.cls-2{fill:#f14415;}.cls-3,.cls-4{fill:#fff;}.cls-4{stroke:#7fa8ad;stroke-miterlimit:10;stroke-width:0.82px;}.cls-5{fill:#76a3aa;}</style></defs><path class="cls-1" d="M152.63,1.61,160.74,0l.3,7.21C166.58,2.6,173.15,0,179.19,0c8.62,0,15.73,5.51,15.73,18V51.73h-8.45V18.64c0-8.62-4.21-11.82-9.93-11.82-4.81,0-10.73,2.61-15.53,6.41V51.74h-8.46Z"/><path class="cls-1" d="M227.32,0A55.39,55.39,0,0,0,208,4.05l1.29,6.57c7-2.81,12.55-4.1,17.25-4.1,6.72,0,10.23,3.71,10.23,11v4.8h0c-18.85,1.51-32.18,5.72-32.18,17.54,0,8.13,5.91,13,14.63,13,6.72,0,13.24-3.86,17.55-7.62l.39,6.42h8V18C245.16,5.92,239,0,227.32,0Zm9.42,39.3c-2.6,2.4-9.63,6.91-15.64,6.91-5.31,0-8-2.3-7.92-6.61.08-6.73,7.52-10.23,23.56-12Z"/><path class="cls-1" d="M302.3,51.73h-8.45V13.22c-4.78-3.83-10.7-6.4-15.5-6.4-5.72,0-9.93,3.2-9.93,11.82V51.73H260V18c0-12.53,7.11-18,15.77-18,6,0,12.63,2.6,18.13,7.21L294.18,0l8.12,1.61Z"/><path class="cls-1" d="M338,0c-14.43,0-25,10.65-25,26.46s10.51,26.47,25,26.47,25-10.74,25-26.47S352.43,0,338,0Zm0,46.42c-9.42,0-16.23-8-16.23-20S328.55,6.52,338,6.52s16.15,8,16.15,19.94S347.37,46.42,338,46.42Z"/><path class="cls-2" d="M174.32,103.16c1.38-10.6-3.4-16.49-11.5-16.49h0c-7.13,0-14.46,5.29-14.46,17.59,0,10.86,6.72,16.35,15.17,16.35A22.16,22.16,0,0,0,173.76,118l-.53-1.83c-10.52,5.23-22.62,2.82-22.62-11.9v-1.1Zm-11.5-14.78c6.91,0,10.05,5.62,9.39,13l-21.51.32C151.61,92.43,157.24,88.38,162.82,88.38Z"/><path class="cls-2" d="M183.48,87.46l2-.46.13,4.7a20.07,20.07,0,0,1,12.56-5c5.66,0,9.7,3.5,9.7,11.71v21.45h-2.16V98.38c0-7-3.14-9.87-8-9.87-3.86,0-8.24,1.88-12.16,5v26.35h-2.12Z"/><path class="cls-2" d="M242.37,103.16c1.38-10.6-3.41-16.49-11.51-16.49h0c-7.13,0-14.46,5.29-14.46,17.59,0,10.86,6.72,16.35,15.17,16.35A22.16,22.16,0,0,0,241.78,118l-.52-1.83c-10.53,5.23-22.62,2.82-22.62-11.9v-1.1Zm-23.61-1.52h0c.92-9.21,6.55-13.26,12.13-13.26,6.9,0,10,5.61,9.39,12.94l-21.52.32h0Z"/><path class="cls-2" d="M251.52,87.46l2-.46.12,7.4c2.61-4.7,6.48-7.66,12.3-7.72l.39,2c-5.95.14-9.8,2.75-12.69,8.18v23h-2.15Z"/><path class="cls-2" d="M284.21,86.67h0Z"/><path class="cls-2" d="M309,74.2a1.7,1.7,0,1,1,.25,3.39H309a1.7,1.7,0,1,1-.26-3.39H309"/><polygon class="cls-2" points="307.94 87.47 310.1 87.01 310.1 119.89 307.94 119.89 307.94 87.47"/><path class="cls-2" d="M344.88,103.16c1.38-10.6-3.4-16.49-11.5-16.49h0c-7.13,0-14.46,5.29-14.46,17.59,0,10.86,6.72,16.35,15.17,16.35A22.16,22.16,0,0,0,344.3,118l-.52-1.83c-10.53,5.23-22.63,2.82-22.63-11.9v-1.1Zm-23.6-1.52h0c.92-9.21,6.54-13.26,12.12-13.26,6.9,0,10.05,5.61,9.39,12.94l-21.51.32h0Z"/><path class="cls-2" d="M352.73,116.56a22.18,22.18,0,0,0,8.89,2.22c5.82,0,9.61-3.06,9.61-7.65s-4.64-5.89-9.39-7.45-9.81-3.34-9.81-9c0-4.58,3.76-8,10.4-8a22.78,22.78,0,0,1,9.09,2l-.39,1.88a24.87,24.87,0,0,0-8.9-2.1c-4.9,0-8,2.43-8,6.28,0,4.25,4,5.69,8.46,7.13,5.16,1.7,10.72,3.33,10.72,9.28,0,6.22-5.43,9.49-12.09,9.49a21,21,0,0,1-9-2.16Z"/><path class="cls-3" d="M71.48,88.49a6.4,6.4,0,0,0,.88.09"/><path class="cls-4" d="M71.48,88.49a6.4,6.4,0,0,0,.88.09"/><path class="cls-5" d="M113,60.79a1.39,1.39,0,0,0-.65-.88l-6.87-4.16,4.4-7.23a5.66,5.66,0,0,0-9.68-5.87h0l-4.39,7.24-9.39-5.7L90.84,37a5.65,5.65,0,1,0-9.67-5.86h0l-4.4,7.24-6.94-4.21a1.45,1.45,0,0,0-2,.5h0l-.12.21c-.28.48-1,1.76-2.18,3.62C59.92,47.78,59,61.21,68.14,69l-3.76,9.16a8.33,8.33,0,0,0,7.08,10.7h.2a5.82,5.82,0,0,0,.73.07,8.44,8.44,0,0,0,7.65-5l2.75-6.19A19.09,19.09,0,0,0,89.56,79c9.51,0,17.07-6.86,21-13.29,1.45-2.39,2.32-3.76,2.32-3.81a1.45,1.45,0,0,0,.19-1.09M67,79.47c1-2.6,3.84-9.47,4.21-10.13a1.42,1.42,0,0,0-.37-1.88C61.66,60.51,63,48.31,68,39.91c.6-1,1.11-1.88,1.48-2.46l.09-.15,6.91,4.19a1.44,1.44,0,0,0,2-.48l5.13-8.46a2.89,2.89,0,0,1,3.84-.93,2.81,2.81,0,0,1,.94,3.83L83.26,43.9a1.43,1.43,0,0,0,.48,2h0l11.86,7.2a1.49,1.49,0,0,0,2-.46l5.16-8.45a2.8,2.8,0,0,1,5.1.78,2.78,2.78,0,0,1-.32,2.11l-5.16,8.45a1.46,1.46,0,0,0-.16,1.08,1.4,1.4,0,0,0,.66.88l6.83,4.15c-.4.64-.94,1.52-1.58,2.6-3.35,5.49-10.21,11.88-18.52,11.88a16.74,16.74,0,0,1-6.8-1.48,1.44,1.44,0,0,0-1.83.58l-3.51,7.51a5.48,5.48,0,0,1-10.51-2.18A6,6,0,0,1,67,79.47Z"/><path class="cls-5" d="M29.22,74.56l-.94-.06h-.15a1.45,1.45,0,0,0-1.39,1.33C24.93,100.92,45.52,123,72.71,125c1.09.08,2.25.13,3.47.15a1.44,1.44,0,0,0,1.44-1.39c.84-25.5-20.41-47.12-48.41-49.2m45.56,47.68-1.88-.09c-24.84-1.88-44.22-21.86-43.4-44.69C55,79.58,74.75,99.15,74.78,122.24Zm51.49-40.12a1.47,1.47,0,0,0-.94-.49h-.61c-1.09-.08-2.2-.12-3.28-.12-20.86,0-38.3,14.85-39.72,33.81a35.23,35.23,0,0,0,.44,8.52A1.44,1.44,0,0,0,83.56,125h.16c23.22-2.56,41.27-20.14,42.92-41.8a1.44,1.44,0,0,0-.34-1m-2.65,2.26c-2.18,19.33-18.08,34.75-38.87,37.57a31.8,31.8,0,0,1-.21-6.47c1.3-17.47,17.49-31.17,36.84-31.17.76,0,1.49,0,2.2,0Z"/><path class="cls-2" d="M288.43,116.17h-7.2c-5.89,0-5.36-4.84-1.05-7.72a13.28,13.28,0,0,0,4.06.52c7.19,0,12.42-4.53,12.42-11.11a10.4,10.4,0,0,0-4.19-8.56l7.86-.33V87.46H289.06a14.12,14.12,0,0,0-4.82-.78c-7.12,0-12.33,4.61-12.33,11.18a10.56,10.56,0,0,0,6.58,10c-4,2.68-5,7.07-2,9.16-4.94,3.21-6.81,6.21-6.81,9.15,0,4.84,4,8.83,13.61,8.83,11.76,0,17.25-5.75,17.25-11C300.58,118,296.66,116.17,288.43,116.17ZM274.06,97.86c0-5.53,4.25-9.39,10.2-9.39s10.27,3.87,10.27,9.39-4.31,9.28-10.27,9.28h-.05C278.25,107.14,274.06,103.39,274.06,97.86Zm9.09,35.37c-8,0-11.18-3.2-11.18-7.06,0-2.54,1.7-5.29,6.26-8.36h0a9.7,9.7,0,0,0,2.94.39h7.21c6.74,0,10,1,10,5.81C298.39,128.4,293.81,133.23,283.15,133.23Z"/></svg>