<?xml version="1.0" encoding="UTF-8"?>
<!DOCTYPE svg PUBLIC "-//W3C//DTD SVG 1.1//EN" "http://www.w3.org/Graphics/SVG/1.1/DTD/svg11.dtd">
<svg xmlns="http://www.w3.org/2000/svg" version="1.1" width="400px" height="135px" style="shape-rendering:geometricPrecision; text-rendering:geometricPrecision; image-rendering:optimizeQuality; fill-rule:evenodd; clip-rule:evenodd" xmlns:xlink="http://www.w3.org/1999/xlink">
<g><path style="opacity:0.811" fill="#000000" d="M 17.5,28.5 C 23.6759,28.3331 23.6759,29.4997 17.5,32C 6.33912,42.7589 5.67246,54.0922 15.5,66C 30.1604,72.5029 39.4938,68.0029 43.5,52.5C 41.0695,39.8899 33.7362,35.3899 21.5,39C 18.3333,40.8333 15.8333,43.3333 14,46.5C 14.8221,39.6611 18.6554,35.1611 25.5,33C 40.4968,31.1789 48.8302,37.6789 50.5,52.5C 49.8554,63.9526 44.1887,71.7859 33.5,76C 9.59283,78.0041 -0.573839,67.1708 3,43.5C 6.02145,36.6468 10.8548,31.6468 17.5,28.5 Z"/></g>
<g><path style="opacity:0.821" fill="#000000" d="M 264.5,32.5 C 267.652,32.0471 270.152,33.0471 272,35.5C 278.304,48.8957 284.137,62.5623 289.5,76.5C 286.753,76.8134 284.086,76.48 281.5,75.5C 280.167,72.5 278.833,69.5 277.5,66.5C 270.858,65.3358 264.192,65.1691 257.5,66C 255.288,69.1336 253.954,72.6336 253.5,76.5C 250.833,76.5 248.167,76.5 245.5,76.5C 251.297,61.5764 257.63,46.9097 264.5,32.5 Z M 266.5,44.5 C 267.376,44.3691 268.043,44.7025 268.5,45.5C 270.383,49.8242 272.049,54.1575 273.5,58.5C 269.154,58.6657 264.821,58.499 260.5,58C 262.794,53.6129 264.794,49.1129 266.5,44.5 Z"/></g>
<g><path style="opacity:0.864" fill="#000000" d="M 68.5,33.5 C 76.5069,33.3336 84.5069,33.5003 92.5,34C 101.227,36.611 104.394,42.4444 102,51.5C 100.374,55.4052 97.5406,58.0719 93.5,59.5C 97.1153,65.1162 101.115,70.4495 105.5,75.5C 102.167,76.8333 98.8333,76.8333 95.5,75.5C 92.1667,70.8333 88.8333,66.1667 85.5,61.5C 82.2317,60.513 78.8984,60.1796 75.5,60.5C 75.5,65.8333 75.5,71.1667 75.5,76.5C 73.1667,76.5 70.8333,76.5 68.5,76.5C 68.5,62.1667 68.5,47.8333 68.5,33.5 Z M 75.5,40.5 C 80.8437,40.334 86.1771,40.5006 91.5,41C 96.8987,45.4232 96.5654,49.4232 90.5,53C 85.5111,53.4993 80.5111,53.6659 75.5,53.5C 75.5,49.1667 75.5,44.8333 75.5,40.5 Z"/></g>
<g><path style="opacity:0.895" fill="#000000" d="M 123.5,33.5 C 125.833,33.5 128.167,33.5 130.5,33.5C 130.5,47.8333 130.5,62.1667 130.5,76.5C 128.167,76.5 125.833,76.5 123.5,76.5C 123.5,62.1667 123.5,47.8333 123.5,33.5 Z"/></g>
<g><path style="opacity:0.82" fill="#000000" d="M 153.5,33.5 C 164.167,33.5 174.833,33.5 185.5,33.5C 185.5,35.8333 185.5,38.1667 185.5,40.5C 177.5,40.5 169.5,40.5 161.5,40.5C 161.5,44.1667 161.5,47.8333 161.5,51.5C 168.5,51.5 175.5,51.5 182.5,51.5C 182.5,53.8333 182.5,56.1667 182.5,58.5C 175.5,58.5 168.5,58.5 161.5,58.5C 161.5,64.5 161.5,70.5 161.5,76.5C 158.833,76.5 156.167,76.5 153.5,76.5C 153.5,62.1667 153.5,47.8333 153.5,33.5 Z"/></g>
<g><path style="opacity:0.886" fill="#000000" d="M 204.5,33.5 C 206.833,33.5 209.167,33.5 211.5,33.5C 211.5,45.5 211.5,57.5 211.5,69.5C 218.833,69.5 226.167,69.5 233.5,69.5C 233.5,71.8333 233.5,74.1667 233.5,76.5C 223.833,76.5 214.167,76.5 204.5,76.5C 204.5,62.1667 204.5,47.8333 204.5,33.5 Z"/></g>
<g><path style="opacity:0.869" fill="#000000" d="M 304.5,33.5 C 306.857,33.3367 309.19,33.5034 311.5,34C 316.37,40.2386 320.87,46.7386 325,53.5C 329.5,47 334,40.5 338.5,34C 340.81,33.5034 343.143,33.3367 345.5,33.5C 345.5,47.8333 345.5,62.1667 345.5,76.5C 343.167,76.5 340.833,76.5 338.5,76.5C 338.666,66.8276 338.5,57.1609 338,47.5C 333.996,53.6611 329.829,59.6611 325.5,65.5C 320.061,59.885 315.561,53.5517 312,46.5C 311.5,56.4944 311.334,66.4944 311.5,76.5C 309.167,76.5 306.833,76.5 304.5,76.5C 304.5,62.1667 304.5,47.8333 304.5,33.5 Z"/></g>
<g><path style="opacity:0.859" fill="#000000" d="M 399.5,33.5 C 399.5,35.8333 399.5,38.1667 399.5,40.5C 391.167,40.5 382.833,40.5 374.5,40.5C 374.5,44.1667 374.5,47.8333 374.5,51.5C 381.833,51.5 389.167,51.5 396.5,51.5C 396.5,53.8333 396.5,56.1667 396.5,58.5C 389.167,58.5 381.833,58.5 374.5,58.5C 374.5,62.1667 374.5,65.8333 374.5,69.5C 382.833,69.5 391.167,69.5 399.5,69.5C 399.5,71.8333 399.5,74.1667 399.5,76.5C 388.833,76.5 378.167,76.5 367.5,76.5C 367.5,62.1667 367.5,47.8333 367.5,33.5C 378.167,33.5 388.833,33.5 399.5,33.5 Z"/></g>
<g><path style="opacity:0.538" fill="#000000" d="M 123.5,90.5 C 126.119,90.2317 128.619,90.565 131,91.5C 131.688,92.3317 131.521,92.9984 130.5,93.5C 128.333,92.0458 126.333,92.2125 124.5,94C 127.38,94.8478 129.88,96.3478 132,98.5C 132.265,100.163 131.765,101.663 130.5,103C 127.901,103.769 125.401,103.602 123,102.5C 122.251,101.365 122.417,100.365 123.5,99.5C 124.833,100.167 126.167,100.833 127.5,101.5C 128.5,101.167 129.167,100.5 129.5,99.5C 123.333,99.0307 121.333,96.0307 123.5,90.5 Z"/></g>
<g><path style="opacity:0.565" fill="#000000" d="M 148.5,90.5 C 149.5,90.5 150.5,90.5 151.5,90.5C 151.39,93.0588 152.056,95.3921 153.5,97.5C 156.103,88.2029 158.77,88.2029 161.5,97.5C 162.624,95.6314 163.457,93.6314 164,91.5C 165.049,90.4829 166.216,90.3162 167.5,91C 165.771,95.3866 163.771,99.5533 161.5,103.5C 159.804,101.454 158.471,99.1211 157.5,96.5C 156.376,98.3686 155.543,100.369 155,102.5C 154.282,103.451 153.449,103.617 152.5,103C 150.665,98.9963 149.332,94.8296 148.5,90.5 Z"/></g>
<g><path style="opacity:0.683" fill="#000000" d="M 184.5,90.5 C 187.572,90.1826 190.572,90.5159 193.5,91.5C 191.257,92.4742 188.924,92.8076 186.5,92.5C 186.5,93.5 186.5,94.5 186.5,95.5C 188.833,95.5 191.167,95.5 193.5,95.5C 193.5,96.5 193.5,97.5 193.5,98.5C 191.167,98.5 188.833,98.5 186.5,98.5C 186.5,99.5 186.5,100.5 186.5,101.5C 188.924,101.192 191.257,101.526 193.5,102.5C 190.572,103.484 187.572,103.817 184.5,103.5C 184.5,99.1667 184.5,94.8333 184.5,90.5 Z"/></g>
<g><path style="opacity:0.658" fill="#000000" d="M 214.5,90.5 C 225.849,89.3561 228.516,93.5228 222.5,103C 219.854,103.497 217.187,103.664 214.5,103.5C 214.5,99.1667 214.5,94.8333 214.5,90.5 Z M 216.5,92.5 C 220.171,91.9985 222.505,93.4985 223.5,97C 222.356,100.228 220.022,101.728 216.5,101.5C 216.5,98.5 216.5,95.5 216.5,92.5 Z"/></g>
<g><path style="opacity:0.567" fill="#000000" d="M 245.5,90.5 C 248.898,90.1796 252.232,90.513 255.5,91.5C 253.257,92.4742 250.924,92.8076 248.5,92.5C 248.5,93.5 248.5,94.5 248.5,95.5C 250.5,95.5 252.5,95.5 254.5,95.5C 254.5,96.5 254.5,97.5 254.5,98.5C 252.5,98.5 250.5,98.5 248.5,98.5C 248.5,99.5 248.5,100.5 248.5,101.5C 250.924,101.192 253.257,101.526 255.5,102.5C 252.232,103.487 248.898,103.82 245.5,103.5C 245.5,99.1667 245.5,94.8333 245.5,90.5 Z"/></g>
<g><path style="opacity:0.533" fill="#000000" d="M 276.5,90.5 C 280.33,91.4853 283.163,93.8187 285,97.5C 285.497,95.1902 285.663,92.8568 285.5,90.5C 286.5,90.5 287.5,90.5 288.5,90.5C 288.5,94.8333 288.5,99.1667 288.5,103.5C 284.944,101.782 282.11,99.1157 280,95.5C 279.503,98.146 279.336,100.813 279.5,103.5C 278.5,103.5 277.5,103.5 276.5,103.5C 276.5,99.1667 276.5,94.8333 276.5,90.5 Z"/></g>
<g><path style="opacity:0.306" fill="#3a3939" d="M 6.5,95.5 C 38.1737,95.1668 69.8403,95.5001 101.5,96.5C 101.376,97.1067 101.043,97.44 100.5,97.5C 69.1667,96.8333 37.8333,96.1667 6.5,95.5 Z"/></g>
<g><path style="opacity:0.325" fill="#636363" d="M 399.5,95.5 C 399.5,96.1667 399.5,96.8333 399.5,97.5C 280.833,96.8333 280.833,96.1667 399.5,95.5 Z"/></g>
<g><path style="opacity:0.95" fill="#c6c6c6" d="M 6.5,95.5 C 37.8333,96.1667 69.1667,96.8333 100.5,97.5C 68.8263,97.8332 37.1597,97.4999 5.5,96.5C 5.62358,95.8933 5.95691,95.56 6.5,95.5 Z"/></g>
</svg>
