<?xml version="1.0" encoding="UTF-8"?>
<!DOCTYPE svg PUBLIC "-//W3C//DTD SVG 1.1//EN" "http://www.w3.org/Graphics/SVG/1.1/DTD/svg11.dtd">
<svg xmlns="http://www.w3.org/2000/svg" version="1.1" width="400px" height="135px" style="shape-rendering:geometricPrecision; text-rendering:geometricPrecision; image-rendering:optimizeQuality; fill-rule:evenodd; clip-rule:evenodd" xmlns:xlink="http://www.w3.org/1999/xlink">
<g><path style="opacity:0.95" fill="#1e1c1d" d="M 29.5,19.5 C 42.2192,19.1024 54.8858,19.6024 67.5,21C 79.2972,24.1311 84.9639,31.7978 84.5,44C 84.5607,56.9503 78.2274,64.9503 65.5,68C 59.8646,68.904 54.198,69.404 48.5,69.5C 48.5,75.5 48.5,81.5 48.5,87.5C 42.1667,87.5 35.8333,87.5 29.5,87.5C 29.5,64.8333 29.5,42.1667 29.5,19.5 Z M 48.5,37.5 C 52.8461,37.3343 57.1794,37.501 61.5,38C 64.6829,39.0183 66.0162,41.185 65.5,44.5C 65.6639,48.1774 63.9972,50.6774 60.5,52C 56.5138,52.4988 52.5138,52.6655 48.5,52.5C 48.5,47.5 48.5,42.5 48.5,37.5 Z"/></g>
<g><path style="opacity:0.941" fill="#1e1c1d" d="M 91.5,19.5 C 103.838,19.3335 116.171,19.5001 128.5,20C 145.732,23.6133 152.565,34.1133 149,51.5C 148.529,53.2464 147.862,54.913 147,56.5C 143.926,59.2855 140.759,61.9522 137.5,64.5C 141.088,70.0098 144.922,75.3431 149,80.5C 150.118,82.7654 150.951,85.0987 151.5,87.5C 144.492,87.6663 137.492,87.4996 130.5,87C 125.833,80.6667 121.167,74.3333 116.5,68C 114.527,67.5045 112.527,67.3379 110.5,67.5C 110.5,74.1667 110.5,80.8333 110.5,87.5C 104.167,87.5 97.8333,87.5 91.5,87.5C 91.5,64.8333 91.5,42.1667 91.5,19.5 Z M 110.5,37.5 C 115.511,37.3341 120.511,37.5007 125.5,38C 132.167,42.3333 132.167,46.6667 125.5,51C 120.511,51.4993 115.511,51.6659 110.5,51.5C 110.5,46.8333 110.5,42.1667 110.5,37.5 Z"/></g>
<g><path style="opacity:0.938" fill="#1e1c1d" d="M 157.5,19.5 C 175.167,19.5 192.833,19.5 210.5,19.5C 210.5,25.5 210.5,31.5 210.5,37.5C 199.167,37.5 187.833,37.5 176.5,37.5C 176.5,40.1667 176.5,42.8333 176.5,45.5C 186.833,45.5 197.167,45.5 207.5,45.5C 207.5,50.8333 207.5,56.1667 207.5,61.5C 197.167,61.5 186.833,61.5 176.5,61.5C 176.5,64.5 176.5,67.5 176.5,70.5C 188.167,70.5 199.833,70.5 211.5,70.5C 211.5,76.1667 211.5,81.8333 211.5,87.5C 193.5,87.5 175.5,87.5 157.5,87.5C 157.5,64.8333 157.5,42.1667 157.5,19.5 Z"/></g>
<g><path style="opacity:0.99" fill="#ee3266" d="M 220.5,19.5 C 230.839,19.3335 241.172,19.5002 251.5,20C 266.287,21.6211 274.621,29.7877 276.5,44.5C 276.066,55.4406 270.733,62.9406 260.5,67C 253.588,68.5723 246.588,69.4056 239.5,69.5C 239.5,84.8333 239.5,100.167 239.5,115.5C 160.167,115.5 80.8333,115.5 1.5,115.5C 1.5,99.1667 1.5,82.8333 1.5,66.5C 7.83333,66.5 14.1667,66.5 20.5,66.5C 20.5,76.8333 20.5,87.1667 20.5,97.5C 87.1667,97.5 153.833,97.5 220.5,97.5C 220.5,71.5 220.5,45.5 220.5,19.5 Z M 239.5,37.5 C 243.514,37.3345 247.514,37.5012 251.5,38C 256.145,40.0246 257.645,43.5246 256,48.5C 254.786,50.0488 253.286,51.2155 251.5,52C 247.514,52.4988 243.514,52.6655 239.5,52.5C 239.5,47.5 239.5,42.5 239.5,37.5 Z"/></g>
<g><path style="opacity:0.985" fill="#ee3165" d="M 297.5,19.5 C 303.537,19.1707 309.537,19.5041 315.5,20.5C 324.786,42.7364 333.786,65.0698 342.5,87.5C 335.5,87.5 328.5,87.5 321.5,87.5C 320.663,83.8237 319.33,80.3237 317.5,77C 309.479,76.1684 301.479,76.3351 293.5,77.5C 292.167,80.5 290.833,83.5 289.5,86.5C 282.866,87.4967 276.2,87.83 269.5,87.5C 277.919,64.5281 287.253,41.8615 297.5,19.5 Z M 305.5,45.5 C 307.478,49.7311 309.478,54.0645 311.5,58.5C 307.541,59.6599 303.541,59.8265 299.5,59C 301.794,54.6129 303.794,50.1129 305.5,45.5 Z"/></g>
<g><path style="opacity:0.984" fill="#ee3266" d="M 330.5,20.5 C 337.175,20.3337 343.842,20.5004 350.5,21C 355.126,28.4171 359.626,35.9171 364,43.5C 368.026,35.9513 372.192,28.4513 376.5,21C 383.492,20.5004 390.492,20.3337 397.5,20.5C 397.509,22.3084 397.009,23.9751 396,25.5C 388.199,36.948 380.865,48.6147 374,60.5C 373.5,69.4938 373.334,78.4938 373.5,87.5C 366.833,87.5 360.167,87.5 353.5,87.5C 353.666,78.8269 353.5,70.1603 353,61.5C 347.764,51.3629 341.764,41.6962 335,32.5C 332.998,28.6582 331.498,24.6582 330.5,20.5 Z"/></g>
</svg>
