<?xml version="1.0" encoding="UTF-8"?>
<!DOCTYPE svg PUBLIC "-//W3C//DTD SVG 1.1//EN" "http://www.w3.org/Graphics/SVG/1.1/DTD/svg11.dtd">
<svg xmlns="http://www.w3.org/2000/svg" version="1.1" width="450px" height="110px" style="shape-rendering:geometricPrecision; text-rendering:geometricPrecision; image-rendering:optimizeQuality; fill-rule:evenodd; clip-rule:evenodd" xmlns:xlink="http://www.w3.org/1999/xlink">
<g><path style="opacity:1" fill="#b6cf93" d="M -0.5,-0.5 C 26.5,-0.5 53.5,-0.5 80.5,-0.5C 82.9752,0.13144 85.3085,1.13144 87.5,2.5C 84.1262,2.32564 80.7928,1.82564 77.5,1C 51.8355,0.500028 26.1688,0.333361 0.5,0.5C 0.5,5.16667 0.5,9.83333 0.5,14.5C 0.166667,14.5 -0.166667,14.5 -0.5,14.5C -0.5,9.5 -0.5,4.5 -0.5,-0.5 Z"/></g>
<g><path style="opacity:1" fill="#aed381" d="M 87.5,2.5 C 93.7792,3.47686 99.4459,5.81019 104.5,9.5C 104.863,11.9115 103.863,13.4115 101.5,14C 103.797,14.0178 106.131,13.8511 108.5,13.5C 108.5,14.8333 108.5,16.1667 108.5,17.5C 107.167,17.5 105.833,17.5 104.5,17.5C 104.601,20.4493 104.601,23.4493 104.5,26.5C 103.675,27.3857 102.675,27.719 101.5,27.5C 101.785,25.712 101.452,24.0453 100.5,22.5C 98.1826,23.7099 96.1826,23.2099 94.5,21C 93.2068,20.51 91.8734,20.3433 90.5,20.5C 89.5251,18.8073 88.1918,17.3073 86.5,16C 57.8557,14.6084 29.1891,14.1084 0.5,14.5C 0.5,9.83333 0.5,5.16667 0.5,0.5C 26.1688,0.333361 51.8355,0.500028 77.5,1C 80.7928,1.82564 84.1262,2.32564 87.5,2.5 Z"/></g>
<g><path style="opacity:1" fill="#adcd89" d="M 0.5,14.5 C 29.1891,14.1084 57.8557,14.6084 86.5,16C 88.1918,17.3073 89.5251,18.8073 90.5,20.5C 84.8314,17.7227 78.8314,16.3893 72.5,16.5C 48.5,15.8333 24.5,15.1667 0.5,14.5 Z"/></g>
<g><path style="opacity:1" fill="#d6e6ba" d="M -0.5,14.5 C -0.166667,14.5 0.166667,14.5 0.5,14.5C 24.5,15.1667 48.5,15.8333 72.5,16.5C 48.1667,16.5 23.8333,16.5 -0.5,16.5C -0.5,15.8333 -0.5,15.1667 -0.5,14.5 Z"/></g>
<g><path style="opacity:1" fill="#676767" d="M 381.5,16.5 C 381.5,26.8333 381.5,37.1667 381.5,47.5C 380.167,47.5 378.833,47.5 377.5,47.5C 370.23,39.7285 362.73,32.0618 355,24.5C 354.5,32.4931 354.334,40.4931 354.5,48.5C 352.833,48.5 351.167,48.5 349.5,48.5C 349.5,37.8333 349.5,27.1667 349.5,16.5C 351.199,16.3398 352.866,16.5065 354.5,17C 361.635,25.1365 369.135,32.9698 377,40.5C 377.5,32.5069 377.666,24.5069 377.5,16.5C 378.833,16.5 380.167,16.5 381.5,16.5 Z"/></g>
<g><path style="opacity:1" fill="#6d6d6d" d="M 198.5,16.5 C 206.174,16.3336 213.841,16.5003 221.5,17C 227.234,20.1801 229.067,25.0134 227,31.5C 224.436,33.7272 221.603,35.5606 218.5,37C 222.5,40.6667 226.5,44.3333 230.5,48C 228.167,48.6667 225.833,48.6667 223.5,48C 219.8,43.9648 215.8,40.2981 211.5,37C 209.19,36.5034 206.857,36.3367 204.5,36.5C 204.5,40.5 204.5,44.5 204.5,48.5C 202.5,48.5 200.5,48.5 198.5,48.5C 198.5,37.8333 198.5,27.1667 198.5,16.5 Z M 204.5,20.5 C 209.179,20.3342 213.845,20.5008 218.5,21C 222.738,23.1716 223.572,26.3382 221,30.5C 220.25,31.1258 219.416,31.6258 218.5,32C 213.845,32.4992 209.179,32.6658 204.5,32.5C 204.5,28.5 204.5,24.5 204.5,20.5 Z"/></g>
<g><path style="opacity:1" fill="#666666" d="M 275.5,16.5 C 285.5,16.5 295.5,16.5 305.5,16.5C 305.5,17.8333 305.5,19.1667 305.5,20.5C 301.5,20.5 297.5,20.5 293.5,20.5C 292.507,29.3178 292.173,38.3178 292.5,47.5C 291.167,47.5 289.833,47.5 288.5,47.5C 288.827,38.3178 288.493,29.3178 287.5,20.5C 283.702,19.5166 279.702,19.1832 275.5,19.5C 275.5,18.5 275.5,17.5 275.5,16.5 Z"/></g>
<g><path style="opacity:1" fill="#797979" d="M 381.5,16.5 C 382.494,26.9869 382.828,37.6536 382.5,48.5C 380.585,48.7845 378.919,48.4511 377.5,47.5C 378.833,47.5 380.167,47.5 381.5,47.5C 381.5,37.1667 381.5,26.8333 381.5,16.5 Z"/></g>
<g><path style="opacity:1" fill="#afd383" d="M 104.5,9.5 C 117.331,16.4771 125.331,27.1438 128.5,41.5C 128.5,43.8333 128.5,46.1667 128.5,48.5C 122.537,49.0454 116.87,48.3787 111.5,46.5C 111.5,46.1667 111.5,45.8333 111.5,45.5C 111.322,42.7835 110.822,40.1168 110,37.5C 108.121,35.4732 106.954,33.1398 106.5,30.5C 105.5,30.5 104.5,30.5 103.5,30.5C 99.6688,26.4286 95.3354,23.0953 90.5,20.5C 91.8734,20.3433 93.2068,20.51 94.5,21C 96.1826,23.2099 98.1826,23.7099 100.5,22.5C 101.452,24.0453 101.785,25.712 101.5,27.5C 102.675,27.719 103.675,27.3857 104.5,26.5C 104.601,23.4493 104.601,20.4493 104.5,17.5C 105.833,17.5 107.167,17.5 108.5,17.5C 108.5,16.1667 108.5,14.8333 108.5,13.5C 106.131,13.8511 103.797,14.0178 101.5,14C 103.863,13.4115 104.863,11.9115 104.5,9.5 Z"/></g>
<g><path style="opacity:1" fill="#888888" d="M 275.5,16.5 C 275.5,17.5 275.5,18.5 275.5,19.5C 279.702,19.1832 283.702,19.5166 287.5,20.5C 283.167,20.5 278.833,20.5 274.5,20.5C 274.232,18.901 274.566,17.5676 275.5,16.5 Z"/></g>
<g><path style="opacity:1" fill="#6a6a6a" d="M 162.5,16.5 C 169.841,16.3337 177.174,16.5003 184.5,17C 191.414,20.7697 193.247,26.2697 190,33.5C 188.457,35.3783 186.624,36.8783 184.5,38C 179.167,38.3333 173.833,38.6667 168.5,39C 167.549,42.0567 167.216,45.2234 167.5,48.5C 165.833,48.5 164.167,48.5 162.5,48.5C 162.5,37.8333 162.5,27.1667 162.5,16.5 Z M 167.5,20.5 C 172.179,20.3342 176.845,20.5008 181.5,21C 184.683,22.0183 186.016,24.185 185.5,27.5C 186.016,30.815 184.683,32.9817 181.5,34C 176.845,34.4992 172.179,34.6658 167.5,34.5C 167.5,29.8333 167.5,25.1667 167.5,20.5 Z"/></g>
<g><path style="opacity:1" fill="#97be64" d="M 81.5,28.5 C 79.0733,28.477 76.74,27.977 74.5,27C 53.1667,26.3333 31.8333,26.3333 10.5,27C 11.8228,27.8159 12.4894,28.9826 12.5,30.5C 10.8546,29.5213 9.5213,28.188 8.5,26.5C 30.8259,25.3336 53.1592,25.1669 75.5,26C 77.7226,26.5662 79.7226,27.3995 81.5,28.5 Z"/></g>
<g><path style="opacity:1" fill="#6d6d6d" d="M 392.5,16.5 C 394.5,16.5 396.5,16.5 398.5,16.5C 398.5,21.1667 398.5,25.8333 398.5,30.5C 400.199,30.6602 401.866,30.4935 403.5,30C 407.132,25.3663 411.132,21.033 415.5,17C 417.5,16.3333 419.5,16.3333 421.5,17C 417.153,22.0115 412.82,27.0115 408.5,32C 413.121,37.623 418.121,42.9563 423.5,48C 421.167,48.6667 418.833,48.6667 416.5,48C 412.167,43.6667 407.833,39.3333 403.5,35C 401.866,34.5065 400.199,34.3398 398.5,34.5C 398.5,39.1667 398.5,43.8333 398.5,48.5C 396.5,48.5 394.5,48.5 392.5,48.5C 392.5,37.8333 392.5,27.1667 392.5,16.5 Z"/></g>
<g><path style="opacity:1" fill="#6b6b6b" d="M 249.5,15.5 C 267.251,15.0725 274.084,23.4058 270,40.5C 262.226,48.9004 253.059,50.7337 242.5,46C 234.958,39.4337 233.458,31.6004 238,22.5C 241.225,18.9793 245.058,16.646 249.5,15.5 Z M 248.5,20.5 C 262.709,18.867 268.209,24.867 265,38.5C 260.299,44.4095 254.466,45.9095 247.5,43C 240.495,38.9024 238.662,33.0691 242,25.5C 243.965,23.4497 246.132,21.783 248.5,20.5 Z"/></g>
<g><path style="opacity:1" fill="#8bc04b" d="M 81.5,28.5 C 83.3797,28.2291 84.713,28.8958 85.5,30.5C 85.7565,32.7761 87.0898,33.9428 89.5,34C 92.1353,35.9605 93.9686,38.4605 95,41.5C 95.6708,42.2524 96.5041,42.5858 97.5,42.5C 98.7384,44.2143 99.405,46.2143 99.5,48.5C 99.6469,53.2142 99.3136,57.8809 98.5,62.5C 97.0155,68.505 93.6822,73.3383 88.5,77C 86.1332,78.8448 83.4665,80.0114 80.5,80.5C 73.8627,81.2757 67.1961,81.609 60.5,81.5C 60.5,76.8333 60.5,72.1667 60.5,67.5C 64.7016,67.8168 68.7016,67.4834 72.5,66.5C 77.0226,66.655 80.1893,64.655 82,60.5C 82.6667,56.5 82.6667,52.5 82,48.5C 81.2525,46.249 79.7525,44.9156 77.5,44.5C 75.9731,44.573 74.9731,43.9063 74.5,42.5C 74.3893,41.8826 74.056,41.3826 73.5,41C 57.1701,40.5001 40.8367,40.3334 24.5,40.5C 22.1002,37.0969 19.1002,34.4302 15.5,32.5C 14.5,31.8333 13.5,31.1667 12.5,30.5C 12.4894,28.9826 11.8228,27.8159 10.5,27C 31.8333,26.3333 53.1667,26.3333 74.5,27C 76.74,27.977 79.0733,28.477 81.5,28.5 Z"/></g>
<g><path style="opacity:1" fill="#6b6b6b" d="M 321.5,16.5 C 323.792,16.2436 325.959,16.5769 328,17.5C 332.774,27.3815 337.274,37.3815 341.5,47.5C 339.926,48.6309 338.259,48.7975 336.5,48C 335.308,46.0876 334.308,44.0876 333.5,42C 327.175,41.5005 320.842,41.3338 314.5,41.5C 314.586,47.3946 311.92,49.3946 306.5,47.5C 311.257,36.9872 316.257,26.6538 321.5,16.5 Z M 323.5,21.5 C 324.497,21.4701 325.164,21.9701 325.5,23C 327.403,27.5417 329.403,32.0417 331.5,36.5C 326.533,37.6623 321.533,37.8289 316.5,37C 319.522,32.1236 321.856,26.9569 323.5,21.5 Z"/></g>
<g><path style="opacity:1" fill="#878787" d="M 287.5,20.5 C 288.493,29.3178 288.827,38.3178 288.5,47.5C 289.833,47.5 291.167,47.5 292.5,47.5C 292.173,38.3178 292.507,29.3178 293.5,20.5C 293.5,29.8333 293.5,39.1667 293.5,48.5C 291.5,48.5 289.5,48.5 287.5,48.5C 287.5,39.1667 287.5,29.8333 287.5,20.5 Z"/></g>
<g><path style="opacity:1" fill="#9bbd6e" d="M 15.5,32.5 C 19.1002,34.4302 22.1002,37.0969 24.5,40.5C 20.8998,38.5698 17.8998,35.9031 15.5,32.5 Z"/></g>
<g><path style="opacity:1" fill="#b7d295" d="M 103.5,30.5 C 104.5,30.5 105.5,30.5 106.5,30.5C 106.954,33.1398 108.121,35.4732 110,37.5C 110.822,40.1168 111.322,42.7835 111.5,45.5C 109.119,40.4075 106.452,35.4075 103.5,30.5 Z"/></g>
<g><path style="opacity:1" fill="#97bb68" d="M 85.5,30.5 C 91.1667,32.8333 95.1667,36.8333 97.5,42.5C 96.5041,42.5858 95.6708,42.2524 95,41.5C 93.9686,38.4605 92.1353,35.9605 89.5,34C 87.0898,33.9428 85.7565,32.7761 85.5,30.5 Z"/></g>
<g><path style="opacity:1" fill="#bad39a" d="M 5.5,37.5 C 8.16667,39.5 10.5,41.8333 12.5,44.5C 8.53998,43.7048 6.20665,41.3715 5.5,37.5 Z"/></g>
<g><path style="opacity:1" fill="#9ac266" d="M 24.5,40.5 C 40.8367,40.3334 57.1701,40.5001 73.5,41C 74.056,41.3826 74.3893,41.8826 74.5,42.5C 58.4965,42.6666 42.4965,42.4999 26.5,42C 25.5842,41.7216 24.9175,41.2216 24.5,40.5 Z"/></g>
<g><path style="opacity:1" fill="#adc782" d="M -0.5,33.5 C 1.02694,33.427 2.02694,34.0937 2.5,35.5C 0.509846,59.1434 -0.15682,83.1434 0.5,107.5C 0.166667,107.5 -0.166667,107.5 -0.5,107.5C -0.5,82.8333 -0.5,58.1667 -0.5,33.5 Z"/></g>
<g><path style="opacity:1" fill="#aed381" d="M 2.5,35.5 C 3.5,36.1667 4.5,36.8333 5.5,37.5C 6.20665,41.3715 8.53998,43.7048 12.5,44.5C 13.8717,45.5116 15.205,46.5116 16.5,47.5C 17.4527,67.8065 17.7861,88.1398 17.5,108.5C 11.642,108.822 5.97533,108.489 0.5,107.5C -0.15682,83.1434 0.509846,59.1434 2.5,35.5 Z"/></g>
<g><path style="opacity:1" fill="#b4cc8d" d="M 128.5,41.5 C 129.531,43.9608 130.198,46.6275 130.5,49.5C 124.167,49.5 117.833,49.5 111.5,49.5C 111.5,48.5 111.5,47.5 111.5,46.5C 116.87,48.3787 122.537,49.0454 128.5,48.5C 128.5,46.1667 128.5,43.8333 128.5,41.5 Z"/></g>
<g><path style="opacity:1" fill="#cadfb0" d="M 16.5,47.5 C 17.2679,48.2625 17.7679,49.2625 18,50.5C 18.5,70.1638 18.6666,89.8305 18.5,109.5C 12.1667,109.5 5.83333,109.5 -0.5,109.5C -0.5,108.833 -0.5,108.167 -0.5,107.5C -0.166667,107.5 0.166667,107.5 0.5,107.5C 5.97533,108.489 11.642,108.822 17.5,108.5C 17.7861,88.1398 17.4527,67.8065 16.5,47.5 Z"/></g>
<g><path style="opacity:1" fill="#8bb359" d="M 48.5,52.5 C 47.8333,52.5 47.1667,52.5 46.5,52.5C 41.5,52.5 36.5,52.5 31.5,52.5C 31.3334,68.1702 31.5001,83.8369 32,99.5C 32.6708,98.7476 33.5041,98.4142 34.5,98.5C 33.8549,99.8118 32.8549,100.812 31.5,101.5C 30.5005,84.8467 30.1672,68.18 30.5,51.5C 36.69,51.1771 42.69,51.5104 48.5,52.5 Z"/></g>
<g><path style="opacity:1" fill="#8cbe57" d="M 46.5,52.5 C 47.1667,52.5 47.8333,52.5 48.5,52.5C 48.6665,63.8382 48.4999,75.1716 48,86.5C 47.2917,87.3805 46.4584,88.0472 45.5,88.5C 46.2706,76.6581 46.6039,64.6581 46.5,52.5 Z"/></g>
<g><path style="opacity:1" fill="#96bd6a" d="M 99.5,48.5 C 100.162,50.3035 100.495,52.3035 100.5,54.5C 100.713,57.5267 100.047,60.1934 98.5,62.5C 99.3136,57.8809 99.6469,53.2142 99.5,48.5 Z"/></g>
<g><path style="opacity:1" fill="#d2e2b9" d="M 111.5,59.5 C 117.645,58.5098 123.978,58.1765 130.5,58.5C 130.768,60.099 130.434,61.4324 129.5,62.5C 129.5,61.5 129.5,60.5 129.5,59.5C 123.5,59.5 117.5,59.5 111.5,59.5 Z"/></g>
<g><path style="opacity:1" fill="#9abe69" d="M 77.5,44.5 C 79.7525,44.9156 81.2525,46.249 82,48.5C 82.6667,52.5 82.6667,56.5 82,60.5C 80.1893,64.655 77.0226,66.655 72.5,66.5C 82.5083,61.1452 84.175,53.8119 77.5,44.5 Z"/></g>
<g><path style="opacity:1" fill="#717171" d="M 369.5,60.5 C 371.5,60.5 373.5,60.5 375.5,60.5C 375.5,71.1667 375.5,81.8333 375.5,92.5C 373.5,92.5 371.5,92.5 369.5,92.5C 369.5,81.8333 369.5,71.1667 369.5,60.5 Z"/></g>
<g><path style="opacity:1" fill="#6a6a6a" d="M 396.5,59.5 C 403.611,58.5266 409.944,60.1933 415.5,64.5C 413.535,68.2151 411.202,68.3817 408.5,65C 399.895,62.3967 393.395,64.8967 389,72.5C 388.438,84.5963 394.272,89.763 406.5,88C 408.901,87.205 411.068,86.0383 413,84.5C 415.952,86.1929 416.118,88.0262 413.5,90C 405.833,93.3333 398.167,93.3333 390.5,90C 383.977,84.9958 381.81,78.4958 384,70.5C 384.883,67.8976 386.383,65.7309 388.5,64C 391.391,62.7258 394.058,61.2258 396.5,59.5 Z"/></g>
<g><path style="opacity:1" fill="#696969" d="M 354.5,92.5 C 354.831,84.4723 354.498,76.4723 353.5,68.5C 352.893,68.6236 352.56,68.9569 352.5,69.5C 348.521,74.1456 344.188,78.479 339.5,82.5C 334.779,78.0676 330.279,73.4009 326,68.5C 325.5,76.4931 325.334,84.4931 325.5,92.5C 323.833,92.5 322.167,92.5 320.5,92.5C 320.5,81.8333 320.5,71.1667 320.5,60.5C 322.199,60.3398 323.866,60.5065 325.5,61C 330.333,65.8333 335.167,70.6667 340,75.5C 344.682,70.9852 349.182,66.3185 353.5,61.5C 355.396,60.5344 357.396,60.2011 359.5,60.5C 359.5,71.1667 359.5,81.8333 359.5,92.5C 357.833,92.5 356.167,92.5 354.5,92.5 Z"/></g>
<g><path style="opacity:1" fill="#9cc06b" d="M 72.5,66.5 C 68.7016,67.4834 64.7016,67.8168 60.5,67.5C 60.5,72.1667 60.5,76.8333 60.5,81.5C 67.1961,81.609 73.8627,81.2757 80.5,80.5C 78.1234,81.8873 75.4568,82.7206 72.5,83C 68.1794,83.499 63.8461,83.6657 59.5,83.5C 59.5,77.8333 59.5,72.1667 59.5,66.5C 63.8333,66.5 68.1667,66.5 72.5,66.5 Z"/></g>
<g><path style="opacity:1" fill="#bcbcbc" d="M 352.5,69.5 C 352.56,68.9569 352.893,68.6236 353.5,68.5C 354.498,76.4723 354.831,84.4723 354.5,92.5C 353.833,84.8333 353.167,77.1667 352.5,69.5 Z"/></g>
<g><path style="opacity:1" fill="#696969" d="M 162.5,60.5 C 170.585,60.0989 178.585,60.5989 186.5,62C 194.61,66.0636 197.443,72.5636 195,81.5C 192.635,87.2021 188.469,90.7021 182.5,92C 175.842,92.4996 169.175,92.6663 162.5,92.5C 162.5,81.8333 162.5,71.1667 162.5,60.5 Z M 167.5,64.5 C 172.511,64.3341 177.511,64.5007 182.5,65C 192.37,71.4345 193.037,78.7678 184.5,87C 178.912,88.2889 173.245,88.7889 167.5,88.5C 167.5,80.5 167.5,72.5 167.5,64.5 Z"/></g>
<g><path style="opacity:1" fill="#6d6d6d" d="M 197.5,61.5 C 199.288,60.3775 201.288,60.2109 203.5,61C 207.362,65.2286 210.862,69.7286 214,74.5C 217.833,70 221.667,65.5 225.5,61C 227.259,60.2025 228.926,60.3691 230.5,61.5C 226.526,67.3072 222.36,72.9739 218,78.5C 217.501,83.1548 217.334,87.8215 217.5,92.5C 215.5,92.5 213.5,92.5 211.5,92.5C 211.666,87.8215 211.499,83.1548 211,78.5C 206.636,72.6461 202.136,66.9795 197.5,61.5 Z"/></g>
<g><path style="opacity:1" fill="#6b6b6b" d="M 449.5,79.5 C 449.5,81.8333 449.5,84.1667 449.5,86.5C 443.3,92.2285 435.967,94.0619 427.5,92C 422.954,91.4039 421.787,89.2372 424,85.5C 429.571,88.7851 435.404,89.2851 441.5,87C 444.167,84.6667 444.167,82.3333 441.5,80C 436.531,78.5397 431.531,77.2064 426.5,76C 420.897,70.5108 421.231,65.5108 427.5,61C 434.813,58.6981 441.813,59.3647 448.5,63C 447.929,64.2051 447.262,65.3717 446.5,66.5C 441.323,64.5683 435.989,64.0683 430.5,65C 426.963,66.8265 426.629,69.1598 429.5,72C 436.877,72.8446 443.544,75.3446 449.5,79.5 Z"/></g>
<g><path style="opacity:1" fill="#afd284" d="M 111.5,59.5 C 117.5,59.5 123.5,59.5 129.5,59.5C 129.5,60.5 129.5,61.5 129.5,62.5C 128.153,73.865 123.153,83.1983 114.5,90.5C 113.918,89.0689 113.085,87.7356 112,86.5C 110.981,87.6872 109.814,88.6872 108.5,89.5C 106.383,87.1692 103.716,86.0026 100.5,86C 103.468,83.8223 103.135,82.6556 99.5,82.5C 99.5,83.5 99.5,84.5 99.5,85.5C 98.5,85.5 97.5,85.5 96.5,85.5C 96.6495,86.552 96.4828,87.552 96,88.5C 95.6667,88.1667 95.3333,87.8333 95,87.5C 91.8875,89.5018 88.3875,90.5018 84.5,90.5C 98.84,84.8261 107.84,74.4927 111.5,59.5 Z"/></g>
<g><path style="opacity:1" fill="#676767" d="M 238.5,60.5 C 240.199,60.3398 241.866,60.5065 243.5,61C 251.346,68.5457 258.846,76.3791 266,84.5C 266.5,76.5069 266.666,68.5069 266.5,60.5C 268.167,60.5 269.833,60.5 271.5,60.5C 271.5,71.1667 271.5,81.8333 271.5,92.5C 269.801,92.6602 268.134,92.4935 266.5,92C 259.365,83.8635 251.865,76.0302 244,68.5C 243.5,76.4931 243.334,84.4931 243.5,92.5C 241.833,92.5 240.167,92.5 238.5,92.5C 238.5,81.8333 238.5,71.1667 238.5,60.5 Z"/></g>
<g><path style="opacity:1" fill="#696969" d="M 292.5,60.5 C 294.924,60.1924 297.257,60.5258 299.5,61.5C 304.074,71.7262 308.74,81.8929 313.5,92C 311.421,92.8077 309.421,92.641 307.5,91.5C 305.535,85.986 301.535,83.986 295.5,85.5C 289.465,83.986 285.465,85.986 283.5,91.5C 281.955,92.4519 280.288,92.7852 278.5,92.5C 282.613,81.6055 287.28,70.9388 292.5,60.5 Z M 295.5,65.5 C 297.994,70.6526 300.661,75.8192 303.5,81C 298.467,81.8289 293.467,81.6623 288.5,80.5C 291.121,75.5941 293.454,70.5941 295.5,65.5 Z"/></g>
<g><path style="opacity:1" fill="#8bc04a" d="M 46.5,52.5 C 46.6039,64.6581 46.2706,76.6581 45.5,88.5C 42.4421,92.5246 38.7755,95.8579 34.5,98.5C 33.5041,98.4142 32.6708,98.7476 32,99.5C 31.5001,83.8369 31.3334,68.1702 31.5,52.5C 36.5,52.5 41.5,52.5 46.5,52.5 Z"/></g>
<g><path style="opacity:1" fill="#aed382" d="M 114.5,90.5 C 106.134,100.303 95.4678,105.97 82.5,107.5C 69.4829,107.832 56.4829,107.499 43.5,106.5C 46.2109,102.788 49.5442,99.7881 53.5,97.5C 54.3857,96.675 54.719,95.675 54.5,94.5C 55.2891,94.2172 55.9558,93.7172 56.5,93C 65.9242,92.8965 75.2575,92.0631 84.5,90.5C 88.3875,90.5018 91.8875,89.5018 95,87.5C 95.3333,87.8333 95.6667,88.1667 96,88.5C 96.4828,87.552 96.6495,86.552 96.5,85.5C 97.5,85.5 98.5,85.5 99.5,85.5C 99.5,84.5 99.5,83.5 99.5,82.5C 103.135,82.6556 103.468,83.8223 100.5,86C 103.716,86.0026 106.383,87.1692 108.5,89.5C 109.814,88.6872 110.981,87.6872 112,86.5C 113.085,87.7356 113.918,89.0689 114.5,90.5 Z"/></g>
<g><path style="opacity:1" fill="#b9d295" d="M 54.5,94.5 C 54.719,95.675 54.3857,96.675 53.5,97.5C 49.5442,99.7881 46.2109,102.788 43.5,106.5C 56.4829,107.499 69.4829,107.832 82.5,107.5C 80.1667,108.167 77.8333,108.833 75.5,109.5C 63.8333,109.5 52.1667,109.5 40.5,109.5C 40.3505,108.448 40.5172,107.448 41,106.5C 45.0738,101.921 49.5738,97.9207 54.5,94.5 Z"/></g>
</svg>
