<svg id="Vrstva_1" data-name="Vrstva 1" xmlns="http://www.w3.org/2000/svg" viewBox="0 0 400 135"><defs><style>.cls-1{fill:#003660;}.cls-2{fill:#fff;}</style></defs><path class="cls-1" d="M96.39,19.31H0v96.38H96.39Z"/><path class="cls-2" d="M68.59,68.51a13.74,13.74,0,0,0,3.75-9.88c0-4.72-2-11.39-8.48-14.17-3-1.25-7.43-1.54-12.09-1.54H19.28v.35l8,5.76V92.08H42.88V74.77h4.59L57,92.08H74.22L62.27,72.26C64.56,71.36,66.64,70.6,68.59,68.51ZM49.34,64.69H42.88V53.21h6.39c2.7,0,7.57.14,7.57,5.78S51.91,64.69,49.34,64.69Z"/><path class="cls-1" d="M126.07,72.71h6.76l8,15h8.65l-9-16.46a11.08,11.08,0,0,0,8-11.12,12.31,12.31,0,0,0-4.47-10c-3.55-2.86-7.16-2.86-12.56-2.92H118.56V87.74h7.51Zm0-18.92h3.49c4.48,0,6.43.06,8,.86a5.79,5.79,0,0,1,3.21,5.45c0,5.91-5.44,6.2-7.11,6.26-1.43,0-2.41.11-5,.11h-2.64V53.79Z"/><polygon class="cls-1" points="191.64 80.91 168.88 80.91 168.88 70.08 188.37 70.08 188.37 63.54 168.88 63.54 168.88 54.03 190.2 54.03 190.2 47.26 161.42 47.26 161.42 87.74 191.64 87.74 191.64 80.91"/><polygon class="cls-1" points="210.44 59.36 228.14 87.74 234.74 87.74 234.74 47.26 227.28 47.26 228.2 75.87 210.31 47.26 203.49 47.26 203.49 87.74 210.89 87.74 210.44 59.36"/><path class="cls-1" d="M245.67,67.56a22.32,22.32,0,0,0,5.39,15A17.2,17.2,0,0,0,265,88.77c12.45,0,19.45-9.69,19.5-21.27.06-13.82-9.34-21.27-19.37-21.27C254,46.23,245.67,55.17,245.67,67.56Zm19.39-14.39c8,0,12,7.28,11.86,15.19-.18,9.74-6.65,13.42-11.7,13.42-6.7,0-11.75-5.45-11.75-14.57C253.47,58.78,258.12,53.17,265.06,53.17Z"/><polygon class="cls-1" points="314 77.3 306.08 47.26 295.08 47.26 295.08 87.74 302.47 87.74 301.72 54.48 310.5 87.74 317.32 87.74 326.04 54.48 325.36 87.74 332.75 87.74 332.75 47.26 321.74 47.26 314 77.3"/><rect class="cls-1" x="347.78" y="47.26" width="7.45" height="40.48"/><path class="cls-1" d="M391.91,87.74H400L386.18,47.26h-8.6L363.93,87.74H372l2.36-7.91h15.19ZM376.37,73.23,382,54.6l5.57,18.63Z"/></svg>