<svg xmlns:xlink="http://www.w3.org/1999/xlink" xmlns="http://www.w3.org/2000/svg" id="Layer_1" viewBox="0 0 257.14 113.39" width="300"  height="132.2898032200358" ><defs><style>.cls-1{fill:#f05123;}.cls-2{fill:#231f20;}</style></defs><path class="cls-1" d="m163.74,99.48c.58-2.12.65-4.87.23-8.37-.09.07-.19.12-.32.16l-.22.08-.18-.15c-.76-.59-1.77-.86-3.28-.86-.57,0-1.15.03-1.71.07-.55.03-1.09.07-1.6.07h-.18c-.17-.03-.29-.05-.42-.07-.7-.1-1.42-.2-1.52-.75-.07-.42.32-.7.58-.86-.26.02-.52.03-.76.05-.71,2.21-.56,4.56-.4,7.04.1,1.58.21,3.2.08,4.81.16.3.35.53.5.61.92-.11,1.92-.13,2.98-.16,1.31-.04,2.67-.07,3.86-.27.11-.09.38-.29.66-.48.57-.41,1.15-.83,1.71-.92m20.07-.04c.72-2.58.95-6.21-.47-8.88-.75-.25-1.58-.37-2.61-.37-.73,0-1.46.05-2.19.11-.76.06-1.51.12-2.25.12h-.81s.2-.58.2-.58c.1-.27.21-.5.34-.68-.67.43-.95,1.39-1.14,2.39-.32,3.38-.36,7.1,1.83,8.89.2,0,.39,0,.59,0,.55,0,1.08.03,1.59.05.48.02.94.05,1.38.05,1.14,0,2.36-.13,3.55-1.08m40.91-8.24c-1.89-2.04-5.48-.59-7.85-.78-.74-.66.48-1.85-.78-1.63-.48,1.71-.26,3.63-.44,5.44.14.3.44.56.7.67,2.04-1.74,4.63-.33,7.11-.44,1.81-.22,1.18-2,1.26-3.26m24.01-.18c-.56.04-1.08.74-1.52.07-.74-.67-.11-2.37-1.66-2.3.18.55.77,1.22.66,2.08-2.59-1.56-6.48-1.11-8.67.11-.34-.85,1.67-3.44-.63-1.92-.81,1-.59,2.66-.14,3.63.74.81,1.85.74,2.4.3,2.59-.1,5.29.1,7.45.48-.29,0-.59.06-.86.07.85.52,3.04,1.67,2.97,3.52.37,2.22.07,4.59-1.85,5.67-3.89.74-9.67,2.52-12.22-1.55-.18-.82-.52-1.67.3-2.52,2.33-.66,1.26,3.44,3.45,2.22-.15-.15-.26-.15-.41-.26,2.63,0,6.04.86,7.92-1.19.22-1-.52-1.81-1.37-2.07-3.11-.82-7.67.92-9.63-2.48,1.85.74-.78-1.93-.41-3.22.04-1.81.52-4.07,2.45-4.85,3.3-.85,6.96-.74,10.07.26,1.04,1.07,2.34,2.26,1.71,3.96m-22.12,4.55c1.63,2.3.93,5,1.04,7.81-.41.15-.67.44-1.22.33-1.63-1.89,1-5.52-2-6.52,1.34,1.07.85,3.48.81,5-.89-.63.37-3.93-2.15-3.67-1.96-.04-4.33-.37-6.11.56-1.04-1.22,2.15-1.78-.26-2.22-.56-.11-1.07.48-1.07.89-.89,2.14,1.63,5.37-1.11,6.18-.3-.41-.74-.67-.89-1.07.63-4.93.08-10.48.15-15.52.26-.29.37-.44.66-.74,4.63.22,10.82-1.89,13,2.78.22,2.07,1.04,4.7-.85,6.18m-22.86,5.71c.96.22,2.63-.11,3,1.41.15.81-.81,1.15-1.67,1.03-3.48.3-6.7.04-10.04.04-.59.04-.59-.52-.88-.93-.26-5.3.22-10.52,0-15.52.06-.07.12-.15.18-.21.31-.36.55-.68.89-.68,3.93-.04,8.48-1.22,11.22.89-.26.56-.22.7-.63,1.15-1.7-.37-1.22.74-.66,1-2.48.82-4.74.07-7.67.48-.67.74-.19,1.96-.3,2.82,2.97.7,6-.55,7.26,2.63-.11.96-3.19.67-.78,1.26-1.92.82-3.93.33-6,.85-.37.85-.74,2-.29,2.81,2.29,1,5.19-.11,7.44.48-.41.19-.81.19-1.07.48m-16.55-.07c-1.63,2.34-4.25,2.62-6.36,2.62-.79,0-1.57-.04-2.32-.09-.65-.04-1.28-.07-1.85-.07-1.62-.25-3.22-1.53-3.88-3.04-.11-.88-.24-1.69-.38-2.54-.66-4.19-1.48-9.4,2.71-11.82l.07-.04.57-.09c1.53-.23,3.27-.5,4.93-.5,2.99,0,5.1.9,6.44,2.75l.05.06.02.08c1.05,4.08,1.04,8.94,0,12.67m-21.27.45l-.03.09-.05.07c-1.78,2.11-4.32,2.39-6.58,2.39-.69,0-1.4-.03-2.11-.06-.71-.03-1.41-.06-2.1-.06s-1.29.03-1.82.09c.02.01-.1.04-.21.04-.58,0-1.04-.57-1.26-1.07-.28-2.72-.12-5.27.03-7.73.18-2.83.34-5.5-.06-8.2l-.07-.44.45-.05c.68-.07,1.42-.19,2.2-.3,1.6-.25,3.41-.52,5.12-.52,3.28,0,5.5,1.05,6.77,3.22.97,4.28.86,8.8-.26,12.53m-35.31-.38c.96.22,2.63-.11,3,1.41.15.81-.82,1.15-1.67,1.03-3.48.3-6.7.04-10.04.04-.59.04-.59-.52-.89-.93-.26-5.3.22-10.52,0-15.52.07-.07.13-.15.19-.21.31-.36.55-.68.89-.68,3.92-.04,8.48-1.22,11.22.89-.26.56-.22.7-.63,1.15-1.7-.37-1.22.74-.67,1-2.48.82-4.74.07-7.67.48-.66.74-.18,1.96-.29,2.82,2.96.7,6-.55,7.26,2.63-.11.96-3.19.67-.78,1.26-1.93.82-3.93.33-6,.85-.37.85-.75,2-.3,2.81,2.29,1,5.18-.11,7.44.48-.41.19-.81.19-1.07.48m-16.3,1.71l-.09.13c-.33.47-.91.78-1.46.78-.67,0-1.16-.44-1.28-1.15l-.02-.09.02-.09c.12-.45.2-.88.25-1.31-.02.06-.03.12-.05.18l-.34,1.05-.46-1.01c-.26-.57-.26-1.29-.27-2,0-1.52-.13-2-.94-2.01-.71,0-1.38-.03-2.03-.06-.74-.03-1.45-.06-2.15-.06-1.24,0-2.2.09-3.13.29l-1.14.25c-.13.7,0,1.49.14,2.25.24,1.34.51,2.87-.93,3.81l-.09.06h-.2c-.71,0-1.28-.59-1.52-1.18l-.04-.09s.08-1.65.11-2.43c.21-4.17.43-8.49-.22-12.8l-.02-.11.04-.11c.35-.96,1.27-1.02,1.88-1.06l.24-.02.15.19c.55.75.49,1.66.44,2.54-.05.77-.1,1.56.24,2.28l.03.07v.09c.02.31-.08.63-.17.98-.24.83-.26,1.15.15,1.36.97-.38,2.06-.44,2.91-.44.45,0,.91.01,1.37.03.45.02.9.03,1.35.03,1.34,0,2.73-.13,3.79-1.04l.12-.11h.18c.13,0,.22.03.29.08-.09-.87,0-1.71.09-2.54.1-.93.2-1.8.03-2.65l-.03-.14.05-.12c.19-.43.5-.65.94-.65.11,0,.22.01.34.03.08,0,.15.02.23.02h.08l.07.03c.3.11.49.27.62.37l.15.12.1.25c.17,2.58.1,5.06.03,7.47-.08,2.69-.16,5.47.12,8.33l.02.16Zm-20.95-15.14l.06.43-.43.05c-.52.06-1.05.16-1.58.26-.96.18-1.96.37-3.04.37-.33,0-.66-.01-1-.06-.04.04-.07.07-.1.11.03,2.34.03,4.63.03,6.92s0,4.68.04,7.07v.1s-.04.09-.04.09c-.19.41-.53.61-1.02.61-.11,0-.21,0-.32-.02-.08,0-.43-.02-.43-.02-.51-.14-.68-.58-.78-.84-.03-.07-.05-.13-.08-.18l-.07-.11v-.13c.19-2.22.16-4.62.12-6.95-.02-1.49-.05-3.01-.01-4.5-.06.4-.14.71-.23.83l-.13.17-.24.02c-.48,0-.55-.46-.6-1.6-.57-.49-1.36-.51-2.19-.54-.67-.02-1.36-.04-1.99-.3l-.12-.05.29-.59c-.43-.1-.82-.34-1.15-.73l-.07-.08-.02-.11c-.13-.56,0-1.15.34-1.57.26-.32.61-.51.97-.51h.78c1.14,0,2.28-.03,3.42-.07,1.14-.04,2.27-.08,3.4-.08,2.33,0,4.08.16,5.68.52l.11.02.08.08c.36.32.34.81.33,1.14,0,.09-.01.17,0,.24m-5.28,1.39c1.37-.48,2.78-.26,3.92.11-1.41-.37-4.22,2.41-3.92-.11m35.23,15.15c2.26.33,4.74-.18,7,.11-1.92.37-4.59.37-7-.11m73.13,0c2.26.33,4.74-.18,7,.11-1.93.37-4.59.37-7-.11m41.54,0c2.41.04,4.92.33,7.29.07-2.37.26-5,.67-7.29-.07m19.15-28.04H70.6v37.04h186.54v-37.04Z"/><path class="cls-2" d="m15.53,21.41c5.97,4.48,14.56,7.81,20.88,12.89,3.51,2.81,5.7,7.98,5.7,12.81,0,10.18-9.56,18.16-21.32,18.16S0,57.03,0,46.06c0-3.42.44-4.47,2.98-4.47h7.8c2.02,0,2.54,1.23,2.54,4.65,0,3.77,2.02,6.58,7.28,6.58,5.88,0,8.24-2.98,8.24-5.88,0-3.51-4.65-5.96-6.4-6.84-5.53-3.07-11.76-5.88-16.67-10"/><path class="cls-2" d="m22.46,40.1c-5.53-3.07-11.76-5.88-16.67-10-3.51-3.07-5.79-7.9-5.79-12.54C0,8.08,7.52,0,19.27,0c15.18,0,20.54,7.29,20.54,17.2,0,3.42-.7,4.12-2.72,4.12h-8.16c-1.67,0-2.45-.7-2.45-4.12,0-3.07-.89-4.57-7.03-4.57-5.09,0-6.38,2.38-6.38,4.75,0,2.2.96,2.72,2.45,4.04,5.97,4.47,14.56,7.81,20.88,12.89"/><path class="cls-2" d="m70.01,34.57c0-1.93-.09-5.44-4.21-5.44s-6.31,2.54-6.31,5.26v14.74c0,4.56,2.89,5.61,6.31,5.61,2.72,0,4.21-2.37,4.21-5.44v-14.73Zm13.33-3.34v22.11c0,6.67-6.4,11.93-13.16,11.93-3.51,0-5.88-.7-8.95-2.54-.7-.44-1.75-.09-1.75.53v18.51c0,1.75-.88,3.16-2.64,3.16h-7.98c-1.84,0-2.81-.96-2.81-2.89V22.9c0-1.93.96-2.89,2.81-2.89h6.84c1.31,0,2.28.09,2.9,1.14.44.88,1.05,1.05,1.75.53,2.81-2.02,5.44-3.24,9.91-3.24,6.75,0,13.07,5.17,13.07,12.8"/><path class="cls-2" d="m102.05,61.23c0,2.2-.61,2.63-2.63,2.63h-7.98c-2.1,0-2.72-.35-2.72-2.37V22.9c0-1.93.88-2.89,2.72-2.89h8.07c2.1,0,2.63.79,2.63,1.93,0,.96.96,1.14,1.58.52,3.07-3.24,7.19-4.03,10.61-4.03,1.14,0,2.1.97,2.1,2.11v6.75c0,1.4-.61,2.55-2.46,2.55h-2.63c-5.17,0-9.3,5.09-9.3,9.21v22.19Z"/><path class="cls-2" d="m121.02,22.82c0-2.11.7-2.81,2.72-2.81h8.07c1.66,0,2.54,1.05,2.54,3.07v37.28c0,2.19-.18,3.51-2.89,3.51h-7.37c-3.07,0-3.07-1.66-3.07-3.68V22.82Zm-1.32-14.73c0-4.12,3.51-7.55,7.98-7.55s7.98,3.33,7.98,7.55-3.51,7.45-7.98,7.45-7.98-3.33-7.98-7.45"/><path class="cls-2" d="m143.4,63.87c-2.19,0-2.71-.96-2.71-2.98V22.9c0-2.01.7-2.89,2.71-2.89h7.2c1.4,0,1.84.44,2.45,1.58.35.79.79.97,1.41.53,2.71-1.75,6.22-3.68,10.7-3.68,7.28,0,12.72,5.26,12.72,12.63v29.39c0,2.19-.61,3.42-2.63,3.42h-7.98c-2.1,0-2.72-.96-2.72-2.98v-26.05c0-3.94-1.4-5.26-4.12-5.26-3.07,0-6.41,1.67-6.41,5.26v25.62c0,1.67-.35,3.42-2.72,3.42h-7.89Z"/><path class="cls-2" d="m202,54.84c-.7-1.32-1.58-1.5-2.54.17l-5,9.03c-.35.97-1.58,1.32-2.89.7l-7.63-4.3c-1.49-.88-1.76-2.11-.79-3.6l7.98-12.46c.79-1.31.96-3.6,0-5.09l-8.07-12.63c-.96-1.49-.7-2.72.79-3.59l7.54-4.22c1.23-.61,2.11-.43,2.72.62l5,8.68c1.05,1.84,2.19,1.67,3.16-.09l4.56-8.25c.44-.97,1.93-1.49,2.98-.88l7.63,4.12c1.58.79,1.85,2.1.79,3.77l-7.98,12.46c-.97,1.49-.79,3.77,0,5.09l7.72,12.11c.96,1.75.61,2.98-.88,3.68l-7.37,4.56c-1.49.79-2.63-.09-2.89-.7l-4.83-9.21Z"/></svg>