<?xml version="1.0" encoding="UTF-8"?>
<!DOCTYPE svg PUBLIC "-//W3C//DTD SVG 1.1//EN" "http://www.w3.org/Graphics/SVG/1.1/DTD/svg11.dtd">
<svg xmlns="http://www.w3.org/2000/svg" version="1.1" width="400px" height="135px" style="shape-rendering:geometricPrecision; text-rendering:geometricPrecision; image-rendering:optimizeQuality; fill-rule:evenodd; clip-rule:evenodd" xmlns:xlink="http://www.w3.org/1999/xlink">
<g><path style="opacity:0.859" fill="#383938" d="M 321.5,27.5 C 322.873,27.3433 324.207,27.51 325.5,28C 336.548,37.3804 346.548,47.7138 355.5,59C 353.842,62.2965 351.175,63.2965 347.5,62C 338.333,52.8333 329.167,43.6667 320,34.5C 319.167,31.829 319.667,29.4957 321.5,27.5 Z"/></g>
<g><path style="opacity:0.852" fill="#383938" d="M 399.5,29.5 C 399.5,31.1667 399.5,32.8333 399.5,34.5C 389.488,44.5116 379.155,54.1783 368.5,63.5C 364.249,62.0102 363.082,59.3436 365,55.5C 374.404,46.2183 383.904,37.0516 393.5,28C 395.84,27.2516 397.84,27.7516 399.5,29.5 Z"/></g>
<g><path style="opacity:0.908" fill="#353635" d="M -0.5,51.5 C -0.5,49.5 -0.5,47.5 -0.5,45.5C 4.28872,44.8071 9.12205,44.1404 14,43.5C 20.8025,44.445 27.6359,44.445 34.5,43.5C 39.6008,43.4641 44.6008,44.1308 49.5,45.5C 51.1514,48.5682 50.4848,50.9016 47.5,52.5C 42.8688,53.0125 38.2021,53.1792 33.5,53C 30.1874,54.5663 28.5208,57.2329 28.5,61C 29.596,69.8088 29.7627,78.6421 29,87.5C 26.679,90.9166 24.0124,91.2499 21,88.5C 19.3707,79.0142 19.2041,69.5142 20.5,60C 18.9765,53.4033 14.9765,51.2366 8.5,53.5C 5.40426,53.0817 2.40426,52.4151 -0.5,51.5 Z"/></g>
<g><path style="opacity:0.916" fill="#373837" d="M 90.5,43.5 C 100.334,43.4306 110.001,43.7639 119.5,44.5C 119.768,47.1194 119.435,49.6194 118.5,52C 107.109,52.0902 95.7761,52.7569 84.5,54C 82.3517,56.0749 82.0183,58.4082 83.5,61C 90.7526,62.0991 98.0859,62.9325 105.5,63.5C 107.007,65.9686 106.673,68.1353 104.5,70C 100.649,70.5404 96.8153,70.3738 93,69.5C 90.1443,69.8711 87.3109,70.3711 84.5,71C 81.6667,74.6631 82,77.9965 85.5,81C 96.8333,81.3333 108.167,81.6667 119.5,82C 121.457,84.1212 121.957,86.6212 121,89.5C 108.242,90.6551 95.4088,90.8217 82.5,90C 78.0225,89.8575 75.1892,87.6908 74,83.5C 73.3333,72.1667 73.3333,60.8333 74,49.5C 74.8333,47.3333 76.3333,45.8333 78.5,45C 82.6877,44.8238 86.6877,44.3238 90.5,43.5 Z"/></g>
<g><path style="opacity:0.891" fill="#393a39" d="M 164.5,43.5 C 169.421,43.0429 172.921,45.0429 175,49.5C 181.588,61.0069 187.921,72.6736 194,84.5C 194.564,89.9356 192.397,91.4356 187.5,89C 178.402,79.7268 167.736,77.3935 155.5,82C 151.553,84.2798 147.887,86.9465 144.5,90C 140.38,90.5138 138.88,88.6805 140,84.5C 146.412,72.0071 153.079,59.6738 160,47.5C 161.397,45.9297 162.897,44.5964 164.5,43.5 Z M 164.5,55.5 C 167.923,55.1279 170.423,56.4612 172,59.5C 173.949,63.6293 175.116,67.9627 175.5,72.5C 169.317,72.9526 163.317,72.4526 157.5,71C 158.391,65.1502 160.725,59.9835 164.5,55.5 Z"/></g>
<g><path style="opacity:0.884" fill="#393a39" d="M 218.5,44.5 C 221.187,44.3359 223.854,44.5026 226.5,45C 234.068,52.8957 241.235,61.0624 248,69.5C 250.292,68.2101 252.292,66.5435 254,64.5C 258.833,58.3333 263.667,52.1667 268.5,46C 271.702,44.5167 275.036,44.1834 278.5,45C 279.656,59.4253 279.823,73.9253 279,88.5C 276.959,89.4231 274.792,89.7564 272.5,89.5C 271.784,78.4276 271.451,67.4276 271.5,56.5C 264.722,61.7739 259.222,68.1072 255,75.5C 252.838,79.3684 249.672,80.8684 245.5,80C 240.016,72.5179 233.849,65.6845 227,59.5C 226.667,68.5 226.333,77.5 226,86.5C 225.626,87.4162 225.126,88.2496 224.5,89C 222.098,89.8141 219.765,89.6474 217.5,88.5C 216.352,74.8786 216.185,61.2119 217,47.5C 217.513,46.4734 218.013,45.4734 218.5,44.5 Z"/></g>
<g><path style="opacity:0.872" fill="#383938" d="M 348.5,71.5 C 353.176,71.0133 355.343,73.0133 355,77.5C 345.5,87 336,96.5 326.5,106C 321,107.167 318.833,105 320,99.5C 329.395,89.9371 338.895,80.6038 348.5,71.5 Z"/></g>
<g><path style="opacity:0.858" fill="#383938" d="M 399.5,99.5 C 399.5,101.167 399.5,102.833 399.5,104.5C 397.84,106.248 395.84,106.748 393.5,106C 382.821,96.6544 372.821,86.6544 363.5,76C 364.504,72.3317 366.837,70.9984 370.5,72C 380.338,81.0055 390.005,90.1722 399.5,99.5 Z"/></g>
</svg>
