<?xml version="1.0" encoding="UTF-8"?>
<!DOCTYPE svg PUBLIC "-//W3C//DTD SVG 1.1//EN" "http://www.w3.org/Graphics/SVG/1.1/DTD/svg11.dtd">
<svg xmlns="http://www.w3.org/2000/svg" version="1.1" width="2566px" height="1456px" style="shape-rendering:geometricPrecision; text-rendering:geometricPrecision; image-rendering:optimizeQuality; fill-rule:evenodd; clip-rule:evenodd" xmlns:xlink="http://www.w3.org/1999/xlink">
<g><path style="opacity:0.988" fill="#002c5f" d="M 2335.5,489.5 C 2396.83,489.5 2458.17,489.5 2519.5,489.5C 2519.67,550.501 2519.5,611.501 2519,672.5C 2488.67,702.833 2458.33,733.167 2428,763.5C 2427.5,702.834 2427.33,642.168 2427.5,581.5C 2366.83,581.833 2306.16,581.5 2245.5,580.5C 2275.52,550.146 2305.52,519.812 2335.5,489.5 Z"/></g>
<g><path style="opacity:0.991" fill="#002d5f" d="M 727.5,547.5 C 758.167,547.5 788.833,547.5 819.5,547.5C 819.5,684.167 819.5,820.833 819.5,957.5C 788.833,957.5 758.167,957.5 727.5,957.5C 727.5,820.833 727.5,684.167 727.5,547.5 Z"/></g>
<g><path style="opacity:0.989" fill="#002c5f" d="M 1253.5,586.5 C 1284.17,586.5 1314.83,586.5 1345.5,586.5C 1345.5,614.833 1345.5,643.167 1345.5,671.5C 1373.83,671.5 1402.17,671.5 1430.5,671.5C 1430.5,695.833 1430.5,720.167 1430.5,744.5C 1402.17,744.5 1373.83,744.5 1345.5,744.5C 1345.33,778.835 1345.5,813.168 1346,847.5C 1346.95,871.62 1359.45,883.62 1383.5,883.5C 1398.04,883.115 1411.71,879.448 1424.5,872.5C 1432.36,896.108 1439.7,919.941 1446.5,944C 1428.9,955.452 1409.57,962.452 1388.5,965C 1358.84,969.048 1330.5,964.715 1303.5,952C 1274.55,933.981 1258.39,907.815 1255,873.5C 1253.57,830.519 1253.07,787.519 1253.5,744.5C 1236.5,744.5 1219.5,744.5 1202.5,744.5C 1202.5,720.167 1202.5,695.833 1202.5,671.5C 1219.5,671.5 1236.5,671.5 1253.5,671.5C 1253.5,643.167 1253.5,614.833 1253.5,586.5 Z"/></g>
<g><path style="opacity:0.99" fill="#002d5f" d="M 481.5,662.5 C 518.702,659.739 551.869,669.739 581,692.5C 581.5,685.508 581.666,678.508 581.5,671.5C 612.167,671.5 642.833,671.5 673.5,671.5C 673.5,766.833 673.5,862.167 673.5,957.5C 642.833,957.5 612.167,957.5 581.5,957.5C 581.666,950.159 581.5,942.826 581,935.5C 563.746,950.931 543.579,960.431 520.5,964C 446.42,973.389 394.253,944.223 364,876.5C 354.515,850.286 351.182,823.286 354,795.5C 358.834,747.423 381.001,709.923 420.5,683C 439.359,671.436 459.693,664.603 481.5,662.5 Z M 509.5,740.5 C 554.035,745.036 578.035,769.703 581.5,814.5C 579.781,851.358 561.447,875.191 526.5,886C 485.658,892.006 458.825,875.506 446,836.5C 438.286,804.662 446.119,777.495 469.5,755C 481.609,746.466 494.942,741.633 509.5,740.5 Z"/></g>
<g><path style="opacity:0.99" fill="#002d5f" d="M 985.5,662.5 C 1022.7,659.739 1055.87,669.739 1085,692.5C 1085.5,685.508 1085.67,678.508 1085.5,671.5C 1116.17,671.5 1146.83,671.5 1177.5,671.5C 1177.5,766.833 1177.5,862.167 1177.5,957.5C 1146.83,957.5 1116.17,957.5 1085.5,957.5C 1085.67,950.159 1085.5,942.826 1085,935.5C 1067.75,950.931 1047.58,960.431 1024.5,964C 950.42,973.389 898.253,944.223 868,876.5C 858.515,850.286 855.182,823.286 858,795.5C 862.834,747.423 885.001,709.923 924.5,683C 943.359,671.436 963.693,664.603 985.5,662.5 Z M 1013.5,740.5 C 1058.03,745.036 1082.03,769.703 1085.5,814.5C 1083.78,851.358 1065.45,875.191 1030.5,886C 989.658,892.006 962.825,875.506 950,836.5C 942.286,804.662 950.119,777.495 973.5,755C 985.609,746.466 998.942,741.633 1013.5,740.5 Z"/></g>
<g><path style="opacity:0.993" fill="#002d5f" d="M 2214.5,662.5 C 2251.36,659.503 2282.86,670.836 2309,696.5C 2325.55,716.466 2334.88,739.466 2337,765.5C 2337.5,829.499 2337.67,893.499 2337.5,957.5C 2307.17,957.5 2276.83,957.5 2246.5,957.5C 2246.67,903.166 2246.5,848.832 2246,794.5C 2240.93,757.746 2220.09,741.913 2183.5,747C 2162.59,752.907 2149.43,766.407 2144,787.5C 2142.02,794.714 2140.69,802.047 2140,809.5C 2139.5,858.832 2139.33,908.166 2139.5,957.5C 2108.83,957.5 2078.17,957.5 2047.5,957.5C 2047.5,862.167 2047.5,766.833 2047.5,671.5C 2078.17,671.5 2108.83,671.5 2139.5,671.5C 2139.33,679.84 2139.5,688.173 2140,696.5C 2160.96,676.603 2185.79,665.27 2214.5,662.5 Z"/></g>
<g><path style="opacity:0.99" fill="#002d5f" d="M 1842.5,663.5 C 1896.63,661.17 1941.8,679.837 1978,719.5C 2010.2,763.178 2018.53,811.178 2003,863.5C 1982.9,916.593 1945.06,949.426 1889.5,962C 1838.69,972.038 1792.36,962.038 1750.5,932C 1708.05,896.025 1689.89,850.191 1696,794.5C 1706.55,730.278 1743.05,688.778 1805.5,670C 1817.82,666.947 1830.16,664.781 1842.5,663.5 Z M 1851.5,740.5 C 1890.65,743.814 1913.82,764.814 1921,803.5C 1924.41,832.635 1914.91,856.468 1892.5,875C 1864.76,892.18 1837.43,891.514 1810.5,873C 1785.97,850.395 1778.14,822.895 1787,790.5C 1798.27,760.466 1819.77,743.8 1851.5,740.5 Z"/></g>
<g><path style="opacity:0.989" fill="#002c5f" d="M 1648.5,667.5 C 1658.17,667.334 1667.84,667.5 1677.5,668C 1679.76,668.236 1681.93,668.736 1684,669.5C 1683.61,699.509 1682.61,729.509 1681,759.5C 1668.05,761.191 1654.89,762.358 1641.5,763C 1605.82,767.681 1582.66,787.181 1572,821.5C 1569.47,830.001 1567.81,838.668 1567,847.5C 1565.64,884.151 1565.14,920.818 1565.5,957.5C 1534.83,957.5 1504.17,957.5 1473.5,957.5C 1473.5,862.167 1473.5,766.833 1473.5,671.5C 1504.17,671.5 1534.83,671.5 1565.5,671.5C 1565.33,689.17 1565.5,706.836 1566,724.5C 1584.4,692.255 1611.9,673.255 1648.5,667.5 Z"/></g>
<g><path style="opacity:0.988" fill="#002d5f" d="M 30.5,670.5 C 62.8402,670.167 95.1735,670.5 127.5,671.5C 149.895,729.287 172.561,786.954 195.5,844.5C 218.291,786.961 240.791,729.295 263,671.5C 295.434,670.171 327.934,670.171 360.5,671.5C 321.167,766.5 281.833,861.5 242.5,956.5C 210.934,957.828 179.434,957.828 148,956.5C 108.14,861.413 68.9735,766.079 30.5,670.5 Z"/></g>
</svg>
