<svg width="1024" height="1024" viewBox="0 0 1024 1024" fill="none" xmlns="http://www.w3.org/2000/svg">
<mask id="mask0_10524_25459" style="mask-type:alpha" maskUnits="userSpaceOnUse" x="67" y="67" width="890" height="890">
<rect x="67" y="67" width="890" height="890" fill="#D9D9D9"/>
</mask>
<g mask="url(#mask0_10524_25459)">
<path d="M765.978 251.088C765.939 263.019 762.43 274.669 755.894 284.564C749.359 294.459 740.092 302.153 729.267 306.671C718.442 311.189 706.546 312.328 695.085 309.945C683.625 307.561 673.116 301.762 664.889 293.281C656.662 284.8 651.088 274.02 648.872 262.305C646.656 250.59 647.899 238.468 652.442 227.473C656.985 216.479 664.624 207.108 674.393 200.546C684.161 193.984 695.619 190.527 707.315 190.613C715.064 190.639 722.731 192.226 729.878 195.282C737.024 198.338 743.508 202.804 748.959 208.422C754.409 214.041 758.718 220.702 761.639 228.024C764.56 235.346 766.034 243.183 765.978 251.088Z" fill="#0A84FF"/>
<path d="M606.098 613.4L606.107 613.406L606.27 613.498L606.278 613.503C616.85 619.513 627.558 625.601 638.482 631.78C637.311 632.347 636.258 632.86 635.294 633.329C632.399 634.738 630.307 635.757 628.209 636.692C620.606 640.218 612.984 643.699 605.361 647.18L605.349 647.186L605.325 647.197L605.319 647.2L605.315 647.202C585.295 656.345 565.275 665.488 545.614 675.428C539.204 678.65 532.556 685.801 530.422 692.583C524.012 712.748 542.549 729.364 563.56 722.826C585.483 716.015 607.344 708.998 629.207 701.981L629.24 701.971C650.564 695.127 671.889 688.282 693.273 681.628C713.88 675.217 726.193 661.421 728.574 640.093C730.822 620.182 721.326 605.298 705.005 594.354C687.576 582.661 670.324 570.693 653.072 558.724C647.896 555.134 642.72 551.543 637.539 547.96C633.698 545.303 629.923 542.544 626.022 539.695L626.017 539.691L626.016 539.69L626.015 539.689L626.004 539.681C624.128 538.31 622.222 536.918 620.267 535.506C625.529 526.403 630.753 517.36 635.951 508.362L636.357 507.658C650.901 482.48 665.237 457.66 679.634 432.925C683.518 426.175 687.318 427.844 691.025 433.569C695.885 441.075 700.8 448.541 705.716 456.007L705.725 456.021L705.729 456.028C712.017 465.579 718.304 475.129 724.474 484.759C730.697 494.488 739.282 500.467 750.497 500.605C784.97 500.995 819.464 501.238 853.917 500.541C870.941 500.193 883.316 485.594 882.819 469.052C882.395 454.812 869.968 444.777 852.364 444.682L850.78 444.674C828.64 444.56 806.5 444.447 784.37 444.756C778.011 444.851 774.004 443.214 770.462 437.309C762.428 423.904 754.183 410.619 745.937 397.333C737.795 384.214 729.652 371.092 721.709 357.851C710.338 338.88 694.174 329.732 672.531 329.732C617.301 329.795 562.072 329.795 506.843 329.732C488.918 329.711 474.803 337.094 464.168 351.651C446.605 375.651 429.073 399.679 411.573 423.735C409.959 425.965 408.319 428.176 406.679 430.387L406.675 430.393C402.14 436.508 397.609 442.618 393.647 449.087C387.279 459.492 388.646 472.358 395.895 479.911C403.526 487.844 415.311 489.714 425.925 483.46C431.081 480.284 435.591 476.128 439.211 471.217C458.776 445.069 478.148 418.777 497.326 392.341C501.065 387.207 504.979 384.461 511.565 384.746C519.038 385.065 526.515 385.014 534.003 384.964H534.011C538.651 384.932 543.294 384.9 547.944 384.957C560.101 385.105 561.458 387.365 555.379 397.929C550.051 407.186 544.614 416.382 539.176 425.577L539.174 425.582C529.118 442.587 519.063 459.592 509.701 476.985C490.336 512.953 504.037 556.178 539.432 575.794C561.52 588.058 583.479 600.542 606.064 613.381L606.095 613.399L606.098 613.4Z" fill="#0A84FF"/>
<path d="M487.513 546.69C486.79 545.459 486 544.115 485.128 542.594C484.168 543.854 483.295 544.952 482.497 545.957C480.986 547.857 479.743 549.422 478.687 551.108C428.649 631.305 378.639 711.519 328.656 791.751C319.937 805.748 322.112 820.378 334.083 828.892C345.443 836.984 359.568 833.994 369.353 821.223C423.872 749.815 478.511 678.502 533.27 607.284C538.562 600.407 537.298 596.953 530.05 593.34C512.518 584.583 499.957 570.618 491.082 553.02C490.059 551.023 488.91 549.068 487.514 546.692L487.513 546.69Z" fill="#0A84FF"/>
<path d="M315.029 566.99C322.895 566.972 330.762 566.953 338.629 566.953C346.745 566.949 354.862 566.969 362.978 566.988H362.98C378.783 567.026 394.585 567.064 410.382 566.932C421.234 566.805 428.369 559.326 428.411 549.566C428.452 539.805 421.742 532.347 411.438 532.347C362.643 532.122 313.852 532.122 265.064 532.347C255.899 532.39 249.779 538.464 248.65 546.988C247.117 558.407 254.926 566.826 267.828 566.953C283.562 567.066 299.295 567.028 315.029 566.99Z" fill="#0A84FF"/>
<path d="M231.253 668.794H303.037C311.704 668.794 317.814 672.671 320.455 681.174C322.723 688.463 320.579 695.023 314.697 699.407C311.364 701.839 307.402 703.217 303.306 703.368C255.457 703.65 207.604 703.702 159.748 703.526C148.357 703.526 140.984 695.931 141.17 685.727C141.357 675.217 148.274 668.942 160.452 668.826C176.898 668.73 193.373 668.752 209.826 668.775H209.844C216.986 668.784 224.123 668.794 231.253 668.794Z" fill="#0A84FF"/>
<path d="M260.963 632.259C268.622 632.252 276.282 632.245 283.941 632.245C295.593 632.245 307.241 632.255 318.889 632.266C330.533 632.277 342.177 632.287 353.82 632.287C366.899 632.255 374.759 625.844 374.863 614.995C374.966 604.146 367.127 597.217 354.152 597.217C307.863 597.132 261.591 597.132 215.336 597.217C202.351 597.238 194.657 604.136 194.853 615.101C195.04 625.738 202.485 632.245 215.005 632.245C230.324 632.287 245.643 632.273 260.963 632.259Z" fill="#0A84FF"/>
</g>
</svg>
