<svg width="638" height="156" viewBox="0 0 638 156" fill="none" xmlns="http://www.w3.org/2000/svg">
<path d="M75.9242 77.6031C75.9242 80.0603 75.782 82.6594 75.4976 85.4002H13.2227C13.6967 93.0556 16.3033 99.0571 21.0427 103.405C25.8768 107.658 31.7062 109.784 38.5308 109.784C44.1232 109.784 48.7678 108.508 52.4645 105.956C56.2559 103.31 58.9099 99.8132 60.4265 95.4656H74.3602C72.2749 102.932 68.1043 109.028 61.8483 113.754C55.5924 118.385 47.8199 120.7 38.5308 120.7C31.1374 120.7 24.5024 119.046 18.6256 115.738C12.8436 112.43 8.29384 107.752 4.9763 101.703C1.65877 95.5602 0 88.4718 0 80.4384C0 72.4049 1.61137 65.3639 4.83412 59.3152C8.05687 53.2664 12.5592 48.6354 18.3412 45.422C24.218 42.1141 30.9479 40.4602 38.5308 40.4602C45.9242 40.4602 52.4644 42.0669 58.1516 45.2803C63.8389 48.4936 68.199 52.9357 71.2322 58.6063C74.3602 64.1825 75.9242 70.5147 75.9242 77.6031ZM62.5592 74.9095C62.5592 69.9949 61.4692 65.7892 59.2891 62.2923C57.109 58.7008 54.1232 56.0073 50.3317 54.2116C46.6351 52.3213 42.5118 51.3762 37.9621 51.3762C31.4218 51.3762 25.8294 53.4555 21.1848 57.614C16.6351 61.7724 14.0284 67.5376 13.3649 74.9095H62.5592Z" fill="black"/>
<path d="M88.1683 80.2966C88.1683 72.3577 89.7797 65.4111 93.0024 59.4569C96.2252 53.4082 100.633 48.7299 106.225 45.422C111.912 42.1141 118.216 40.4602 125.135 40.4602C131.96 40.4602 137.884 41.9251 142.908 44.855C147.931 47.7848 151.675 51.4707 154.14 55.9128V41.7361H167.22V119.424H154.14V104.964C151.581 109.501 147.742 113.281 142.623 116.305C137.6 119.235 131.723 120.7 124.993 120.7C118.074 120.7 111.818 118.999 106.225 115.597C100.633 112.194 96.2252 107.421 93.0024 101.278C89.7797 95.1349 88.1683 88.141 88.1683 80.2966ZM154.14 80.4384C154.14 74.5787 152.955 69.4751 150.585 65.1276C148.216 60.7801 144.993 57.4722 140.917 55.2039C136.936 52.8411 132.528 51.6598 127.694 51.6598C122.86 51.6598 118.453 52.7939 114.472 55.0622C110.491 57.3304 107.315 60.6383 104.946 64.9858C102.576 69.3333 101.391 74.4369 101.391 80.2966C101.391 86.2508 102.576 91.4489 104.946 95.8909C107.315 100.238 110.491 103.594 114.472 105.956C118.453 108.225 122.86 109.359 127.694 109.359C132.528 109.359 136.936 108.225 140.917 105.956C144.993 103.594 148.216 100.238 150.585 95.8909C152.955 91.4489 154.14 86.2981 154.14 80.4384Z" fill="black"/>
<path d="M216.668 120.7C210.696 120.7 205.341 119.708 200.602 117.723C195.862 115.644 192.118 112.808 189.369 109.217C186.621 105.531 185.104 101.325 184.82 96.5998H198.185C198.564 100.475 200.365 103.641 203.587 106.098C206.905 108.555 211.218 109.784 216.526 109.784C221.455 109.784 225.341 108.697 228.185 106.523C231.028 104.35 232.45 101.609 232.45 98.301C232.45 94.8986 230.933 92.394 227.9 90.7874C224.867 89.0862 220.175 87.4322 213.824 85.8255C208.042 84.3133 203.303 82.8012 199.606 81.289C196.004 79.6823 192.877 77.3668 190.222 74.3424C187.663 71.2235 186.384 67.1596 186.384 62.1505C186.384 58.181 187.568 54.5423 189.938 51.2345C192.308 47.9266 195.673 45.3275 200.033 43.4373C204.393 41.4526 209.369 40.4602 214.962 40.4602C223.587 40.4602 230.554 42.6339 235.862 46.9815C241.17 51.329 244.014 57.2832 244.393 64.8441H231.455C231.17 60.7801 229.512 57.5194 226.478 55.0622C223.54 52.6049 219.559 51.3762 214.535 51.3762C209.891 51.3762 206.194 52.3686 203.445 54.3533C200.696 56.3381 199.322 58.9371 199.322 62.1505C199.322 64.7023 200.128 66.8288 201.739 68.53C203.445 70.1367 205.531 71.4598 207.995 72.4995C210.554 73.4446 214.061 74.5314 218.516 75.7601C224.109 77.2723 228.659 78.7844 232.166 80.2966C235.673 81.7143 238.659 83.888 241.123 86.8179C243.682 89.7477 245.009 93.5754 245.104 98.301C245.104 102.554 243.919 106.382 241.55 109.784C239.18 113.186 235.815 115.88 231.455 117.865C227.189 119.755 222.26 120.7 216.668 120.7Z" fill="black"/>
<path d="M330.478 41.7361L283.558 156H270.193L285.549 118.574L254.127 41.7361H268.487L292.942 104.68L317.113 41.7361H330.478Z" fill="black"/>
<path d="M372.289 23.3064V47.4635H411.361V69.9193H372.289V96.1178H416.479V119.424H343.114V0H416.479V23.3064H372.289Z" fill="#2196F3"/>
<path d="M496.501 119.424L471.591 74.3424H464.595V119.424H435.42V0H484.387C493.828 0 501.847 1.64449 508.444 4.93348C515.155 8.22246 520.159 12.759 523.458 18.5431C526.757 24.2137 528.406 30.5649 528.406 37.5965C528.406 45.5354 526.131 52.6238 521.581 58.8615C517.145 65.0992 510.548 69.5223 501.79 72.1309L529.429 119.424H496.501ZM464.595 53.7579H482.681C488.027 53.7579 492.008 52.4537 494.624 49.8451C497.354 47.2366 498.719 43.5507 498.719 38.7873C498.719 34.2508 497.354 30.6783 494.624 28.0698C492.008 25.4613 488.027 24.157 482.681 24.157H464.595V53.7579Z" fill="#2196F3"/>
<path d="M638 38.4471C638 45.3653 636.408 51.7165 633.223 57.5005C630.038 63.1712 625.147 67.7644 618.55 71.2803C611.953 74.7961 603.763 76.554 593.981 76.554H575.896V119.424H546.72V0H593.981C603.536 0 611.611 1.64449 618.208 4.93348C624.806 8.22246 629.754 12.759 633.052 18.5431C636.351 24.3271 638 30.9618 638 38.4471ZM591.763 53.4177C597.336 53.4177 601.488 52.1134 604.218 49.5049C606.948 46.8964 608.313 43.2105 608.313 38.4471C608.313 33.6838 606.948 29.9978 604.218 27.3893C601.488 24.7808 597.336 23.4766 591.763 23.4766H575.896V53.4177H591.763Z" fill="#2196F3"/>
</svg>
