<svg width="418" height="418" viewBox="0 0 418 418" fill="none" xmlns="http://www.w3.org/2000/svg">
<rect width="418" height="418" rx="209" fill="url(#paint0_linear_801_707)"/>
<path d="M87.9824 247C82.1962 247 77.2024 245.857 73.0008 243.57C68.8233 241.259 65.6061 237.974 63.3492 233.714C61.1164 229.429 60 224.338 60 218.441C60 212.713 61.1284 207.706 63.3853 203.422C65.6421 199.113 68.8233 195.768 72.9288 193.385C77.0343 190.978 81.8721 189.774 87.4422 189.774C91.3796 189.774 94.981 190.388 98.2462 191.616C101.511 192.843 104.332 194.66 106.709 197.067C109.086 199.474 110.935 202.447 112.255 205.985C113.576 209.499 114.236 213.531 114.236 218.08V222.485H66.1583V212.231H97.85C97.826 210.354 97.3819 208.681 96.5175 207.213C95.6532 205.745 94.4648 204.601 92.9522 203.783C91.4637 202.94 89.747 202.519 87.8023 202.519C85.8336 202.519 84.0689 202.965 82.5083 203.855C80.9478 204.722 79.7113 205.913 78.799 207.429C77.8866 208.922 77.4065 210.619 77.3584 212.52V222.954C77.3584 225.217 77.8026 227.203 78.6909 228.912C79.5793 230.597 80.8397 231.908 82.4723 232.847C84.1049 233.786 86.0497 234.255 88.3065 234.255C89.8671 234.255 91.2836 234.038 92.5561 233.605C93.8285 233.172 94.9209 232.534 95.8333 231.692C96.7456 230.849 97.4299 229.814 97.886 228.587L114.056 229.056C113.384 232.691 111.907 235.856 109.626 238.552C107.37 241.223 104.404 243.305 100.731 244.798C97.0577 246.266 92.8082 247 87.9824 247Z" fill="white"/>
<path d="M192.208 198.8H174.201C173.961 196.947 173.469 195.274 172.724 193.782C171.98 192.29 170.996 191.014 169.771 189.955C168.547 188.896 167.094 188.089 165.414 187.536C163.757 186.958 161.92 186.669 159.904 186.669C156.326 186.669 153.241 187.548 150.648 189.305C148.079 191.062 146.098 193.601 144.706 196.923C143.337 200.245 142.653 204.264 142.653 208.982C142.653 213.892 143.349 218.008 144.742 221.33C146.158 224.627 148.139 227.118 150.684 228.803C153.253 230.464 156.29 231.295 159.795 231.295C161.764 231.295 163.553 231.042 165.161 230.536C166.794 230.031 168.223 229.297 169.447 228.334C170.696 227.347 171.716 226.156 172.508 224.76C173.325 223.34 173.889 221.739 174.201 219.958L192.208 220.066C191.895 223.34 190.947 226.565 189.362 229.742C187.802 232.919 185.653 235.82 182.916 238.443C180.179 241.043 176.842 243.113 172.904 244.653C168.991 246.194 164.501 246.964 159.435 246.964C152.761 246.964 146.783 245.496 141.501 242.559C136.243 239.599 132.089 235.29 129.04 229.634C125.991 223.977 124.466 217.093 124.466 208.982C124.466 200.846 126.015 193.95 129.112 188.294C132.209 182.638 136.399 178.341 141.681 175.405C146.963 172.468 152.881 171 159.435 171C163.901 171 168.031 171.626 171.824 172.877C175.617 174.105 178.955 175.91 181.836 178.293C184.717 180.652 187.058 183.552 188.858 186.994C190.659 190.436 191.775 194.372 192.208 198.8Z" fill="#20DFBD"/>
<path d="M204.437 172.011H226.513L245.24 217.791H246.104L264.831 172.011H286.907V245.953H269.549V200.533H268.936L251.218 245.484H240.126L222.407 200.281H221.795V245.953H204.437V172.011Z" fill="#20DFBD"/>
<path d="M339.921 194.179C339.681 191.531 338.613 189.473 336.716 188.005C334.843 186.513 332.166 185.767 328.685 185.767C326.38 185.767 324.46 186.068 322.923 186.669C321.386 187.271 320.234 188.102 319.466 189.161C318.697 190.196 318.301 191.387 318.277 192.735C318.229 193.842 318.445 194.817 318.926 195.659C319.43 196.502 320.15 197.248 321.086 197.898C322.047 198.524 323.199 199.077 324.544 199.559C325.888 200.04 327.401 200.461 329.081 200.822L335.42 202.267C339.069 203.061 342.286 204.12 345.071 205.444C347.88 206.768 350.233 208.344 352.13 210.173C354.051 212.003 355.503 214.109 356.487 216.492C357.472 218.875 357.976 221.546 358 224.507C357.976 229.176 356.8 233.184 354.471 236.53C352.142 239.875 348.793 242.439 344.423 244.22C340.077 246.001 334.831 246.892 328.685 246.892C322.515 246.892 317.137 245.965 312.551 244.112C307.965 242.258 304.4 239.442 301.855 235.663C299.31 231.884 298.002 227.106 297.93 221.33H315C315.144 223.713 315.78 225.698 316.909 227.287C318.037 228.876 319.586 230.079 321.554 230.897C323.547 231.716 325.852 232.125 328.469 232.125C330.87 232.125 332.911 231.8 334.591 231.15C336.296 230.5 337.604 229.598 338.517 228.442C339.429 227.287 339.897 225.963 339.921 224.471C339.897 223.075 339.465 221.883 338.625 220.896C337.784 219.886 336.488 219.019 334.735 218.297C333.007 217.551 330.798 216.865 328.109 216.239L320.402 214.434C314.016 212.965 308.986 210.595 305.312 207.321C301.639 204.024 299.814 199.571 299.838 193.962C299.814 189.389 301.039 185.382 303.512 181.94C305.985 178.498 309.406 175.814 313.776 173.888C318.145 171.963 323.127 171 328.721 171C334.435 171 339.393 171.975 343.595 173.924C347.82 175.85 351.097 178.558 353.426 182.048C355.755 185.538 356.944 189.582 356.992 194.179H339.921Z" fill="#20DFBD"/>
<defs>
<linearGradient id="paint0_linear_801_707" x1="0" y1="0" x2="501.209" y2="253.451" gradientUnits="userSpaceOnUse">
<stop stop-color="#333333"/>
<stop offset="1" stop-color="#121212"/>
</linearGradient>
</defs>
</svg>
