<svg width="399" height="319" viewBox="0 0 399 319" fill="none" xmlns="http://www.w3.org/2000/svg">
<path d="M398.601 99.6875H358.741L398.601 0H259.091V139.562H298.951V319L398.601 99.6875Z" fill="#496AEC"/>
<path d="M39.8601 179.438C17.9479 179.438 0 197.392 0 219.313V279.125C0 301.067 17.9479 319 39.8601 319H259.091V179.438H39.8601ZM219.231 279.125H39.8601V219.313H219.231V279.125Z" fill="#496AEC"/>
<path d="M84.6864 234.26H54.8022V264.156H84.6864V234.26Z" fill="#496AEC"/>
<path d="M39.8601 0C17.9479 0 0 17.9546 0 39.875V99.6875C0 121.63 17.9479 139.563 39.8601 139.563H219.231V0H39.8601ZM179.371 99.6875H39.8601V39.875H179.371V99.6875Z" fill="#496AEC"/>
<path d="M84.6864 54.8226H54.8022V84.718H84.6864V54.8226Z" fill="#496AEC"/>
</svg>
