<svg width="470" height="470" viewBox="0 0 470 470" fill="none" xmlns="http://www.w3.org/2000/svg">
<mask id="mask0_6139_10047" style="mask-type:alpha" maskUnits="userSpaceOnUse" x="0" y="0" width="470" height="470">
<rect width="470" height="470" fill="#D9D9D9"/>
</mask>
<g mask="url(#mask0_6139_10047)">
<path d="M87.5172 269.215C87.5172 240.342 93.8883 214.344 106.631 191.219C119.373 168.098 133.809 148.15 149.939 131.377C166.069 114.607 181.542 101.126 196.356 90.9328C211.168 80.7397 220.583 74.1989 224.601 71.3104V118.423C224.601 133.518 229.687 145.453 239.861 154.226C250.038 162.996 261.434 167.381 274.048 167.381C279.953 167.381 285.596 166.303 290.978 164.145C296.364 161.984 301.429 158.606 306.175 154.011L314.796 145.316C334.909 158.521 351.014 176.026 363.113 197.828C375.216 219.635 381.267 243.43 381.267 269.215C381.267 298.564 373.496 324.944 357.953 348.356C342.414 371.768 322.279 389.198 297.548 400.648C303.851 393.693 308.771 385.784 312.309 376.923C315.851 368.061 317.621 358.596 317.621 348.527C317.621 337.606 315.547 327.207 311.399 317.331C307.247 307.454 301.299 298.622 293.553 290.835L234.392 232.951L175.721 290.835C167.76 298.792 161.678 307.624 157.474 317.331C153.267 327.034 151.163 337.433 151.163 348.527C151.163 358.596 152.934 368.061 156.475 376.923C160.013 385.784 164.933 393.693 171.236 400.648C146.505 389.198 126.371 371.768 110.831 348.356C95.2885 324.944 87.5172 298.564 87.5172 269.215ZM234.392 274.037L272.619 311.471C277.678 316.53 281.547 322.184 284.227 328.435C286.907 334.685 288.246 341.382 288.246 348.527C288.246 363.166 283.013 375.637 272.545 385.941C262.078 396.248 249.369 401.402 234.417 401.402C219.462 401.402 206.744 396.248 196.263 385.941C185.78 375.63 180.538 363.156 180.538 348.517C180.538 341.644 181.85 335.044 184.474 328.719C187.098 322.39 190.996 316.641 196.166 311.471L234.392 274.037Z" fill="#E53935"/>
</g>
</svg>
