<svg width="320" height="406" viewBox="0 0 320 406" fill="none" xmlns="http://www.w3.org/2000/svg">
<path d="M314.522 302.93C297.91 259.752 238.752 257.43 253.041 194.675C254.101 190.019 249.124 186.423 245.11 188.852C206.695 211.501 179.08 256.894 202.253 316.363C204.158 321.233 198.443 325.782 194.322 322.603C175.173 308.111 173.161 287.26 174.852 272.34C175.484 266.838 168.291 264.194 165.219 268.743C158.026 279.746 150.727 297.525 150.727 324.294C154.751 383.549 204.801 401.755 222.793 404.078C248.503 407.353 276.332 402.601 296.337 384.287C318.343 363.865 326.392 331.273 314.533 302.909L314.522 302.93ZM216.317 356.159C231.559 352.455 239.384 341.452 241.503 331.712C244.992 316.577 231.345 301.763 240.55 277.852C244.04 297.643 275.155 310.016 275.155 331.605C276 358.374 247.004 381.344 216.317 356.159Z" fill="#E93C39"/>
<path d="M263.745 37.6763H203.837C195.927 15.8198 175.205 0 150.705 0C126.205 0 105.494 15.8198 97.5837 37.6763H37.6763C16.9543 37.6763 0 54.6306 0 75.3526V357.935C0 378.657 16.9543 395.612 37.6763 395.612H152.782C141.671 384.876 132.627 372.064 126.034 357.935H37.6763V75.3526H263.745V171.052C277.124 172.936 289.743 176.897 301.421 182.355V75.3526C301.421 54.6306 284.467 37.6763 263.745 37.6763Z" fill="#262626"/>
</svg>
