<svg width="300" height="300" viewBox="0 0 300 300" fill="none" xmlns="http://www.w3.org/2000/svg">
<g clip-path="url(#clip0_7_47)">
<path d="M150 0C67.16 0 0 67.16 0 150C0 232.84 67.16 300 150 300C232.84 300 300 232.84 300 150C300 67.16 232.84 0 150 0ZM244.47 244.47C232.19 256.75 217.9 266.38 202 273.11C192.93 276.94 183.55 279.73 173.94 281.47C174.23 280.03 174.38 278.55 174.38 277.03C174.38 264.53 164.25 254.41 151.76 254.41C139.27 254.41 129.14 264.54 129.14 277.03C129.14 278.77 129.34 280.46 129.71 282.08C118.82 280.43 108.22 277.43 98.01 273.11C82.1 266.38 67.81 256.75 55.54 244.47C43.25 232.2 33.62 217.91 26.89 202C22.94 192.66 20.1 183 18.38 173.08C19.95 173.42 21.57 173.61 23.24 173.61C35.74 173.61 45.86 163.48 45.86 150.99C45.86 138.5 35.73 128.37 23.24 128.37C21.45 128.37 19.71 128.58 18.05 128.98C19.73 118.35 22.68 107.99 26.9 98.01C33.63 82.1 43.26 67.81 55.54 55.54C67.8 43.25 82.09 33.62 98 26.89C107.72 22.78 117.79 19.88 128.13 18.18C127.8 19.73 127.62 21.33 127.62 22.98C127.62 35.48 137.75 45.6 150.24 45.6C162.73 45.6 172.86 35.47 172.86 22.98C172.86 21.36 172.69 19.79 172.36 18.27C182.52 19.98 192.43 22.86 201.99 26.9C217.9 33.63 232.19 43.26 244.46 55.54C256.75 67.8 266.38 82.09 273.11 98C277.19 107.66 280.09 117.67 281.79 127.94C280.17 127.57 278.49 127.37 276.76 127.37C264.26 127.37 254.14 137.5 254.14 149.99C254.14 162.48 264.27 172.61 276.76 172.61C278.49 172.61 280.17 172.41 281.79 172.04C280.09 182.31 277.19 192.33 273.11 201.98C266.38 217.91 256.75 232.2 244.47 244.47Z" fill="#0068E0"/>
<path d="M94.2588 109.52C105.801 104.739 111.282 91.5065 106.501 79.9645C101.72 68.4226 88.4874 62.9417 76.9454 67.7226C65.4035 72.5035 59.9225 85.7359 64.7035 97.2779C69.4844 108.82 82.7168 114.301 94.2588 109.52Z" fill="#0068E0"/>
<path d="M211.87 107.22C224.363 107.22 234.49 97.0927 234.49 84.6C234.49 72.1073 224.363 61.98 211.87 61.98C199.377 61.98 189.25 72.1073 189.25 84.6C189.25 97.0927 199.377 107.22 211.87 107.22Z" fill="#0068E0"/>
<path d="M235.135 222.746C241.702 212.119 238.411 198.179 227.783 191.612C217.156 185.045 203.216 188.336 196.649 198.964C190.082 209.591 193.373 223.53 204 230.098C214.628 236.665 228.567 233.374 235.135 222.746Z" fill="#0068E0"/>
<path d="M105.611 230.885C114.444 222.052 114.444 207.73 105.611 198.896C96.7773 190.063 82.4553 190.063 73.6217 198.896C64.7881 207.73 64.7881 222.052 73.6217 230.885C82.4553 239.719 96.7773 239.719 105.611 230.885Z" fill="#0068E0"/>
<path d="M150.73 171.99C163.013 171.99 172.97 162.033 172.97 149.75C172.97 137.467 163.013 127.51 150.73 127.51C138.447 127.51 128.49 137.467 128.49 149.75C128.49 162.033 138.447 171.99 150.73 171.99Z" fill="#0068E0"/>
</g>
<defs>
<clipPath id="clip0_7_47">
<rect width="300" height="300" fill="white"/>
</clipPath>
</defs>
</svg>
