<svg width="433" height="433" viewBox="0 0 433 433" fill="none" xmlns="http://www.w3.org/2000/svg">
<path d="M0 195.955C0 130.459 0 97.7112 15.9148 72.3691C28.8247 51.812 53.522 33.5689 76.9659 27.2727C105.867 19.5109 134.057 28.181 190.436 45.5212C306.636 81.2599 433 138.139 433 216.5C433 294.861 306.636 351.74 190.436 387.479C134.057 404.819 105.867 413.489 76.9659 405.727C53.522 399.431 28.8247 381.188 15.9148 360.631C0 335.289 0 302.541 0 237.045V195.955Z" fill="#D0E2F6"/>
<path d="M52.3674 267.296C47.5273 215.517 88.7096 171.138 140.536 175.442C227.466 182.66 341.779 199.768 345.529 239.892C349.28 280.016 240.119 318.014 156.032 341.218C105.901 355.052 57.2075 319.075 52.3674 267.296Z" fill="#007AFF"/>
</svg>
