<?xml version="1.0" encoding="utf-8"?>
<!-- Generator: Adobe Illustrator 24.1.1, SVG Export Plug-In . SVG Version: 6.00 Build 0)  -->
<svg version="1.1" id="Layer_1" xmlns="http://www.w3.org/2000/svg" xmlns:xlink="http://www.w3.org/1999/xlink" x="0px" y="0px"
	 viewBox="0 0 512 512" style="enable-background:new 0 0 512 512;" xml:space="preserve">
<style type="text/css">
	.st0{fill:#E44D26;}
	.st1{fill:#F16529;}
	.st2{fill:#EBEBEB;}
	.st3{fill:#FFFFFF;}
</style>
<g>
	<polygon class="st0" points="437.4,100.6 404.3,470.8 255.8,512 107.6,470.9 74.6,100.6 	"/>
	<polygon class="st1" points="256,480.5 376,447.2 404.3,130.9 256,130.9 	"/>
	<polygon class="st2" points="191.8,221.7 256,221.7 256,176.3 142.1,176.3 143.2,188.5 154.4,313.6 256,313.6 256,268.2 
		195.9,268.2 	"/>
	<polygon class="st2" points="202,336.3 156.4,336.3 162.8,407.6 255.8,433.5 256,433.4 256,386.2 255.8,386.2 205.2,372.5 	"/>
	<polygon points="108.4,0 131.5,0 131.5,22.8 152.6,22.8 152.6,0 175.6,0 175.6,69 152.6,69 152.6,45.9 131.5,45.9 131.5,69 
		108.4,69 108.4,0 	"/>
	<polygon points="206,22.9 185.7,22.9 185.7,0 249.4,0 249.4,22.9 229.1,22.9 229.1,69 206,69 206,22.9 	"/>
	<polygon points="259.5,0 283.6,0 298.4,24.3 313.2,0 337.2,0 337.2,69 314.3,69 314.3,34.8 298.4,59.4 298,59.4 282.1,34.8 
		282.1,69 259.5,69 	"/>
	<polygon points="348.7,0 371.8,0 371.8,46.2 404.3,46.2 404.3,69 348.7,69 	"/>
	<polygon class="st3" points="255.8,313.6 311.8,313.6 306.5,372.5 255.8,386.2 255.8,433.4 348.9,407.6 349.6,400 360.3,280.4 
		361.4,268.2 255.8,268.2 	"/>
	<polygon class="st3" points="255.8,221.6 255.8,221.7 365.5,221.7 366.4,211.5 368.5,188.5 369.6,176.3 255.8,176.3 	"/>
</g>
</svg>
