<svg viewBox="0 0 249 49" version="1.1" xmlns="http://www.w3.org/2000/svg" xmlns:xlink="http://www.w3.org/1999/xlink">
    <defs>
        <linearGradient x1="-1.81458987%" y1="50.0305269%" x2="785.113244%" y2="50.0305269%" id="linearGradient-1">
            <stop stop-color="#2E2AB1" offset="0%"></stop>
            <stop stop-color="#1A36D8" offset="100%"></stop>
        </linearGradient>
        <linearGradient x1="-333.895853%" y1="50.0004044%" x2="843.346191%" y2="50.0004044%" id="linearGradient-2">
            <stop stop-color="#2E2AB1" offset="0%"></stop>
            <stop stop-color="#1A36D8" offset="100%"></stop>
        </linearGradient>
        <linearGradient x1="-269.511494%" y1="50%" x2="432.097701%" y2="50%" id="linearGradient-3">
            <stop stop-color="#2E2AB1" offset="0%"></stop>
            <stop stop-color="#1A36D8" offset="100%"></stop>
        </linearGradient>
        <linearGradient x1="-484.818568%" y1="50.0951861%" x2="239.735634%" y2="50.0951861%" id="linearGradient-4">
            <stop stop-color="#2E2AB1" offset="0%"></stop>
            <stop stop-color="#1A36D8" offset="100%"></stop>
        </linearGradient>
        <linearGradient x1="-608.767432%" y1="49.9694276%" x2="128.645059%" y2="49.9694276%" id="linearGradient-5">
            <stop stop-color="#2E2AB1" offset="0%"></stop>
            <stop stop-color="#1A36D8" offset="100%"></stop>
        </linearGradient>
        <linearGradient x1="-116.350287%" y1="50.005115%" x2="706.284855%" y2="50.005115%" id="linearGradient-6">
            <stop stop-color="#2E2AB1" offset="0%"></stop>
            <stop stop-color="#1A36D8" offset="100%"></stop>
        </linearGradient>
        <linearGradient x1="-434.502093%" y1="50.0055909%" x2="388.127107%" y2="50.0055909%" id="linearGradient-7">
            <stop stop-color="#2E2AB1" offset="0%"></stop>
            <stop stop-color="#1A36D8" offset="100%"></stop>
        </linearGradient>
        <linearGradient x1="-2066.42684%" y1="50.0465726%" x2="60.4551548%" y2="50.0465726%" id="linearGradient-8">
            <stop stop-color="#2E2AB1" offset="0%"></stop>
            <stop stop-color="#1A36D8" offset="100%"></stop>
        </linearGradient>
    </defs>
    <g id="Normal-white-nobg" stroke="none" stroke-width="1" fill="none" fill-rule="evenodd">
        <g id="Normal-white" fill-rule="nonzero">
            <path d="M31.8,23.52 C30.9513726,26.1619937 29.3574541,28.5025189 27.21,30.26 C24.2705008,32.5813915 20.6034788,33.7860171 16.86,33.66 C13.9592373,33.7052501 11.094011,33.0173206 8.53,31.66 C6.1261351,30.3629562 4.14973329,28.3969747 2.84,26 C1.41929562,23.3279889 0.709893478,20.3354139 0.78,17.31 C0.695196188,14.280641 1.38350565,11.2796117 2.78,8.59 C4.08209729,6.1847711 6.06020117,4.21362013 8.47,2.92 C11.0456994,1.56506321 13.9199708,0.877438471 16.83,0.92 C20.5734788,0.793982897 24.2405008,1.9986085 27.18,4.32 C29.2050486,5.97120718 30.737491,8.14706784 31.61,10.61 L22.12,13.7 C21.8801854,12.4436254 21.2122693,11.3092283 20.23,10.49 C19.1989546,9.70316683 17.9260201,9.30007091 16.63,9.35 C14.9809607,9.3135909 13.4106807,10.054289 12.39,11.35 C11.1776771,13.0758643 10.5951581,15.1658718 10.74,17.27 C10.5951581,19.3741282 11.1776771,21.4641357 12.39,23.19 C13.4106807,24.485711 14.9809607,25.2264091 16.63,25.19 C17.9260201,25.2399291 19.1989546,24.8368332 20.23,24.05 C21.2122693,23.2307717 21.8801854,22.0963746 22.12,20.84" id="Path" fill="url(#linearGradient-1)"></path>
            <path d="M83.93,2.91 C85.8219037,1.77061854 87.991544,1.17543812 90.2,1.18973906 L90.2,11.66 L87.39,11.66 C85.2613734,11.5337842 83.1510537,12.1176393 81.39,13.32 C79.9566667,14.42 79.24,16.2866667 79.24,18.92 L79.24,29.45 C79.24,31.659139 77.449139,33.45 75.24,33.45 L69.46,33.45 L69.46,1.53 L79.24,1.53 L79.24,7.53 C80.408975,5.63518475 82.0178214,4.05035102 83.93,2.91 L83.93,2.91 Z" id="Path" fill="url(#linearGradient-2)"></path>
            <path d="M111.47,23.71 L117.52,4.16 C118.037392,2.48418081 119.586129,1.34087218 121.34,1.34 L128.8,1.34 L117.48,33.26 L105.35,33.26 L94,1.34 L101.48,1.34 C103.224745,1.34251161 104.766578,2.47561679 105.29,4.14 L111.47,23.71 Z" id="Path" fill="url(#linearGradient-3)"></path>
            <path d="M183.67,2.6 C185.39619,3.67597462 186.753211,5.2527711 187.56,7.12 L187.56,1.34 L193.28,1.34 C195.489139,1.34 197.28,3.130861 197.28,5.34 L197.28,33.09 C197.320293,35.8525505 196.732145,38.5881238 195.56,41.09 C194.420657,43.4763286 192.587316,45.4630287 190.3,46.79 C187.609524,48.2805596 184.563813,49.0100092 181.49,48.9 C176.69,48.9 172.85,47.7666667 169.97,45.5 C167.087174,43.2280705 165.224079,39.9047117 164.79,36.26 L174.46,36.26 C174.733184,37.4940331 175.48015,38.5713884 176.54,39.26 C177.822785,40.0410254 179.309816,40.4206186 180.81,40.35 C182.606849,40.4333525 184.364039,39.804501 185.7,38.6 C186.94,37.44 187.56,35.5833333 187.56,33.03 L187.56,27.48 C186.753211,29.3472289 185.39619,30.9240254 183.67,32 C181.77258,33.1458911 179.585719,33.7221117 177.37,33.66 C174.873439,33.6851115 172.422455,32.9907816 170.31,31.66 C168.163694,30.2638137 166.457619,28.2872634 165.39,25.96 C164.136535,23.2380489 163.5209,20.2659 163.59,17.27 C163.515598,14.2639589 164.131372,11.2808743 165.39,8.55 C166.463729,6.23465118 168.169089,4.26932862 170.31,2.88 C172.422455,1.54921843 174.873439,0.854888544 177.37,0.88 C179.591665,0.835913298 181.778959,1.43307928 183.67,2.6 L183.67,2.6 Z M175.46,11.6 C174.103566,13.1861711 173.415289,15.2366614 173.54,17.32 C173.425772,19.3897888 174.113397,21.4240129 175.46,23 C178.257766,25.786811 182.782234,25.786811 185.58,23 C186.956078,21.4444621 187.673291,19.4147493 187.58,17.34 C187.688772,15.2539457 186.970064,13.2092225 185.58,11.65 C182.773289,8.88492679 178.266711,8.88492679 175.46,11.65 L175.46,11.6 Z" id="Shape" fill="url(#linearGradient-4)"></path>
            <path d="M226.85,2.91 C229.316295,4.20545041 231.360156,6.17990993 232.74,8.6 C234.213414,11.2584462 234.952072,14.2613999 234.88,17.3 C234.957425,20.3391821 234.218426,23.3435214 232.74,26 C231.363455,28.4251719 229.318989,30.4036873 226.85,31.7 C221.486061,34.3195069 215.213939,34.3195069 209.85,31.7 C207.366245,30.4134845 205.309609,28.433278 203.93,26 C202.44983,23.3474381 201.707422,20.3467284 201.78,17.31 C201.710982,14.2704873 202.453105,11.2674766 203.93,8.61 C205.312961,6.18183957 207.368972,4.20570779 209.85,2.92 C215.213939,0.300493148 221.486061,0.300493148 226.85,2.92 L226.85,2.91 Z M213.63,11.44 C212.250993,13.0685961 211.562111,15.1711239 211.71,17.3 C211.560396,19.4199617 212.249961,21.5137974 213.63,23.13 C214.846483,24.4387585 216.563562,25.1663342 218.35,25.13 C220.128559,25.1706541 221.83811,24.4416348 223.04,23.13 C224.401705,21.5050218 225.079315,19.4148286 224.93,17.3 C225.065603,15.1709734 224.374225,13.0717624 223,11.44 C221.802019,10.1228542 220.08983,9.39270967 218.31,9.44 C216.53591,9.40744065 214.832628,10.1353389 213.63,11.44 L213.63,11.44 Z" id="Shape" fill="url(#linearGradient-5)"></path>
            <path d="M36.07,10.62 C36.363144,8.92860204 37.0480757,7.32928649 38.07,5.95 C39.3048902,4.32618476 40.9518713,3.06246339 42.84,2.29 C45.2002017,1.33117831 47.733394,0.87152648 50.28,0.94 C52.2038115,0.921230951 54.121283,1.16343787 55.98,1.66 C57.5938386,2.08931672 59.1178492,2.80390836 60.48,3.77 C61.7008065,4.63748433 62.7065541,5.77322646 63.42,7.09 C64.1170435,8.45318398 64.4608765,9.96948721 64.42,11.5 L64.42,29.16 C64.42,31.369139 62.629139,33.16 60.42,33.16 L54.67,33.16 L54.67,28.71 L54.42,28.71 C53.871968,29.7749908 53.121255,30.7227235 52.21,31.5 C51.3003743,32.2506109 50.2497508,32.8116234 49.12,33.15 C47.8458658,33.5333724 46.5204272,33.7188664 45.19,33.7 C43.3404271,33.7410332 41.5022286,33.4006261 39.79,32.7 C38.2761526,32.057079 36.9880732,30.9778774 36.09,29.6 C35.1450519,28.0200647 34.679515,26.1996071 34.75,24.36 C34.705929,22.8220414 35.0209285,21.2949785 35.67,19.9 C36.2502208,18.6988799 37.1280447,17.6661458 38.22,16.9 C39.3713576,16.1106367 40.6500388,15.5254202 42,15.17 C43.4879534,14.758105 45.0113136,14.4869134 46.55,14.36 C48.36,14.21 49.82,14.03 50.92,13.84 C51.7711965,13.7427244 52.5905657,13.4593592 53.32,13.01 C53.808753,12.674619 54.0917711,12.1123563 54.07,11.52 L54.07,11.44 C54.1221949,10.5197563 53.7229642,9.63174783 53,9.06 C52.1636807,8.46889825 51.1527279,8.1765321 50.13,8.23 C49.0325989,8.17674036 47.946765,8.47446902 47.03,9.08 C46.2403032,9.63821528 45.7044129,10.487008 45.54,11.44 L45.45,11.91 L36.07,10.62 Z M48.48,27 C49.4606755,27.0135062 50.4305651,26.7941672 51.31,26.36 C52.1423238,25.9556648 52.8555455,25.342363 53.38,24.58 C53.9010657,23.7884829 54.1695712,22.8574311 54.15,21.91 L54.15,18.92 C53.8234489,19.0697004 53.4897097,19.2031961 53.15,19.32 C52.7261235,19.4581655 52.2955824,19.574979 51.86,19.67 C51.4,19.77 50.92,19.87 50.43,19.95 L48.99,20.18 C48.1622287,20.2839731 47.3558151,20.5167871 46.6,20.87 C46.0177527,21.1462808 45.5153381,21.5661067 45.14,22.09 C44.8036307,22.6030052 44.6326142,23.2067982 44.65,23.82 C44.5939424,24.729117 45.0000333,25.6052205 45.73,26.15 C46.5295509,26.7254313 47.4951998,27.0239046 48.48,27 L48.48,27 Z" id="Shape" fill="url(#linearGradient-6)"></path>
            <path d="M130.5,10.62 C130.793144,8.92860204 131.478076,7.32928649 132.5,5.95 C133.73489,4.32618476 135.381871,3.06246339 137.27,2.29 C139.629713,1.32949817 142.163261,0.869781884 144.71,0.94 C146.633812,0.921230951 148.551283,1.16343787 150.41,1.66 C152.022523,2.09292176 153.545919,2.80722493 154.91,3.77 C156.130807,4.63748433 157.136554,5.77322646 157.85,7.09 C158.542651,8.4547729 158.886228,9.96994844 158.85,11.5 L158.85,29.16 C158.85,31.369139 157.059139,33.16 154.85,33.16 L149.1,33.16 L149.1,28.71 L148.85,28.71 C148.301883,29.7777214 147.547306,30.7260412 146.63,31.5 C145.725325,32.2523978 144.677579,32.8136902 143.55,33.15 C142.272258,33.5325374 140.943655,33.7180022 139.61,33.7 C137.763665,33.7410897 135.92872,33.4006547 134.22,32.7 C132.706153,32.057079 131.418073,30.9778774 130.52,29.6 C129.570719,28.0218725 129.104847,26.200101 129.18,24.36 C129.131073,22.8216199 129.446302,21.2934441 130.1,19.9 C130.679648,18.7014901 131.553503,17.6693782 132.64,16.9 C133.786695,16.1129086 135.057824,15.5246731 136.4,15.16 C137.891354,14.748122 139.418031,14.476936 140.96,14.35 C142.77,14.2 144.22,14.02 145.33,13.83 C146.180056,13.7277393 146.998383,13.4447348 147.73,13 C148.218753,12.664619 148.501771,12.1023563 148.48,11.51 L148.48,11.43 C148.532195,10.5097563 148.132964,9.62174783 147.41,9.05 C146.573,8.46031485 145.562548,8.16809344 144.54,8.22 C143.442445,8.16533509 142.356181,8.46318167 141.44,9.07 C140.666895,9.63978791 140.149509,10.4913183 140,11.44 L139.91,11.91 L130.5,10.62 Z M142.9,27 C143.884005,27.0147114 144.857418,26.7953508 145.74,26.36 C146.57124,25.9581292 147.281799,25.3441512 147.8,24.58 C148.328709,23.7915401 148.601112,22.8590818 148.58,21.91 L148.58,18.92 C148.253958,19.0708854 147.920158,19.2044056 147.58,19.32 C147.159897,19.459466 146.732617,19.5763005 146.3,19.67 C145.84,19.77 145.36,19.87 144.87,19.95 L143.43,20.18 C142.602229,20.2839731 141.795815,20.5167871 141.04,20.87 C140.457753,21.1462808 139.955338,21.5661067 139.58,22.09 C139.240105,22.6018573 139.065573,23.2057374 139.08,23.82 C139.028087,24.7306066 139.437722,25.6062468 140.17,26.15 C140.963722,26.7219316 141.921895,27.0202637 142.9,27 L142.9,27 Z" id="Shape" fill="url(#linearGradient-7)"></path>
            <path d="M237.43,27.77 C237.517268,24.5711627 240.170678,22.0428299 243.37,22.11 C246.46603,22.2388615 248.909636,24.78629 248.909636,27.885 C248.909636,30.98371 246.46603,33.5311385 243.37,33.66 C241.796801,33.6815005 240.28104,33.0694803 239.163825,31.9616691 C238.046609,30.8538578 237.421798,29.3433241 237.43,27.77 Z" id="Path" fill="url(#linearGradient-8)"></path>
        </g>
    </g>
</svg>