<?xml version="1.0" encoding="UTF-8"?><svg id="a" xmlns="http://www.w3.org/2000/svg" viewBox="0 0 259 60"><defs><style>.b,.c{fill:#192550;}.c,.d{fill-rule:evenodd;}.d{fill:#ff7558;}</style></defs><path class="b" d="M108.99,.01l-.02,46.7h6.54V27.5c0-3.29,2.06-6.25,5.22-7.51l.24-.1c2-.8,4.26-.76,6.24,.1,2.81,1.22,4.62,3.91,4.62,6.88v19.84h6.53V26.87c0-5.43-3.31-10.36-8.46-12.59-3.62-1.57-7.75-1.64-11.42-.18l-.24,.1c-.97,.39-1.89,.86-2.73,1.42V.01h-6.52Z"/><path class="b" d="M57.81,19.99c-1.98-.86-4.23-.89-6.23-.1l-.24,.1c-3.16,1.26-5.22,4.22-5.22,7.51v19.21h-6.54V14.22h6.53v1.41c.85-.56,1.77-1.04,2.74-1.43l.24-.1c3.67-1.46,7.8-1.4,11.42,.18,5.15,2.24,8.46,7.16,8.46,12.59v19.84h-6.53V26.87c0-2.97-1.81-5.66-4.62-6.88Z"/><path class="b" d="M25.18,46.58V14.22h6.53V46.58h-6.53Z"/><path class="c" d="M172.03,14.22v2.52c-3.01-2.34-6.85-3.75-11.03-3.75-9.7,0-17.56,7.56-17.56,16.88s7.86,16.88,17.56,16.88c4.18,0,8.02-1.4,11.03-3.75v3.58h6.53V14.22h-6.53Zm-11.03,5.05c-6.09,0-11.03,4.75-11.03,10.6s4.94,10.6,11.03,10.6,11.03-4.75,11.03-10.6-4.94-10.6-11.03-10.6Z"/><path class="c" d="M202.35,12.99c-9.7,0-17.56,7.56-17.56,16.88v29.81h6.53v-16.68c3.01,2.34,6.85,3.75,11.03,3.75,9.7,0,17.56-7.56,17.56-16.88s-7.86-16.88-17.56-16.88Zm-11.03,16.88c0-5.86,4.94-10.6,11.03-10.6s11.03,4.75,11.03,10.6-4.94,10.6-11.03,10.6-11.03-4.75-11.03-10.6Z"/><path class="c" d="M230.39,32.98c1.39,4.32,5.58,7.46,10.53,7.46,2.96,0,5.63-1.11,7.62-2.94l4.51,4.53c-3.15,2.89-7.43,4.67-12.13,4.67-9.69,0-17.55-7.55-17.55-16.87s7.86-16.87,17.55-16.87,17.55,7.55,17.55,16.87h0v3.13h-28.08Zm0-6.27h21.07c-1.39-4.32-5.58-7.46-10.53-7.46s-9.14,3.14-10.53,7.46Z"/><path class="b" d="M84.21,19.12c-1.61,0-2.92,1.26-2.92,2.81,0,1.26,.88,2.37,2.15,2.71l12.43,3.28c4.34,1.14,7.35,4.93,7.35,9.26,0,5.3-4.47,9.6-9.99,9.6h-6.88c-6.92,0-12.52-5.39-12.52-12.04h6.53c0,3.18,2.68,5.76,6,5.76h6.88c1.91,0,3.46-1.49,3.46-3.33,0-1.5-1.04-2.81-2.54-3.21l-12.43-3.28c-4.1-1.08-6.95-4.67-6.95-8.76,0-5.01,4.23-9.08,9.44-9.08h7.87c6.05,0,10.95,4.71,10.95,10.53h-6.53c0-2.35-1.98-4.25-4.43-4.25h-7.87Z"/><path class="b" d="M18.65,22.73h-5.92v23.84H6.21V22.73H.3v-6.27H6.21v-4.47C6.21,5.39,11.78,.04,18.65,.04V6.31c-3.27,0-5.91,2.54-5.91,5.68v4.47h5.91v6.27Z"/><path class="d" d="M25.18,6.29V.01h6.53V6.29h-6.53Z"/></svg>