<svg id="Vrstva_1" data-name="Vrstva 1" xmlns="http://www.w3.org/2000/svg" viewBox="0 0 400 135"><defs><style>.cls-1{fill:#2b96e0;}.cls-2{fill:#19527a;}.cls-3{fill:#19547c;}</style></defs><path class="cls-1" d="M222.87,31.49H206.73V25.12h39.09v6.37H229.68V75.24h-6.8Z"/><path class="cls-1" d="M253,25.12h32.35v6.37H259.79V46.42h23.83V52.8H259.79V68.87h26.84v6.37H253Z"/><path class="cls-1" d="M314.14,25.12h6.18l21.45,50.12h-7.94l-5-12.35H305l-5,12.35h-7.94Zm12.18,31.77L317,33.9h-.17l-9.46,23Z"/><path class="cls-1" d="M347.75,25.12h10.12l15.93,38h.28l15.79-37.95H400V75.24h-6.79V34.07h-.15L376.15,75.24h-4.53L354.73,34.07h-.14V75.24H347.8Z"/><path class="cls-2" d="M3.53,109.54H.11v-2.31H9.5v2.31H6.12v9.56H3.53Z"/><path class="cls-2" d="M35.24,107.23h8.07v2.42H37.86v2.21H43v2.42H37.86v2.42h5.75v2.42H35.24Z"/><path class="cls-2" d="M77.79,110.31a2.58,2.58,0,0,0-1-.72,3.05,3.05,0,0,0-1.3-.26,3.24,3.24,0,0,0-2.45,1.09,3.61,3.61,0,0,0-.73,1.22,4.59,4.59,0,0,0,0,3.06,3.89,3.89,0,0,0,.71,1.21,3.35,3.35,0,0,0,1.07.79,3.26,3.26,0,0,0,2.75,0,2.87,2.87,0,0,0,1-.94l2.18,1.63a4.65,4.65,0,0,1-1.92,1.56,5.91,5.91,0,0,1-2.38.5,7.54,7.54,0,0,1-2.57-.43,6,6,0,0,1-2-1.26,5.73,5.73,0,0,1-1.33-2,7.17,7.17,0,0,1,0-5.16,5.67,5.67,0,0,1,1.33-2,6.12,6.12,0,0,1,2-1.26,7.54,7.54,0,0,1,2.57-.43,6.2,6.2,0,0,1,1,.09,5.74,5.74,0,0,1,1.08.29,4.66,4.66,0,0,1,1,.54,3.82,3.82,0,0,1,.88.82Z"/><path class="cls-2" d="M105.81,107.23h2.65v4.41h5.08v-4.41h2.65V119.1h-2.65V114h-5.08v5.13h-2.65Z"/><path class="cls-2" d="M142.85,107.23h3.53l5.05,8.25h0v-8.25h2.65V119.1h-3.42l-5.18-8.45h0v8.45h-2.65Z"/><path class="cls-2" d="M180.19,113.16a6.71,6.71,0,0,1,.48-2.58,5.54,5.54,0,0,1,1.33-2,5.75,5.75,0,0,1,2-1.25,7.66,7.66,0,0,1,5.13,0,5.8,5.8,0,0,1,2,1.25,5.56,5.56,0,0,1,1.34,2,7.28,7.28,0,0,1,0,5.16,5.75,5.75,0,0,1-1.34,2,6,6,0,0,1-2,1.25,7.78,7.78,0,0,1-5.13,0,5.9,5.9,0,0,1-2-1.25,5.72,5.72,0,0,1-1.33-2A6.71,6.71,0,0,1,180.19,113.16Zm2.72,0a4.52,4.52,0,0,0,.25,1.54,3.62,3.62,0,0,0,.75,1.21,3.46,3.46,0,0,0,1.17.79,4.17,4.17,0,0,0,3,0,3.46,3.46,0,0,0,1.17-.79,3.62,3.62,0,0,0,.75-1.21,4.59,4.59,0,0,0,0-3.06,3.56,3.56,0,0,0-.75-1.22,3.35,3.35,0,0,0-1.17-.8,4.17,4.17,0,0,0-3,0,3.35,3.35,0,0,0-1.17.8,3.56,3.56,0,0,0-.75,1.22A4.33,4.33,0,0,0,182.91,113.16Z"/><path class="cls-2" d="M219.19,107.23h2.65v9.46h4.84v2.42h-7.49Z"/><path class="cls-2" d="M251.77,113.16a6.71,6.71,0,0,1,.48-2.58,5.54,5.54,0,0,1,1.33-2,5.84,5.84,0,0,1,2-1.25,7.66,7.66,0,0,1,5.13,0,5.94,5.94,0,0,1,2,1.25,5.67,5.67,0,0,1,1.33,2,7.17,7.17,0,0,1,0,5.16,5.86,5.86,0,0,1-1.33,2,6.1,6.1,0,0,1-2,1.25,7.78,7.78,0,0,1-5.13,0,5.9,5.9,0,0,1-2-1.25,5.72,5.72,0,0,1-1.33-2A6.71,6.71,0,0,1,251.77,113.16Zm2.72,0a4.3,4.3,0,0,0,.26,1.54,3.46,3.46,0,0,0,.75,1.21,3.32,3.32,0,0,0,1.16.79,4.2,4.2,0,0,0,3,0,3.52,3.52,0,0,0,1.16-.79,3.46,3.46,0,0,0,.75-1.21,4.59,4.59,0,0,0,0-3.06,3.44,3.44,0,0,0-1.91-2,4.2,4.2,0,0,0-3,0,3.22,3.22,0,0,0-1.16.8,3.28,3.28,0,0,0-.75,1.22A4.12,4.12,0,0,0,254.49,113.16Z"/><path class="cls-2" d="M301.42,118.26a9.62,9.62,0,0,1-2.42.88,12.4,12.4,0,0,1-2.57.27,7.54,7.54,0,0,1-2.57-.43,6,6,0,0,1-2-1.26,5.59,5.59,0,0,1-1.33-2,7.2,7.2,0,0,1,0-5.17,5.59,5.59,0,0,1,1.33-2,6,6,0,0,1,2-1.26,7.54,7.54,0,0,1,2.57-.43,9.88,9.88,0,0,1,2.65.34,5.24,5.24,0,0,1,2.1,1.19l-1.85,2a3.53,3.53,0,0,0-1.21-.88,4.32,4.32,0,0,0-1.67-.29,4,4,0,0,0-1.52.29,3.32,3.32,0,0,0-1.16.79,3.5,3.5,0,0,0-.75,1.22,4.59,4.59,0,0,0,0,3.06,3.46,3.46,0,0,0,.75,1.21,3.32,3.32,0,0,0,1.16.79,4,4,0,0,0,1.52.29,4.88,4.88,0,0,0,1.47-.2,5.26,5.26,0,0,0,1-.4v-1.92h-2.13V112h4.65Z"/><path class="cls-2" d="M328,107.23h2.64V119.1H328Z"/><path class="cls-2" d="M357.38,107.23h8.06v2.42H360v2.21h5.14v2.42H360v2.42h5.75v2.42h-8.4Z"/><path class="cls-2" d="M398,110.13a1.91,1.91,0,0,0-.88-.6,3.29,3.29,0,0,0-1-.19,3.07,3.07,0,0,0-.6.07,3,3,0,0,0-.57.21,1.21,1.21,0,0,0-.43.38.92.92,0,0,0-.17.58,1,1,0,0,0,.41.82,3.75,3.75,0,0,0,1,.48c.41.14.85.27,1.32.41a5.26,5.26,0,0,1,1.31.57,3.22,3.22,0,0,1,1,1,3,3,0,0,1,.4,1.66,3.82,3.82,0,0,1-.37,1.76,3.4,3.4,0,0,1-1,1.23,4.11,4.11,0,0,1-1.45.72,6.73,6.73,0,0,1-3.9-.11,5.45,5.45,0,0,1-1.85-1.14l1.87-2a2.63,2.63,0,0,0,1,.83,2.83,2.83,0,0,0,1.92.22,2,2,0,0,0,.59-.23,1.24,1.24,0,0,0,.41-.38.94.94,0,0,0,.16-.56,1,1,0,0,0-.41-.88,3.79,3.79,0,0,0-1-.53c-.41-.15-.86-.29-1.34-.43a6,6,0,0,1-1.34-.6,3.18,3.18,0,0,1-1-1,2.76,2.76,0,0,1-.42-1.58,3.6,3.6,0,0,1,.38-1.68,3.7,3.7,0,0,1,1-1.21,4.31,4.31,0,0,1,1.45-.73,5.72,5.72,0,0,1,1.69-.25,6.69,6.69,0,0,1,1.94.28,4.49,4.49,0,0,1,1.7,1Z"/><path class="cls-3" d="M170.77,53.48v19h-9.48v-19H132.82v19h-9.48V25h28.44v9.48h-19V44h28.47V25h28.45v9.48h-19V44h28.14V15.87L0,15.54V82l198.91.33V53.48Zm-123.33-19H19V63h19v-9.5H28.47V44h19V72.46H9.49V25H47.44Zm47.44,19H85.39V63h9.49v9.48H85.39V63h-19v9.48H56.92V25H85.39v9.48h9.49Zm19,19h-9.47V25h9.47Z"/><rect class="cls-3" x="66.41" y="34.51" width="18.97" height="18.97"/></svg>