<svg id="Vrstva_1" data-name="Vrstva 1" xmlns="http://www.w3.org/2000/svg" viewBox="0 0 400 135"><defs><style>.cls-1{fill:#414142;}.cls-2{fill:#e12a30;}.cls-3{fill:#fff;}</style></defs><g id="svg_1" data-name="svg 1"><path class="cls-1" d="M160.32,66.28l14.21,25.78h-13.6L150.38,72h-5.07v20.1H133.13V42.34h12.18V61.41h5.07l10.35-19.07h13l-13.4,23.94Zm36.74,26.38c-11.16,0-20.3-7.5-20.3-18.46,0-11.16,8.93-18.67,20.09-18.67,11.37,0,20.3,7.51,20.3,18.67s-8.93,18.46-20.09,18.46Zm0-27.19c-4.47,0-8.12,3.45-8.12,8.73s3.65,8.52,8.12,8.52,8.12-3.25,8.12-8.52c-.21-5.48-3.86-8.73-8.12-8.73Zm39.37-.41c-1.83,0-3.45.41-3.45,1.83,0,2.64,16.64,3,16.64,14.61,0,6.09-5.48,11.37-14.61,11.37a21.22,21.22,0,0,1-14.21-5.28l5.08-8.12A14.61,14.61,0,0,0,235,83.13c1.82,0,3.45-.41,3.45-1.63,0-3-16.64-3.45-16.64-15,0-6.7,6.49-11,14.61-11,8.32,0,12.58,4.06,12.58,4.06L245,68.11c-.2,0-3.65-3-8.52-3Zm-6.9-12.17-6.9-10.35H232l3.25,5.68h.2l3.25-5.68H248l-6.9,10.35Zm36.73,0h-9.33l5.68-10.35h11.77l-8.12,10.35Zm1.83,39h-12V56.34h12V91.85ZM302,72.57l12,19.28H300.36l-7.51-13.8h-4.06v13.8h-12V42.34h12V67.91h3.45l7.1-11.77h13L302,72.57ZM320,91.85V87.59h4.26v4.26ZM351.9,59.38c-8.12,0-14.81,6.09-14.81,15.43,0,9.13,6.69,15.22,14.81,15.22A15,15,0,0,0,363.47,85l1.62,2.44a17.55,17.55,0,0,1-13.19,5.48c-9.74,0-17.86-7.11-17.86-18.06s8.32-18.27,17.86-18.27c8.32,0,12.38,4.87,12.38,4.87l-1.82,2.44c0-.21-3.86-4.47-10.56-4.47Zm27.2,29.83H400v2.64H371.59V89.42L392.49,63c1.22-1.63,2.64-3.25,2.64-3.25v-.2a23.68,23.68,0,0,1-3.45.2H372.4V57.15h26.79v2.44L378.08,86a36.08,36.08,0,0,1-2.84,3.24v.21a33.26,33.26,0,0,1,3.86-.21Z"/></g><g id="svg_2" data-name="svg 2"><path class="cls-2" d="M56.42,11.08A56.42,56.42,0,1,1,0,67.5,56.31,56.31,0,0,1,56.42,11.08Z"/></g><g id="svg_3" data-name="svg 3"><path class="cls-3" d="M56.42,114.58A46.94,46.94,0,0,1,9.54,67.5a25,25,0,0,1,.2-3.86h9.34a25,25,0,0,0-.21,3.86A37.52,37.52,0,1,0,28,42.94H16.44a47,47,0,1,1,40,71.64Z"/></g><g id="svg_4" data-name="svg 4"><path class="cls-3" d="M42.42,63.85h28.2a4.67,4.67,0,1,1,0,9.33H42.42a4.67,4.67,0,1,1,0-9.33Z"/></g><g id="svg_5" data-name="svg 5"><path class="cls-3" d="M63.12,92.06a6.5,6.5,0,1,1,6.49-6.5,6.54,6.54,0,0,1-6.49,6.5Zm-17,0a6.5,6.5,0,1,1,6.49-6.5,6.41,6.41,0,0,1-6.49,6.5Z"/></g><g id="svg_6" data-name="svg 6"><path class="cls-3" d="M12.38,48.83H76.31a4.67,4.67,0,0,1,0,9.33H12.38A4.59,4.59,0,0,1,7.71,53.5a4.48,4.48,0,0,1,4.67-4.67Z"/></g></svg>