<?xml version="1.0" encoding="UTF-8"?>
<!DOCTYPE svg PUBLIC "-//W3C//DTD SVG 1.1//EN" "http://www.w3.org/Graphics/SVG/1.1/DTD/svg11.dtd">
<svg xmlns="http://www.w3.org/2000/svg" version="1.1" width="400px" height="135px" style="shape-rendering:geometricPrecision; text-rendering:geometricPrecision; image-rendering:optimizeQuality; fill-rule:evenodd; clip-rule:evenodd" xmlns:xlink="http://www.w3.org/1999/xlink">
<g><path style="opacity:0.916" fill="#000000" d="M 68.5,14.5 C 91.4481,16.6873 101.948,29.354 100,52.5C 98.1096,57.2816 95.9429,61.9483 93.5,66.5C 99.8225,77.7571 98.4892,87.9238 89.5,97C 82.9108,100.109 76.2442,100.776 69.5,99C 57.8492,119.885 40.8492,125.885 18.5,117C 2.87133,106.358 -2.29533,91.858 3,73.5C 10.0658,57.877 22.2325,50.2104 39.5,50.5C 38.9342,30.0808 48.6009,18.0808 68.5,14.5 Z M 68.5,31.5 C 82.2567,34.0121 86.2567,41.6788 80.5,54.5C 73.9069,60.6808 67.0736,61.0142 60,55.5C 53.4629,43.9344 56.2963,35.9344 68.5,31.5 Z M 31.5,66.5 C 49.3741,66.5378 57.0408,75.3712 54.5,93C 48.8122,103.684 40.1455,107.351 28.5,104C 17.2411,97.0633 14.4078,87.5633 20,75.5C 23.0449,71.4057 26.8782,68.4057 31.5,66.5 Z M 74.5,73.5 C 80.5184,72.1909 84.1851,74.5243 85.5,80.5C 82.1179,88.235 77.2846,89.235 71,83.5C 69.7549,79.2353 70.9215,75.902 74.5,73.5 Z"/></g>
<g><path style="opacity:0.823" fill="#000000" d="M 233.5,32.5 C 236.518,32.3354 239.518,32.502 242.5,33C 243.399,35.5378 243.066,38.0378 241.5,40.5C 233.926,40.9877 230.592,44.9877 231.5,52.5C 235.182,52.3347 238.848,52.5014 242.5,53C 243.444,55.7191 243.777,58.5525 243.5,61.5C 239.5,61.5 235.5,61.5 231.5,61.5C 231.5,72.1667 231.5,82.8333 231.5,93.5C 228.5,93.5 225.5,93.5 222.5,93.5C 222.5,82.8333 222.5,72.1667 222.5,61.5C 219.5,61.5 216.5,61.5 213.5,61.5C 213.5,58.5 213.5,55.5 213.5,52.5C 216.5,52.5 219.5,52.5 222.5,52.5C 221.029,42.7582 224.696,36.0915 233.5,32.5 Z"/></g>
<g><path style="opacity:0.853" fill="#000000" d="M 399.5,64.5 C 399.5,74.1667 399.5,83.8333 399.5,93.5C 396.5,93.5 393.5,93.5 390.5,93.5C 390.666,84.8269 390.5,76.1603 390,67.5C 387.232,61.8275 382.732,59.9942 376.5,62C 374.695,62.972 373.028,64.1387 371.5,65.5C 370.502,74.8096 370.168,84.1429 370.5,93.5C 367.5,93.5 364.5,93.5 361.5,93.5C 361.5,73.5 361.5,53.5 361.5,33.5C 364.5,33.5 367.5,33.5 370.5,33.5C 370.169,40.8635 370.503,48.1968 371.5,55.5C 372.59,54.273 373.924,53.4396 375.5,53C 386.616,50.5919 394.616,54.4252 399.5,64.5 Z"/></g>
<g><path style="opacity:0.839" fill="#000000" d="M 144.5,52.5 C 147.167,52.5 149.833,52.5 152.5,52.5C 152.343,53.8734 152.51,55.2068 153,56.5C 153.979,54.6797 155.479,53.513 157.5,53C 160.817,52.5017 164.15,52.335 167.5,52.5C 167.296,55.5176 166.963,58.5176 166.5,61.5C 161.553,60.6276 157.387,61.9609 154,65.5C 153.5,74.8274 153.334,84.1607 153.5,93.5C 150.5,93.5 147.5,93.5 144.5,93.5C 144.5,79.8333 144.5,66.1667 144.5,52.5 Z"/></g>
<g><path style="opacity:0.826" fill="#000000" d="M 183.5,52.5 C 200.097,50.775 208.43,58.1084 208.5,74.5C 198.833,75.1667 189.167,75.8333 179.5,76.5C 182.04,83.5794 187.04,86.4128 194.5,85C 197.023,84.4818 199.023,83.1485 200.5,81C 201.5,80.3333 202.5,80.3333 203.5,81C 204.831,82.659 206.165,84.3257 207.5,86C 201.033,93.416 193.033,95.7494 183.5,93C 171.241,86.569 167.408,76.7357 172,63.5C 174.958,58.7975 178.792,55.1308 183.5,52.5 Z M 187.5,60.5 C 192.776,60.3048 196.776,62.4714 199.5,67C 193.141,67.8306 186.807,67.6639 180.5,66.5C 182.288,63.7001 184.622,61.7001 187.5,60.5 Z"/></g>
<g><path style="opacity:0.832" fill="#000000" d="M 250.5,52.5 C 253.5,52.5 256.5,52.5 259.5,52.5C 259.281,53.675 259.614,54.675 260.5,55.5C 261.354,54.4783 262.354,53.6449 263.5,53C 266.817,52.5017 270.15,52.335 273.5,52.5C 273.492,55.5448 273.159,58.5448 272.5,61.5C 267.223,60.5596 263.057,62.2263 260,66.5C 259.5,75.4938 259.334,84.4938 259.5,93.5C 256.5,93.5 253.5,93.5 250.5,93.5C 250.5,79.8333 250.5,66.1667 250.5,52.5 Z"/></g>
<g><path style="opacity:0.818" fill="#000000" d="M 289.5,52.5 C 306.825,50.4835 315.492,58.1502 315.5,75.5C 305.494,75.3335 295.494,75.5002 285.5,76C 291.325,86.7143 298.992,88.2143 308.5,80.5C 310.5,82.1667 312.5,83.8333 314.5,85.5C 307.902,93.4315 299.569,95.9315 289.5,93C 276.464,84.5414 273.631,73.3748 281,59.5C 283.441,56.5464 286.275,54.2131 289.5,52.5 Z M 294.5,60.5 C 299.72,60.1722 303.387,62.3388 305.5,67C 299.167,67.6667 292.833,67.6667 286.5,67C 288.485,63.8337 291.152,61.6671 294.5,60.5 Z"/></g>
<g><path style="opacity:0.822" fill="#000000" d="M 330.5,52.5 C 335.179,52.3342 339.845,52.5008 344.5,53C 351.654,55.4843 351.987,58.9843 345.5,63.5C 341.436,60.5659 337.102,60.0659 332.5,62C 331.978,62.5613 331.645,63.228 331.5,64C 332.34,65.7674 333.673,67.1007 335.5,68C 342.116,68.3877 347.283,71.2211 351,76.5C 353.147,87.4697 348.481,93.4697 337,94.5C 330.696,94.3567 325.529,92.0234 321.5,87.5C 322.287,84.9087 323.787,82.9087 326,81.5C 331.003,85.2505 336.503,86.2505 342.5,84.5C 342.5,82.5 342.5,80.5 342.5,78.5C 337.341,77.5906 332.341,76.0906 327.5,74C 322.497,70.1325 321.163,65.1325 323.5,59C 325.708,56.6223 328.042,54.4557 330.5,52.5 Z"/></g>
</svg>
