<svg id="Vrstva_1" data-name="Vrstva 1" xmlns="http://www.w3.org/2000/svg" viewBox="0 0 400 135"><defs><style>.cls-1{fill:#c64524;}</style></defs><path class="cls-1" d="M150.92,67.47c11.31,2.21,13.52-1.43,15.74-11.88,9.37-44.07,50.5-66,91.39-50.79,24.64,9.14,37.46,29.52,43.08,54.41.73,3.24,2.19,9.18-4.92,8.4-4.46-.49-10.72,3.58-11.61-6.32-1.77-19.6-13-34.36-30.93-41.34-17.52-6.81-35.52-5.82-51.7,6.52-12.32,9.38-18.74,21.16-19.82,36.46-.6,8.63-3.63,17-13.36,18.8C159.82,83.36,154.51,77.66,150.92,67.47Z"/><path class="cls-1" d="M165.28,108.58c-17.87-.36-37.9-15.73-39.84-37.46-.29-3.28,1.64-3.8,3.36-3.23,4.26,1.42,10.42-4.27,12.8,5.06,4.39,17.29,18.45,23.67,35.24,17.23C187.66,86,191.69,76.71,192.4,66.29c1.65-24.36,18.09-37.59,36.25-39.21,23.56-2.11,39.42,12,45.56,33.94.78,2.76,1.5,7.16-3.32,6.44-4.37-.66-11.25,4.5-12.82-4.79-1.64-9.7-7.21-17.31-17-19.1-10.51-1.92-21-1-28.37,9.1-4.3,5.85-4.64,12.67-5.5,19C204,95.37,186.55,108.33,165.28,108.58Z"/><path class="cls-1" d="M247.35,67.28a59.8,59.8,0,0,1-8.06.39c-4.6-.36-5.57,1.74-5.8,6-2,36.52-34.69,63-69.19,61.29-36.53-1.76-60.77-26.94-66-62.6-.56-3.8,1.58-5.21,4.71-4.47,3.93.93,10.56-3.71,11.38,4.11,1.89,18.07,10.46,32.29,26.19,40.69,28.86,15.42,66,3.85,76.48-32.11a44.51,44.51,0,0,0,2-11.8c.09-8.66,3.51-14.24,12.57-15.27C239.9,52.54,244,56.14,247.35,67.28Z"/></svg>