<svg width="243" height="191" viewBox="0 0 243 191" fill="none" xmlns="http://www.w3.org/2000/svg">
<path d="M133.549 191V37.2684H164.12V56.0481H165.503C166.862 53.0395 168.828 49.9823 171.399 46.8766C174.02 43.7224 177.417 41.102 181.59 39.0154C185.812 36.8802 191.053 35.8126 197.313 35.8126C205.465 35.8126 212.987 37.9478 219.877 42.2181C226.768 46.4399 232.276 52.8211 236.401 61.3618C240.525 69.8539 242.588 80.5054 242.588 93.3164C242.588 105.788 240.574 116.318 236.546 124.907C232.567 133.448 227.132 139.926 220.241 144.342C213.399 148.709 205.732 150.893 197.24 150.893C191.222 150.893 186.103 149.898 181.881 147.909C177.708 145.919 174.287 143.42 171.618 140.411C168.949 137.354 166.911 134.273 165.503 131.167H164.557V191H133.549ZM163.902 93.1708C163.902 99.8189 164.824 105.618 166.668 110.568C168.512 115.517 171.181 119.375 174.675 122.141C178.169 124.859 182.415 126.217 187.413 126.217C192.46 126.217 196.73 124.834 200.224 122.068C203.718 119.254 206.363 115.372 208.158 110.422C210.002 105.424 210.924 99.6734 210.924 93.1708C210.924 86.7168 210.026 81.0392 208.231 76.138C206.435 71.2369 203.791 67.4033 200.297 64.6373C196.803 61.8713 192.508 60.4883 187.413 60.4883C182.366 60.4883 178.096 61.8228 174.602 64.4917C171.157 67.1607 168.512 70.9457 166.668 75.8469C164.824 80.7481 163.902 86.5227 163.902 93.1708Z" fill="#007AFF"/>
<path d="M45.3479 150.893C36.8558 150.893 29.1644 148.709 22.2736 144.342C15.4314 139.926 9.99644 133.448 5.96875 124.907C1.98958 116.318 0 105.788 0 93.3163C0 80.5053 2.06237 69.8538 6.18711 61.3616C10.3119 52.821 15.7953 46.4398 22.6376 42.218C29.5283 37.9476 37.0742 35.8125 45.2751 35.8125C51.535 35.8125 56.7516 36.8801 60.9249 39.0152C65.1467 41.1019 68.5435 43.7223 71.1154 46.8765C73.7359 49.9822 75.7254 53.0393 77.0842 56.048H78.0304V0H108.966V149.073H78.3944V131.167H77.0842C75.6284 134.273 73.566 137.354 70.8971 140.411C68.2766 143.42 64.8555 145.919 60.6337 147.908C56.4605 149.898 51.3652 150.893 45.3479 150.893ZM55.1745 126.217C60.1727 126.217 64.3945 124.858 67.8399 122.141C71.3338 119.375 74.0027 115.517 75.8468 110.567C77.7393 105.618 78.6855 99.8188 78.6855 93.1707C78.6855 86.5226 77.7635 80.7479 75.9195 75.8468C74.0755 70.9456 71.4066 67.1605 67.9127 64.4916C64.4188 61.8226 60.1727 60.4882 55.1745 60.4882C50.0792 60.4882 45.7847 61.8712 42.2908 64.6372C38.7969 67.4032 36.1522 71.2367 34.3567 76.1379C32.5612 81.0391 31.6635 86.7167 31.6635 93.1707C31.6635 99.6732 32.5612 105.424 34.3567 110.422C36.2007 115.372 38.8454 119.254 42.2908 122.068C45.7847 124.834 50.0792 126.217 55.1745 126.217Z" fill="#1A1A1A"/>
</svg>
