<svg width="100" height="100" viewBox="0 0 100 100" fill="none" xmlns="http://www.w3.org/2000/svg">
<path d="M50.1066 7.00098C73.7959 7.00098 92.9999 26.2757 92.9999 50.0522C92.9999 63.6057 86.7595 75.6959 77.0054 83.5871C71.4259 88.1011 63.7903 84.2985 61.8313 77.3942L44.2779 15.5304C43.0924 11.3523 45.7635 7.00098 50.1066 7.00098Z" fill="#3385FF"/>
<path d="M40.7431 29.7847C41.4088 32.1218 39.6537 34.4467 37.2236 34.4467H17.1787C13.748 34.4467 11.4164 30.9946 13.1711 28.0466C16.7862 21.9728 21.8565 16.8658 27.9013 13.2063C31.5599 10.9914 36.0386 13.2683 37.2102 17.3815L40.7431 29.7847Z" fill="#3385FF"/>
<path d="M48.2382 56.5979C49.1214 59.7128 46.7816 62.8083 43.5439 62.8083H12.6652C10.5543 62.8083 8.65516 61.4567 8.16735 59.4029C7.40425 56.1902 7 52.8376 7 49.3901C7 47.9561 7.07002 46.5384 7.2067 45.1404C7.43421 42.8134 9.4738 41.1562 11.8119 41.1562H41.0936C42.7302 41.1562 44.1679 42.2429 44.6143 43.8175L48.2382 56.5979Z" fill="#3385FF"/>
<path d="M56.2318 84.0736C57.4751 88.4398 54.7025 92.9993 50.1628 92.9993C36.1561 92.9993 23.7144 86.2999 15.865 75.9304C14.184 73.7096 15.904 70.7373 18.6893 70.7373H49.6715C51.3066 70.7373 52.7433 71.822 53.1911 73.3946L56.2318 84.0736Z" fill="#3385FF"/>
</svg>
