<svg width="553" height="98" viewBox="0 0 553 98" fill="none" xmlns="http://www.w3.org/2000/svg">
<path d="M0.00071016 27.5341C0.00071016 24.7642 1.49219 23.2727 4.26207 23.2727H44.745C47.5149 23.2727 49.0064 24.7642 49.0064 27.5341V31.6889C49.0064 34.4588 47.5149 35.9503 44.745 35.9503H15.3771V53.2798H42.2237C44.9936 53.2798 46.4851 54.7713 46.4851 57.5412V61.696C46.4851 64.4659 44.9936 65.9574 42.2237 65.9574H15.3771V83.3224H44.8871C47.657 83.3224 49.1484 84.8139 49.1484 87.5838V91.7386C49.1484 94.5085 47.657 96 44.8871 96H4.26207C1.49219 96 0.00071016 94.5085 0.00071016 91.7386V27.5341ZM106.207 75.5625H107.191L130.723 4.21875C131.66 1.3125 133.582 -2.86102e-06 136.582 -2.86102e-06H144.973C148.77 -2.86102e-06 150.457 2.34375 149.191 5.90625L118.863 91.8281C117.879 94.6875 116.004 96 113.004 96H100.348C97.3477 96 95.4727 94.6875 94.4883 91.8281L64.207 5.90625C62.9414 2.34375 64.6289 -2.86102e-06 68.4258 -2.86102e-06H76.7695C79.7695 -2.86102e-06 81.6914 1.3125 82.6289 4.21875L106.207 75.5625ZM159.318 96C156.193 96 154.808 94.0824 155.838 91.1349L178.068 26.7173C178.885 24.3381 180.447 23.2727 182.933 23.2727H195.433C197.919 23.2727 199.481 24.3381 200.298 26.7173L222.493 91.1349C223.523 94.1179 222.138 96 219.013 96H211.378C208.892 96 207.329 94.8636 206.548 92.4844L202.287 79.4162H176.044L171.783 92.4844C171.001 94.8636 169.439 96 166.953 96H159.318ZM179.95 67.4134H198.416L189.467 39.892H188.899L179.95 67.4134ZM236.915 27.5341C236.915 24.7642 238.407 23.2727 241.177 23.2727H248.03C250.8 23.2727 252.292 24.7642 252.292 27.5341V83.3224H279.209C281.979 83.3224 283.471 84.8139 283.471 87.5838V91.7386C283.471 94.5085 281.979 96 279.209 96H241.177C238.407 96 236.915 94.5085 236.915 91.7386V27.5341ZM353.691 23.2727C356.46 23.2727 357.952 24.7642 357.952 27.5341V70.5028C357.952 86.4119 345.878 97.0298 327.803 97.0298C309.657 97.0298 297.654 86.4119 297.654 70.5028V27.5341C297.654 24.7642 299.145 23.2727 301.915 23.2727H308.769C311.539 23.2727 313.03 24.7642 313.03 27.5341V69.1889C313.03 77.4986 318.889 83.5 327.803 83.5C336.752 83.5 342.576 77.4986 342.576 69.1889V27.5341C342.576 24.7642 344.067 23.2727 346.837 23.2727H353.691ZM376.603 27.5341C376.603 24.7642 378.094 23.2727 380.864 23.2727H421.347C424.117 23.2727 425.609 24.7642 425.609 27.5341V31.6889C425.609 34.4588 424.117 35.9503 421.347 35.9503H391.979V53.2798H418.826C421.596 53.2798 423.087 54.7713 423.087 57.5412V61.696C423.087 64.4659 421.596 65.9574 418.826 65.9574H391.979V83.3224H421.489C424.259 83.3224 425.751 84.8139 425.751 87.5838V91.7386C425.751 94.5085 424.259 96 421.489 96H380.864C378.094 96 376.603 94.5085 376.603 91.7386V27.5341Z" fill="#0C67EF"/>
<path d="M446.389 96.5312C443.443 96.5312 441.052 94.1648 441.076 91.2188C441.052 88.321 443.443 85.9545 446.389 85.9545C449.238 85.9545 451.677 88.321 451.701 91.2188C451.677 94.1648 449.238 96.5312 446.389 96.5312ZM499.475 63.2315C497.905 63.2315 497.084 62.4588 496.505 60.9616C494.79 56.446 490.564 53.9105 485.373 53.9105C477.283 53.9105 471.584 60.1165 471.584 71.2727C471.584 82.6222 477.331 88.6349 485.348 88.6349C490.444 88.6349 494.669 86.2202 496.456 81.8253C497.06 80.3281 497.905 79.6037 499.475 79.6037L503.169 79.6278C505.029 79.6278 506.067 80.7386 505.512 82.5256C503.097 90.5909 495.756 96.6761 485.228 96.6761C472.188 96.6761 462.577 87.2344 462.577 71.2727C462.577 55.2869 472.309 45.8693 485.228 45.8693C495.177 45.8693 503.073 51.1335 505.56 60.3097C506.067 62.1207 505.053 63.2315 503.194 63.2315H499.475ZM516.17 92.233C516.17 90.929 516.46 90.0114 517.209 88.9247L541.525 54.0554H518.682C516.967 54.0554 516.025 53.1136 516.025 51.3991V49.2017C516.025 47.4872 516.967 46.5455 518.682 46.5455H549.977C551.692 46.5455 552.633 47.4872 552.633 49.2017V50.3125C552.633 51.6165 552.344 52.5341 551.595 53.6207L527.302 88.4901H550.122C551.837 88.4901 552.778 89.4318 552.778 91.1463V93.3438C552.778 95.0582 551.837 96 550.122 96H518.827C517.112 96 516.17 95.0582 516.17 93.3438V92.233Z" fill="#0C67EF"/>
</svg>
