<svg width="282" height="282" viewBox="0 0 282 282" fill="none" xmlns="http://www.w3.org/2000/svg">
<path d="M141.347 0C219.028 0 282 63.2043 282 141.171C282 185.614 261.537 225.26 229.552 251.136C211.256 265.938 186.218 253.469 179.794 230.829L122.234 27.9692C118.347 14.2686 127.106 0 141.347 0Z" fill="#0C67EF"/>
<path d="M110.646 74.7127C112.828 82.3764 107.073 90 99.1046 90H33.3746C22.1248 90 14.4795 78.6803 20.2332 69.0133C32.0876 49.0965 48.7138 32.35 68.5355 20.3501C80.5325 13.0871 95.2189 20.5535 99.0607 34.0412L110.646 74.7127Z" fill="#0C67EF"/>
<path d="M135.226 162.635C138.122 172.849 130.449 183 119.832 183H18.5771C11.6552 183 5.4275 178.568 3.82789 171.833C1.32557 161.298 0 150.305 0 139C0 134.297 0.229602 129.649 0.677798 125.065C1.42383 117.434 8.11194 112 15.7789 112H111.798C117.164 112 121.878 115.563 123.342 120.726L135.226 162.635Z" fill="#0C67EF"/>
<path d="M161.429 252.732C165.506 267.049 156.414 282 141.528 282C95.5977 282 54.7997 260.032 29.0606 226.029C23.5482 218.747 29.1885 209 38.3218 209H139.917C145.278 209 149.989 212.557 151.458 217.714L161.429 252.732Z" fill="#0C67EF"/>
</svg>
