<svg width="426" height="97" viewBox="0 0 426 97" fill="none" xmlns="http://www.w3.org/2000/svg">
<path d="M376.754 27.5256C376.754 24.7566 378.246 23.2656 381.017 23.2656H421.516C424.287 23.2656 425.779 24.7566 425.779 27.5256V31.6792C425.779 34.4482 424.287 35.9392 421.516 35.9392H392.136V53.2634H418.994C421.765 53.2634 423.257 54.7545 423.257 57.5235V61.677C423.257 64.4461 421.765 65.9371 418.994 65.9371H392.136V83.2968H421.658C424.429 83.2968 425.921 84.7878 425.921 87.5569V91.7104C425.921 94.4795 424.429 95.9705 421.658 95.9705H381.017C378.246 95.9705 376.754 94.4795 376.754 91.7104V27.5256Z" fill="#0C67EF"/>
<path d="M353.832 23.2656C356.603 23.2656 358.095 24.7566 358.095 27.5256V70.4812C358.095 86.3854 346.017 97 327.934 97C309.78 97 297.773 86.3854 297.773 70.4812V27.5256C297.773 24.7566 299.265 23.2656 302.036 23.2656H308.892C311.663 23.2656 313.155 24.7566 313.155 27.5256V69.1676C313.155 77.4747 319.017 83.4743 327.934 83.4743C336.886 83.4743 342.713 77.4747 342.713 69.1676V27.5256C342.713 24.7566 344.205 23.2656 346.976 23.2656H353.832Z" fill="#0C67EF"/>
<path d="M237.01 27.5256C237.01 24.7566 238.502 23.2656 241.273 23.2656H248.13C250.901 23.2656 252.393 24.7566 252.393 27.5256V83.2968H279.321C282.092 83.2968 283.584 84.7878 283.584 87.5569V91.7104C283.584 94.4795 282.092 95.9705 279.321 95.9705H241.273C238.502 95.9705 237.01 94.4795 237.01 91.7104V27.5256Z" fill="#0C67EF"/>
<path d="M159.381 95.9705C156.255 95.9705 154.87 94.0534 155.9 91.1069L178.139 26.7091C178.956 24.3306 180.519 23.2656 183.006 23.2656H195.511C197.998 23.2656 199.561 24.3306 200.378 26.7091L222.582 91.1069C223.612 94.0889 222.226 95.9705 219.1 95.9705H211.462C208.975 95.9705 207.412 94.8345 206.631 92.4559L202.368 79.3918H176.114L171.851 92.4559C171.069 94.8345 169.506 95.9705 167.02 95.9705H159.381ZM180.022 67.3926H198.495L189.543 39.8798H188.974L180.022 67.3926Z" fill="#0C67EF"/>
<path d="M106.249 75.5393H107.234L130.775 4.21746C131.712 1.3121 133.635 0 136.636 0H145.03C148.829 0 150.517 2.34303 149.251 5.90443L118.91 91.7999C117.926 94.6584 116.05 95.9705 113.049 95.9705H100.387C97.3861 95.9705 95.5104 94.6584 94.5256 91.7999L64.2322 5.90443C62.966 2.34303 64.6542 0 68.4526 0H76.7997C79.8009 0 81.7236 1.3121 82.6614 4.21746L106.249 75.5393Z" fill="#0C67EF"/>
<path d="M0 27.5256C0 24.7566 1.49208 23.2656 4.26308 23.2656H44.7623C47.5333 23.2656 49.0254 24.7566 49.0254 27.5256V31.6792C49.0254 34.4482 47.5333 35.9392 44.7623 35.9392H15.3826V53.2634H42.24C45.011 53.2634 46.5031 54.7545 46.5031 57.5235V61.677C46.5031 64.4461 45.011 65.9371 42.24 65.9371H15.3826V83.2968H44.9044C47.6754 83.2968 49.1675 84.7878 49.1675 87.5569V91.7104C49.1675 94.4795 47.6754 95.9705 44.9044 95.9705H4.26308C1.49208 95.9705 0 94.4795 0 91.7104V27.5256Z" fill="#0C67EF"/>
</svg>
